<?xml version="1.0" standalone="no"?>
<!DOCTYPE svg PUBLIC "-//W3C//DTD SVG 20010904//EN"
 "http://www.w3.org/TR/2001/REC-SVG-20010904/DTD/svg10.dtd">
<svg version="1.0" xmlns="http://www.w3.org/2000/svg"
 width="1188.000000pt" height="433.000000pt" viewBox="0 0 1188.000000 433.000000"
 preserveAspectRatio="xMidYMid meet">
<metadata>
Created by potrace 1.16, written by Peter Selinger 2001-2019
</metadata>
<g transform="translate(0.000000,433.000000) scale(0.100000,-0.100000)"
fill="#000000" stroke="none">
<path d="M1980 4270 c0 -6 -3 -9 -7 -9 -5 1 -12 0 -18 -1 -26 -6 -51 -4 -56 4
-4 5 -15 5 -25 1 -11 -4 -35 -9 -54 -11 -19 -1 -55 -5 -80 -9 -25 -4 -51 -7
-57 -7 -7 -1 -13 -6 -13 -11 0 -5 -7 -6 -16 -3 -9 3 -21 3 -27 -1 -7 -5 -21
-8 -32 -8 -11 0 -19 -6 -18 -12 2 -7 -2 -13 -7 -13 -5 0 -10 5 -10 10 0 7 -6
7 -17 1 -10 -5 -20 -9 -23 -9 -15 -1 -70 -16 -108 -30 -30 -10 -39 -18 -30
-23 7 -5 8 -9 2 -9 -5 0 -15 5 -22 12 -9 9 -12 9 -12 0 0 -7 -8 -12 -17 -12
-15 0 -16 -2 -3 -10 9 -6 10 -10 3 -10 -6 0 -14 4 -18 10 -7 11 -46 -2 -85
-30 -15 -11 -31 -16 -35 -12 -5 4 -5 1 -1 -6 5 -9 3 -12 -5 -11 -20 4 -59 -11
-59 -22 0 -6 -5 -7 -11 -4 -6 4 -13 -2 -16 -14 -3 -12 -10 -21 -15 -21 -5 0
-6 5 -3 10 7 12 -67 -24 -108 -53 -18 -12 -26 -25 -22 -35 4 -12 3 -12 -9 -3
-11 9 -24 4 -62 -25 -97 -74 -114 -89 -114 -102 0 -7 4 -11 9 -7 5 3 12 1 16
-4 5 -9 -12 -9 -41 1 -12 3 -233 -211 -234 -227 -1 -5 -19 -28 -40 -50 -22
-22 -40 -44 -40 -49 0 -5 -7 -14 -16 -21 -14 -10 -13 -14 16 -38 17 -15 27
-27 21 -27 -6 0 -19 10 -31 22 -11 12 -21 20 -23 17 -35 -44 -58 -79 -51 -79
5 0 4 -4 -1 -8 -14 -9 -62 -77 -49 -70 5 3 9 -6 9 -22 1 -20 -3 -26 -13 -22
-10 3 -11 7 -2 12 9 5 9 9 1 14 -6 4 -12 2 -12 -3 -1 -6 -2 -15 -3 -20 0 -6
-6 -15 -13 -22 -9 -9 -9 -17 -1 -33 10 -19 10 -20 -6 -7 -14 12 -16 12 -10 -4
5 -13 4 -16 -4 -11 -12 7 -17 -11 -13 -43 2 -7 -2 -10 -7 -7 -11 7 -22 -16
-22 -45 0 -13 -4 -18 -12 -13 -7 4 -8 3 -4 -4 4 -7 2 -12 -3 -12 -6 0 -11 -9
-11 -20 0 -12 -6 -31 -14 -43 -8 -12 -17 -33 -19 -47 -3 -14 -12 -43 -21 -64
-9 -21 -17 -51 -18 -67 -1 -16 -5 -29 -8 -29 -11 0 -31 -119 -24 -147 4 -22 3
-25 -5 -13 -8 12 -11 6 -12 -25 -1 -22 -3 -51 -5 -65 -13 -119 -14 -143 -2
-158 9 -11 9 -14 1 -9 -28 17 -30 -146 -2 -164 10 -6 11 -9 2 -9 -7 0 -13 -11
-13 -25 0 -16 6 -25 15 -25 12 0 14 -7 9 -27 -9 -37 -18 -45 -12 -10 3 15 1
27 -3 27 -10 0 -12 -43 -3 -53 3 -3 8 -25 10 -49 5 -70 24 -181 34 -208 3 -6
6 -21 8 -34 1 -5 9 -3 17 4 13 11 14 10 9 -4 -3 -9 -10 -16 -15 -16 -6 0 -6
-7 0 -18 5 -9 9 -21 10 -27 4 -35 15 -76 22 -80 4 -3 5 -13 2 -22 -4 -10 -2
-14 4 -10 6 4 10 -4 11 -20 0 -15 4 -29 10 -31 6 -2 8 -10 5 -18 -3 -8 0 -14
6 -14 6 0 10 -3 10 -7 -1 -5 0 -11 1 -15 1 -5 3 -11 5 -15 8 -30 18 -41 33
-35 15 5 15 4 3 -11 -9 -12 -10 -17 -2 -17 7 0 10 -4 6 -9 -5 -8 23 -67 72
-154 7 -12 17 -22 22 -22 5 0 13 -4 18 -9 5 -5 3 -6 -4 -2 -15 9 -17 -3 -3
-24 6 -10 10 -11 10 -2 0 6 5 12 10 12 7 0 8 -6 1 -17 -7 -13 -1 -28 22 -63
18 -25 40 -51 50 -58 9 -7 15 -17 12 -22 -3 -5 5 -16 17 -24 12 -9 19 -16 14
-16 -4 0 15 -26 44 -57 28 -32 58 -58 67 -58 9 0 18 -7 20 -15 4 -13 3 -13 -7
0 -10 13 -11 13 -7 0 2 -8 12 -17 22 -18 12 -3 15 0 10 9 -5 8 -4 10 4 5 8 -6
9 -11 2 -20 -8 -10 11 -33 75 -92 47 -43 91 -81 97 -83 7 -2 18 -11 25 -20 8
-9 11 -11 8 -4 -4 6 -1 15 6 19 7 4 10 4 6 -1 -9 -9 9 -45 22 -45 12 0 9 22
-3 31 -5 3 -1 9 8 12 10 4 14 3 9 -4 -4 -8 1 -9 16 -4 15 5 20 4 16 -4 -4 -6
-13 -11 -19 -11 -7 0 -13 -9 -14 -20 -1 -16 3 -20 17 -15 10 3 21 1 25 -4 4
-7 -1 -8 -11 -4 -12 4 -15 3 -10 -5 4 -7 13 -12 20 -12 7 0 21 -9 31 -20 10
-11 21 -17 25 -15 4 3 11 -2 14 -11 5 -13 9 -14 21 -4 15 12 16 11 19 -12 1
-16 246 -139 260 -131 19 12 63 10 63 -3 0 -9 -5 -10 -19 -3 -10 5 -23 7 -29
3 -12 -7 36 -31 74 -37 12 -1 32 -9 45 -16 13 -7 28 -10 35 -7 7 2 5 5 -5 5
-9 1 -19 5 -22 10 -4 5 3 7 15 4 11 -3 23 -12 26 -19 3 -7 21 -16 41 -20 21
-3 44 -8 52 -11 8 -4 19 -5 24 -4 4 1 15 -4 24 -11 12 -11 14 -11 11 1 -6 17
-73 40 -102 35 -19 -4 -19 -3 3 6 20 9 22 13 10 21 -12 9 -12 10 3 5 10 -3 21
-6 23 -6 3 0 2 -5 -2 -12 -5 -8 0 -9 14 -6 12 4 20 2 16 -3 -3 -5 2 -9 10 -9
9 0 21 -9 28 -20 15 -23 28 -26 28 -6 0 8 4 17 9 20 4 3 6 -6 3 -20 -4 -25 -3
-26 32 -21 20 3 36 1 36 -4 0 -14 30 -11 30 4 0 6 5 4 11 -6 8 -14 20 -17 60
-13 30 3 47 1 44 -4 -8 -13 2 -13 27 1 15 8 19 8 14 0 -4 -6 0 -11 8 -11 9 0
16 7 16 15 0 8 -5 15 -12 15 -6 0 -9 3 -5 6 9 9 32 -9 32 -26 0 -13 58 -15
465 -15 l465 0 2 408 c2 258 -1 406 -7 402 -6 -3 -7 1 -4 10 6 14 -37 15 -435
15 -438 -1 -447 -2 -442 -32 0 -4 -13 -2 -29 4 -17 5 -30 16 -30 23 0 8 -23
15 -67 20 -36 4 -73 10 -81 13 -11 4 -13 1 -7 -9 5 -8 -1 -5 -13 5 -12 11 -22
15 -22 10 0 -5 -4 -3 -9 4 -7 11 -14 11 -42 -4 -40 -21 -59 -25 -59 -13 0 4
-6 6 -14 3 -17 -6 -29 23 -14 32 6 4 17 -2 25 -12 14 -18 15 -18 28 -1 8 11
15 14 18 7 3 -6 4 -5 3 2 -1 7 -17 18 -35 25 -18 8 -30 10 -28 6 3 -5 -3 -9
-13 -9 -15 0 -17 3 -7 15 10 12 8 13 -11 8 -13 -3 -21 -3 -18 0 3 4 -24 22
-61 41 -36 18 -72 40 -80 47 -7 8 -21 11 -30 8 -11 -4 -14 -3 -9 5 4 7 1 12
-9 12 -9 0 -13 4 -10 10 3 6 -1 7 -10 4 -9 -4 -15 -2 -13 3 2 5 -20 30 -49 54
-28 25 -61 57 -73 72 -21 27 -48 38 -34 14 4 -7 3 -9 -2 -4 -5 5 -9 12 -9 15
-1 17 -51 81 -61 78 -6 -2 -11 2 -11 9 0 23 -47 85 -60 80 -7 -2 -15 1 -19 7
-4 7 -3 8 4 4 7 -4 12 -1 12 9 0 8 -7 18 -15 21 -8 4 -12 10 -9 15 3 5 0 8 -7
7 -6 -2 -14 3 -17 11 -2 8 0 11 6 7 6 -3 0 15 -14 41 -13 27 -24 54 -24 61 0
7 -7 15 -16 19 -8 3 -13 12 -10 19 3 8 0 13 -6 11 -6 -1 -13 4 -16 12 -3 9 0
11 8 6 9 -6 10 -1 5 16 -17 54 -25 70 -34 65 -5 -4 -7 3 -4 14 3 12 -2 30 -13
43 -16 18 -16 19 -2 8 22 -16 24 1 3 19 -10 9 -12 17 -5 30 5 10 6 30 1 46
-16 58 -5 333 16 422 16 63 17 80 7 71 -22 -18 -16 -2 6 19 26 24 17 55 -14
47 -19 -5 -19 -5 -3 5 13 9 22 9 32 0 10 -9 16 -4 25 24 6 20 8 41 4 47 -4 8
-3 9 5 5 6 -4 13 0 17 11 10 33 38 88 66 127 22 31 25 42 16 53 -9 11 -13 11
-19 1 -5 -7 -9 -8 -9 -2 0 18 12 24 26 13 20 -17 73 48 69 84 -2 15 0 25 5 22
5 -3 6 -13 3 -23 -6 -15 -5 -15 10 -3 9 7 14 18 10 24 -3 5 -2 7 4 4 10 -7
127 108 136 134 3 9 0 22 -6 28 -8 8 -8 11 1 11 11 0 16 -13 13 -32 -2 -15 11
-8 45 21 28 25 31 31 18 42 -16 13 -12 22 12 25 12 2 13 -1 3 -12 -9 -11 -7
-14 10 -14 12 0 19 5 16 10 -3 6 0 10 7 10 8 0 23 7 34 16 10 8 14 13 7 10 -6
-4 -14 -2 -18 3 -3 6 3 8 15 6 11 -2 34 1 50 7 25 8 28 13 19 24 -10 12 -8 13
6 8 13 -5 16 -4 11 4 -9 16 7 15 22 0 18 -18 15 2 -3 22 -14 16 -11 17 42 15
64 -2 86 2 77 16 -3 5 2 6 11 3 8 -4 22 -1 30 6 8 6 19 9 25 5 5 -3 13 0 16 9
3 8 13 17 21 20 14 6 14 4 2 -11 -12 -15 -12 -16 4 -10 10 4 24 7 30 7 6 0 4
7 -5 16 -11 11 -23 14 -35 9 -10 -5 -21 -8 -25 -7 -4 1 -4 -6 -1 -16 6 -15 5
-15 -11 -3 -16 14 -16 15 7 28 28 14 86 13 84 -2 -3 -13 41 -19 56 -7 7 5 22
8 35 6 17 -3 21 0 16 8 -6 9 -3 9 9 -1 10 -8 27 -11 42 -7 14 4 223 6 465 6
l440 0 -2 418 -3 417 -457 2 c-291 2 -458 -1 -458 -7z"/>
<path d="M5315 4264 c-393 -61 -712 -299 -885 -659 -61 -127 -94 -228 -127
-385 -23 -111 -26 -148 -27 -340 -1 -186 2 -230 22 -328 128 -635 598 -1022
1228 -1011 457 8 818 218 999 584 55 110 97 246 110 350 l7 55 -156 0 c-153 0
-156 0 -160 -22 -21 -109 -51 -214 -79 -273 -94 -195 -272 -341 -497 -405 -94
-27 -305 -38 -406 -21 -297 50 -531 239 -653 526 -32 77 -68 208 -73 269 l-3
39 165 59 c91 33 300 109 465 168 165 59 534 192 820 295 286 103 533 192 548
198 28 9 29 12 22 56 -38 272 -192 518 -419 671 -131 88 -286 147 -456 174
-112 18 -332 18 -445 0z m448 -266 c209 -48 390 -189 476 -371 33 -70 57 -144
49 -153 -5 -5 -1678 -614 -1687 -614 -8 0 9 239 23 320 19 107 57 237 91 315
64 144 192 299 314 381 201 136 479 182 734 122z"/>
<path d="M10460 4274 c-14 -2 -56 -9 -95 -15 -100 -16 -217 -55 -315 -104
-448 -226 -698 -702 -683 -1300 14 -549 287 -1015 705 -1205 321 -145 775
-145 1084 -1 362 170 605 507 690 959 34 181 27 469 -16 678 -82 395 -341 732
-687 891 -43 19 -130 49 -193 65 -102 26 -135 30 -290 33 -96 2 -186 2 -200
-1z m348 -269 c135 -27 250 -85 370 -185 266 -223 408 -681 346 -1121 -40
-282 -138 -495 -303 -659 -101 -100 -196 -159 -325 -202 -163 -55 -413 -51
-580 9 -321 116 -544 430 -607 854 -15 107 -13 329 5 439 61 376 232 641 508
789 167 90 378 117 586 76z"/>
<path d="M3595 2235 c0 -1122 1 -1580 2 -1017 2 563 2 1481 0 2040 -1 559 -2
99 -2 -1023z"/>
<path d="M6900 4210 c0 -3 209 -591 464 -1306 l464 -1299 178 0 178 0 198 555
c109 305 224 629 257 720 100 278 271 758 321 900 26 74 69 192 94 262 25 69
47 137 48 150 l3 23 -169 0 -168 0 -372 -1025 c-204 -564 -375 -1034 -380
-1045 -6 -16 -15 -2 -41 70 -47 127 -416 1136 -585 1600 -78 215 -144 392
-147 395 -7 7 -343 7 -343 0z"/>
<path d="M1961 3000 c-292 -62 -520 -268 -611 -555 -34 -107 -39 -294 -11
-405 70 -282 270 -493 551 -582 64 -20 96 -23 220 -23 124 0 156 3 220 23 268
85 458 275 542 542 20 64 23 96 23 220 0 124 -3 156 -23 220 -83 263 -272 454
-530 537 -62 20 -103 26 -207 28 -71 2 -150 0 -174 -5z"/>
</g>
</svg>
