<?xml version="1.0" standalone="yes"?>
<svg xmlns="http://www.w3.org/2000/svg" width="720" height="720">
<path style="fill:#f1c9ba; stroke:none;" d="M186.667 53.3333C186.222 53.7778 187.278 53.7223 187.333 53.6667C187.778 53.222 186.722 53.2778 186.667 53.3333z"/>
<path style="fill:#ea7877; stroke:none;" d="M188 53C189.506 53.683 190.315 53.8259 192 54C190.494 53.3169 189.685 53.1741 188 53z"/>
<path style="fill:#fb4c53; stroke:none;" d="M192 53C193.769 53.7789 195.036 53.9124 197 54C195.231 53.2211 193.964 53.0876 192 53z"/>
<path style="fill:#eb1c24; stroke:none;" d="M146 66C135.779 65.3265 123.933 74.8726 116 80.5795C112.446 83.1363 106.902 86.1885 109 91C107.227 91.5659 105.842 91.928 104 92L103 95C98.5962 94.9344 96.1416 97.7456 93.2894 101.001C88.3817 106.602 83.9032 112.747 79.8642 119C71.0229 132.687 65.7293 147.539 60.9753 163C57.8495 173.166 54.4579 184.365 53.5285 195C52.9923 201.137 54 207.785 54 214L53 212C51.1883 216.318 52.2802 221.384 51.561 226C48.9915 242.492 49.7144 258.477 51.7415 275C52.5937 281.946 52.28 289.048 53.4352 296C56.7296 315.828 63.342 333.358 70.1883 352C75.3968 366.183 80.2908 379.776 88.0116 393C94.0226 403.295 100.52 413.426 107.63 423C112.884 430.077 117.109 435.777 126 438C121.575 446.985 138.178 458.393 144 463.961C154.95 474.431 167.484 482.78 179.715 491.455C193.435 501.188 208.071 513.118 226 510.23C251.449 506.131 252.785 472.097 235 458.76C216.969 445.239 198.61 431.064 186 412C182.391 410.922 182.032 408.166 180.41 405C178.453 401.178 175.8 397.691 173.604 394C161.544 373.729 155.331 352.477 149 330C198.618 349.141 257.389 338.48 297 302.829C312.887 288.531 324.752 270.573 333.127 251C347.682 216.987 346.56 176.002 333 142C327.923 129.269 321.111 114.433 309 107C309.196 101.61 305.638 98.6412 301.999 95.0008C295.029 88.0271 287.376 81.6497 279 76.4252C259.882 64.4998 237.703 55.6472 215 54.0895C203.715 53.3151 193.177 54.7167 182 55.679C172.81 56.4702 164.881 57.3823 156 60.3333C152.025 61.6543 148.414 62.4396 146 66z"/>
<path style="fill:#ed0016; stroke:none;" d="M198 53C199.769 53.7789 201.036 53.9124 203 54C201.231 53.2211 199.964 53.0876 198 53z"/>
<path style="fill:#e34f4f; stroke:none;" d="M204 53C205.769 53.7789 207.036 53.9124 209 54C207.231 53.2211 205.964 53.0876 204 53z"/>
<path style="fill:#f57a7e; stroke:none;" d="M209 53C210.248 53.6848 210.548 53.7488 212 54C210.752 53.3151 210.452 53.2512 209 53z"/>
<path style="fill:#f8c6c0; stroke:none;" d="M212.667 53.3333C212.222 53.7777 213.278 53.7223 213.333 53.6667C213.778 53.222 212.722 53.2778 212.667 53.3333z"/>
<path style="fill:#ffe8de; stroke:none;" d="M214.667 53.3333C214.222 53.7777 215.278 53.7223 215.333 53.6667C215.778 53.222 214.722 53.2778 214.667 53.3333z"/>
<path style="fill:#ffe0d7; stroke:none;" d="M512 53C513.248 53.6848 513.548 53.7488 515 54C513.752 53.3152 513.452 53.2512 512 53z"/>
<path style="fill:#f18e90; stroke:none;" d="M515 53C516.248 53.6848 516.548 53.7488 518 54C516.752 53.3152 516.451 53.2512 515 53z"/>
<path style="fill:#e94c4f; stroke:none;" d="M518 53C520.052 53.8743 521.747 53.9528 524 54C521.948 53.1257 520.253 53.0472 518 53z"/>
<path style="fill:#eb1c24; stroke:none;" d="M476 330C513.519 344.474 555.839 341.871 592 324.68C602.829 319.532 612.176 311.711 622 305L621 302C637.395 294.048 648.443 275.826 656.244 260C679.439 212.945 674.372 151.591 641.986 110C630.058 94.6819 616.66 82.4837 599.514 73.6181C593.523 70.5206 590.5 65.8732 583 67L583 64C577.457 62.1963 571.903 59.4664 566 60C561.849 54.8616 550.161 55.0099 544 55C525.142 54.9697 508.032 52.7001 489.576 58.7809C474.437 63.7686 460.394 68.6497 447 77.7462C402.457 107.997 383.187 160.192 378.17 212C369.914 297.261 396.053 386.266 456.039 449C476.48 470.377 499.487 489.856 525.911 503.35C529.45 505.157 532.189 507.914 536.001 509.285C554.346 515.888 574.636 502.762 574.66 483C574.68 467.14 563.183 460.255 552 451.575C542.779 444.417 534.048 436.544 526.089 428C499.647 399.612 486.323 366.65 476 330z"/>
<path style="fill:#ed0016; stroke:none;" d="M525 53C526.769 53.779 528.036 53.9124 530 54C528.231 53.221 526.964 53.0876 525 53z"/>
<path style="fill:#e2474a; stroke:none;" d="M531 53C532.769 53.7789 534.036 53.9124 536 54C534.231 53.2211 532.964 53.0876 531 53z"/>
<path style="fill:#eb837e; stroke:none;" d="M536 53C537.248 53.6848 537.548 53.7488 539 54C537.752 53.3152 537.452 53.2512 536 53z"/>
<path style="fill:#f1c9ba; stroke:none;" d="M539.667 53.3333C539.222 53.7778 540.278 53.7224 540.333 53.6667C540.778 53.2222 539.722 53.2777 539.667 53.3333z"/>
<path style="fill:#ec8688; stroke:none;" d="M179.667 54.3333C179.222 54.7778 180.278 54.7223 180.333 54.6667C180.778 54.222 179.722 54.2778 179.667 54.3333z"/>
<path style="fill:#e5373b; stroke:none;" d="M181.667 54.3333C181.222 54.7778 182.278 54.7223 182.333 54.6667C182.778 54.222 181.722 54.2778 181.667 54.3333z"/>
<path style="fill:#f00f17; stroke:none;" d="M177 55C181.944 57.0552 188.65 55.0035 194 55C188.691 52.7723 182.568 54.761 177 55z"/>
<path style="fill:#fd6d79; stroke:none;" d="M218.667 54.3333C218.222 54.7777 219.278 54.7223 219.333 54.6667C219.778 54.222 218.722 54.2778 218.667 54.3333z"/>
<path style="fill:#e7abbb; stroke:none;" d="M220.667 54.3333C220.222 54.7777 221.278 54.7223 221.333 54.6667C221.778 54.222 220.722 54.2778 220.667 54.3333z"/>
<path style="fill:#ef8794; stroke:none;" d="M506.667 54.3333C506.222 54.778 507.278 54.722 507.333 54.6667C507.778 54.2224 506.722 54.2776 506.667 54.3333z"/>
<path style="fill:#f53c42; stroke:none;" d="M508.667 54.3333C508.222 54.7781 509.278 54.722 509.333 54.6667C509.778 54.2224 508.722 54.2776 508.667 54.3333z"/>
<path style="fill:#f00617; stroke:none;" d="M532 54C535.697 55.5516 540.017 55 544 55C540.303 53.4485 535.983 54 532 54z"/>
<path style="fill:#e13c3a; stroke:none;" d="M544 54C545.248 54.6848 545.548 54.7488 547 55C545.752 54.3152 545.452 54.2512 544 54z"/>
<path style="fill:#eeb3b3; stroke:none;" d="M547.667 54.3333C547.222 54.7778 548.278 54.7222 548.333 54.6667C548.778 54.2222 547.722 54.2776 547.667 54.3333z"/>
<path style="fill:#f8bbc1; stroke:none;" d="M173 55L174 56L173 55z"/>
<path style="fill:#eb536a; stroke:none;" d="M174.667 55.3333C174.222 55.7778 175.278 55.7222 175.333 55.6667C175.778 55.222 174.722 55.2778 174.667 55.3333z"/>
<path style="fill:#ef4852; stroke:none;" d="M225 55L226 56L225 55z"/>
<path style="fill:#f5848c; stroke:none;" d="M226 55L227 56L226 55z"/>
<path style="fill:#fcc3c8; stroke:none;" d="M500 55L501 56L500 55z"/>
<path style="fill:#f5848c; stroke:none;" d="M501 55L502 56L501 55z"/>
<path style="fill:#f37c8a; stroke:none;" d="M552.667 55.3333C552.222 55.7778 553.278 55.7223 553.333 55.6667C553.778 55.2222 552.722 55.2776 552.667 55.3333z"/>
<path style="fill:#fdbec3; stroke:none;" d="M554 55L555 56L554 55z"/>
<path style="fill:#f78f89; stroke:none;" d="M168.667 56.3333C168.222 56.7777 169.278 56.7222 169.333 56.6667C169.778 56.2221 168.722 56.2777 168.667 56.3333z"/>
<path style="fill:#fa8373; stroke:none;" d="M230.667 56.3333C230.222 56.7777 231.278 56.7223 231.333 56.6667C231.778 56.222 230.722 56.2777 230.667 56.3333z"/>
<path style="fill:#ea504d; stroke:none;" d="M496.667 56.3333C496.222 56.7779 497.278 56.7222 497.333 56.6667C497.778 56.2224 496.722 56.2775 496.667 56.3333z"/>
<path style="fill:#ffc0b1; stroke:none;" d="M558.667 56.3333C558.222 56.7778 559.278 56.7222 559.333 56.6667C559.778 56.222 558.722 56.2778 558.667 56.3333z"/>
<path style="fill:#fbcacb; stroke:none;" d="M164 57L165 58L164 57z"/>
<path style="fill:#f17b7e; stroke:none;" d="M165 57L166 58L165 57z"/>
<path style="fill:#f5707d; stroke:none;" d="M235 57L236 58L235 57z"/>
<path style="fill:#f6c9c5; stroke:none;" d="M236 57L237 58L236 57M491 57L492 58L491 57z"/>
<path style="fill:#f5707d; stroke:none;" d="M492 57L493 58L492 57z"/>
<path style="fill:#f17b7e; stroke:none;" d="M562 57L563 58L562 57z"/>
<path style="fill:#f592a0; stroke:none;" d="M161 58L162 59L161 58z"/>
<path style="fill:#ed4959; stroke:none;" d="M238 58L239 59L238 58z"/>
<path style="fill:#f68f89; stroke:none;" d="M239 58L240 59L239 58M488 58L489 59L488 58z"/>
<path style="fill:#ed4959; stroke:none;" d="M489 58L490 59L489 58z"/>
<path style="fill:#f592a0; stroke:none;" d="M566 58L567 59L566 58z"/>
<path style="fill:#f1d3bf; stroke:none;" d="M157 59L158 60L157 59z"/>
<path style="fill:#f16364; stroke:none;" d="M158 59L159 60L158 59z"/>
<path style="fill:#df6c74; stroke:none;" d="M242 59L243 60L242 59M485 59L486 60L485 59z"/>
<path style="fill:#e60801; stroke:none;" d="M487 59C488.248 59.6848 488.548 59.7488 490 60C488.752 59.3152 488.452 59.2512 487 59z"/>
<path style="fill:#de0403; stroke:none;" d="M566.667 59.3333C566.222 59.7778 567.278 59.7222 567.333 59.6667C567.778 59.2222 566.722 59.2777 566.667 59.3333z"/>
<path style="fill:#f16364; stroke:none;" d="M569 59L570 60L569 59z"/>
<path style="fill:#f1d3bf; stroke:none;" d="M570 59L571 60L570 59z"/>
<path style="fill:#ffd0c7; stroke:none;" d="M154 60L155 61L154 60z"/>
<path style="fill:#ea6266; stroke:none;" d="M155 60L156 61L155 60z"/>
<path style="fill:#f0636f; stroke:none;" d="M245 60L246 61L245 60z"/>
<path style="fill:#f8c6cf; stroke:none;" d="M246 60L247 61L246 60M481 60L482 61L481 60z"/>
<path style="fill:#f0636f; stroke:none;" d="M482 60L483 61L482 60z"/>
<path style="fill:#ea6266; stroke:none;" d="M572 60L573 61L572 60z"/>
<path style="fill:#ffd0c7; stroke:none;" d="M573 60L574 61L573 60z"/>
<path style="fill:#e6c9c1; stroke:none;" d="M151 61L152 62L151 61z"/>
<path style="fill:#f16a65; stroke:none;" d="M152 61L153 62L152 61z"/>
<path style="fill:#f07573; stroke:none;" d="M248 61L249 62L248 61z"/>
<path style="fill:#ffccc1; stroke:none;" d="M249 61L250 62L249 61z"/>
<path style="fill:#ffcbbe; stroke:none;" d="M478 61L479 62L478 61z"/>
<path style="fill:#f56d6f; stroke:none;" d="M479 61L480 62L479 61z"/>
<path style="fill:#f16a65; stroke:none;" d="M575 61L576 62L575 61z"/>
<path style="fill:#e6c9c1; stroke:none;" d="M576 61L577 62L576 61z"/>
<path style="fill:#fe7b85; stroke:none;" d="M149 62L150 63L149 62z"/>
<path style="fill:#fc8f96; stroke:none;" d="M251 62L252 63L251 62z"/>
<path style="fill:#f8979a; stroke:none;" d="M476 62L477 63L476 62z"/>
<path style="fill:#fe7b85; stroke:none;" d="M578 62L579 63L578 62z"/>
<path style="fill:#fbafb9; stroke:none;" d="M146 63L147 64L146 63z"/>
<path style="fill:#e94558; stroke:none;" d="M253 63L254 64L253 63z"/>
<path style="fill:#eeb3c4; stroke:none;" d="M254 63L255 64L254 63z"/>
<path style="fill:#ef5465; stroke:none;" d="M474 63L475 64L474 63z"/>
<path style="fill:#fbafb9; stroke:none;" d="M581 63L582 64L581 63z"/>
<path style="fill:#ff7576; stroke:none;" d="M144 64L145 65L144 64z"/>
<path style="fill:#d2141e; stroke:none;" d="M144 66C145.58 65.3163 145.777 65.1953 147 64C145.42 64.6835 145.223 64.8049 144 66z"/>
<path style="fill:#df8e81; stroke:none;" d="M256 64L257 65L256 64z"/>
<path style="fill:#f18d9e; stroke:none;" d="M471 64L472 65L471 64z"/>
<path style="fill:#ff6461; stroke:none;" d="M583 64L584 65L583 64z"/>
<path style="fill:#eb6362; stroke:none;" d="M142 65L143 66L142 65z"/>
<path style="fill:#ef6369; stroke:none;" d="M258 65L259 66L258 65z"/>
<path style="fill:#ed6f7a; stroke:none;" d="M469 65L470 66L469 65z"/>
<path style="fill:#dc2311; stroke:none;" d="M582 65C583.223 66.1951 583.42 66.3165 585 67C584.02 65.2168 584.092 65.4056 582 65z"/>
<path style="fill:#ef6363; stroke:none;" d="M585 65L586 66L585 65z"/>
<path style="fill:#f24e64; stroke:none;" d="M140 66L141 67L140 66z"/>
<path style="fill:#fb425f; stroke:none;" d="M587 66L588 67L587 66z"/>
<path style="fill:#ffc0c7; stroke:none;" d="M588 66L589 67L588 66z"/>
<path style="fill:#ffb5b8; stroke:none;" d="M137 67L138 68L137 67z"/>
<path style="fill:#f7a89d; stroke:none;" d="M263 67L264 68L263 67z"/>
<path style="fill:#ffadb4; stroke:none;" d="M590 67L591 68L590 67z"/>
<path style="fill:#e8b1b7; stroke:none;" d="M135 68L136 69L135 68z"/>
<path style="fill:#f7b4b2; stroke:none;" d="M265 68L266 69L265 68z"/>
<path style="fill:#ffc8c6; stroke:none;" d="M462 68L463 69L462 68z"/>
<path style="fill:#fba6b7; stroke:none;" d="M592 68L593 69L592 68z"/>
<path style="fill:#edc7b7; stroke:none;" d="M133 69L134 70L133 69z"/>
<path style="fill:#fcbeb9; stroke:none;" d="M267 69L268 70L267 69z"/>
<path style="fill:#f14057; stroke:none;" d="M461 69L462 70L461 69z"/>
<path style="fill:#f9b1ad; stroke:none;" d="M594 69L595 70L594 69z"/>
<path style="fill:#fc4563; stroke:none;" d="M132 70L133 71L132 70z"/>
<path style="fill:#f2465f; stroke:none;" d="M268 70L269 71L268 70z"/>
<path style="fill:#ed4a5a; stroke:none;" d="M459 70L460 71L459 70z"/>
<path style="fill:#facec3; stroke:none;" d="M596 70L597 71L596 70z"/>
<path style="fill:#f76a74; stroke:none;" d="M130 71L131 72L130 71z"/>
<path style="fill:#e9647d; stroke:none;" d="M270 71L271 72L270 71z"/>
<path style="fill:#da6d74; stroke:none;" d="M457 71L458 72L457 71z"/>
<path style="fill:#e4425a; stroke:none;" d="M597 71L598 72L597 71z"/>
<path style="fill:#ff7971; stroke:none;" d="M128 72L129 73L128 72z"/>
<path style="fill:#de959a; stroke:none;" d="M272 72L273 73L272 72z"/>
<path style="fill:#eb929e; stroke:none;" d="M455 72L456 73L455 72z"/>
<path style="fill:#d81c1a; stroke:none;" d="M597 72C598.68 73.634 598.709 73.6885 601 74C599.542 72.9189 598.752 72.564 597 72z"/>
<path style="fill:#ff655b; stroke:none;" d="M599 72L600 73L599 72z"/>
<path style="fill:#ffb9ba; stroke:none;" d="M126 73L127 74L126 73z"/>
<path style="fill:#f1b2b4; stroke:none;" d="M274 73L275 74L274 73z"/>
<path style="fill:#ffbabf; stroke:none;" d="M453 73L454 74L453 73z"/>
<path style="fill:#f69c9f; stroke:none;" d="M601 73L602 74L601 73z"/>
<path style="fill:#f04258; stroke:none;" d="M125 74L126 75L125 74z"/>
<path style="fill:#e6465e; stroke:none;" d="M275 74L276 75L275 74z"/>
<path style="fill:#e55466; stroke:none;" d="M452 74L453 75L452 74z"/>
<path style="fill:#ff929d; stroke:none;" d="M123 75L124 76L123 75z"/>
<path style="fill:#ec9090; stroke:none;" d="M277 75L278 76L277 75z"/>
<path style="fill:#ea9b97; stroke:none;" d="M450 75L451 76L450 75z"/>
<path style="fill:#fd848f; stroke:none;" d="M604 75L605 76L604 75z"/>
<path style="fill:#f0c7c0; stroke:none;" d="M606 76L607 77L606 76z"/>
<path style="fill:#fc9390; stroke:none;" d="M120 77L121 78L120 77z"/>
<path style="fill:#f08397; stroke:none;" d="M280 77L281 78L280 77z"/>
<path style="fill:#f68ba5; stroke:none;" d="M447 77L448 78L447 77z"/>
<path style="fill:#ff8284; stroke:none;" d="M607 77L608 78L607 77z"/>
<path style="fill:#ffd3c4; stroke:none;" d="M609 78L610 79L609 78z"/>
<path style="fill:#ee8f97; stroke:none;" d="M117 79L118 80L117 79z"/>
<path style="fill:#ee929f; stroke:none;" d="M283 79L284 80L283 79z"/>
<path style="fill:#ea9dac; stroke:none;" d="M444 79L445 80L444 79z"/>
<path style="fill:#f06b7b; stroke:none;" d="M610 79L611 80L610 79z"/>
<path style="fill:#de4758; stroke:none;" d="M116 80L117 81L116 80z"/>
<path style="fill:#ea635e; stroke:none;" d="M443 80L444 81L443 80z"/>
<path style="fill:#d74451; stroke:none;" d="M611 80L612 81L611 80z"/>
<path style="fill:#ffbec3; stroke:none;" d="M286 81L287 82L286 81z"/>
<path style="fill:#ffaca9; stroke:none;" d="M613 81L614 82L613 81z"/>
<path style="fill:#e77b84; stroke:none;" d="M113 82L114 83L113 82z"/>
<path style="fill:#f98377; stroke:none;" d="M287 82L288 83L287 82z"/>
<path style="fill:#fa9588; stroke:none;" d="M440 82L441 83L440 82z"/>
<path style="fill:#e85a6f; stroke:none;" d="M614 82L615 83L614 82z"/>
<path style="fill:#ec5872; stroke:none;" d="M439 83L440 84L439 83z"/>
<path style="fill:#fab2b1; stroke:none;" d="M109 85L110 86L109 85z"/>
<path style="fill:#f8aeae; stroke:none;" d="M291 85L292 86L291 85z"/>
<path style="fill:#ffafaf; stroke:none;" d="M618 85L619 86L618 85z"/>
<path style="fill:#f37f83; stroke:none;" d="M108 86L109 87L108 86z"/>
<path style="fill:#f46a79; stroke:none;" d="M292 86L293 87L292 86z"/>
<path style="fill:#fd979b; stroke:none;" d="M435 86L436 87L435 86z"/>
<path style="fill:#e46e70; stroke:none;" d="M619 86L620 87L619 86z"/>
<path style="fill:#f67282; stroke:none;" d="M107 87L108 88L107 87z"/>
<path style="fill:#d75f59; stroke:none;" d="M293 87L294 88L293 87z"/>
<path style="fill:#e77b76; stroke:none;" d="M434 87L435 88L434 87z"/>
<path style="fill:#ec0e1d; stroke:none;" d="M101 94L102 95C103.195 93.7773 103.316 93.5799 104 92C106.248 92.0455 106.896 91.8764 109 91C107.636 89.1808 107.508 89.969 108 88C104.834 89.4798 103.049 91.1685 101 94z"/>
<path style="fill:#ee4857; stroke:none;" d="M432 89L433 90L432 89z"/>
<path style="fill:#fdbab4; stroke:none;" d="M625 91L626 92L625 91z"/>
<path style="fill:#f6c2c2; stroke:none;" d="M101 92L102 93L101 92z"/>
<path style="fill:#efc0ba; stroke:none;" d="M299 92L300 93L299 92z"/>
<path style="fill:#fbabae; stroke:none;" d="M626 92L627 93L626 92z"/>
<path style="fill:#f5acad; stroke:none;" d="M100 93L101 94L100 93z"/>
<path style="fill:#f0b4ac; stroke:none;" d="M300 93L301 94L300 93z"/>
<path style="fill:#e4b1ab; stroke:none;" d="M427 93L428 94L427 93z"/>
<path style="fill:#ebb19f; stroke:none;" d="M627 93L628 94L627 93z"/>
<path style="fill:#ff9bab; stroke:none;" d="M99 94L100 95L99 94z"/>
<path style="fill:#f4a9ac; stroke:none;" d="M301 94L302 95L301 94z"/>
<path style="fill:#eaaaac; stroke:none;" d="M426 94L427 95L426 94z"/>
<path style="fill:#ffa5aa; stroke:none;" d="M628 94L629 95L628 94z"/>
<path style="fill:#ffa4a3; stroke:none;" d="M98 95L99 96L98 95z"/>
<path style="fill:#ffa8ae; stroke:none;" d="M302 95L303 96L302 95z"/>
<path style="fill:#ff9eb2; stroke:none;" d="M425 95L426 96L425 95z"/>
<path style="fill:#f58f95; stroke:none;" d="M629 95L630 96L629 95z"/>
<path style="fill:#ffa3ab; stroke:none;" d="M97 96L96 98C97.2628 97.0286 97.3919 97.3062 97 96z"/>
<path style="fill:#ffaa8f; stroke:none;" d="M303 96L304 97L303 96z"/>
<path style="fill:#ffa58e; stroke:none;" d="M424 96L425 97L424 96z"/>
<path style="fill:#ffa4ab; stroke:none;" d="M630 96L631 97L630 96z"/>
<path style="fill:#f99ca6; stroke:none;" d="M304 97L305 98L304 97z"/>
<path style="fill:#ffa8b0; stroke:none;" d="M631 97L632 98L631 97z"/>
<path style="fill:#efac9f; stroke:none;" d="M632 98L633 99L632 98z"/>
<path style="fill:#e8fbeb; stroke:none;" d="M637 100C637.684 101.58 637.805 101.777 639 103L639 100L637 100z"/>
<path style="fill:#f55c73; stroke:none;" d="M91 103L92 104L91 103z"/>
<path style="fill:#e75961; stroke:none;" d="M309 103L310 104L309 103z"/>
<path style="fill:#ee6372; stroke:none;" d="M418 103L419 104L418 103z"/>
<path style="fill:#e74761; stroke:none;" d="M636 103L637 104L636 103z"/>
<path style="fill:#e08975; stroke:none;" d="M90 104L91 105L90 104z"/>
<path style="fill:#f16375; stroke:none;" d="M310 104L311 105L310 104z"/>
<path style="fill:#f17988; stroke:none;" d="M417 104L418 105L417 104z"/>
<path style="fill:#f06d68; stroke:none;" d="M637 104L638 105L637 104z"/>
<path style="fill:#f7a6ab; stroke:none;" d="M89 105L90 106L89 105z"/>
<path style="fill:#f41518; stroke:none;" d="M309 105C310.634 108.427 312.761 111.008 316 113C314.506 109.154 312.724 106.82 309 105z"/>
<path style="fill:#ef9594; stroke:none;" d="M311 105L312 106L311 105z"/>
<path style="fill:#ffaaad; stroke:none;" d="M416 105L417 106L416 105z"/>
<path style="fill:#ffabb8; stroke:none;" d="M638 105L639 106L638 105z"/>
<path style="fill:#eb5668; stroke:none;" d="M87 108L88 109L87 108z"/>
<path style="fill:#eb5c6b; stroke:none;" d="M414 108L415 109L414 108z"/>
<path style="fill:#f04867; stroke:none;" d="M640 108L641 109L640 108z"/>
<path style="fill:#f77e87; stroke:none;" d="M86 109L87 110L86 109z"/>
<path style="fill:#f48289; stroke:none;" d="M314 109L315 110L314 109z"/>
<path style="fill:#f78d91; stroke:none;" d="M413 109L414 110L413 109z"/>
<path style="fill:#f5757d; stroke:none;" d="M641 109L642 110L641 109z"/>
<path style="fill:#ecbeb6; stroke:none;" d="M85 110L86 111L85 110z"/>
<path style="fill:#f9c8b9; stroke:none;" d="M315 110L316 111L315 110z"/>
<path style="fill:#f1bcb6; stroke:none;" d="M642 110L643 111L642 110z"/>
<path style="fill:#e84b56; stroke:none;" d="M84 112L85 113L84 112z"/>
<path style="fill:#ff3e4f; stroke:none;" d="M316 112L317 113L316 112z"/>
<path style="fill:#ff6c6a; stroke:none;" d="M411 112L412 113L411 112z"/>
<path style="fill:#f28f97; stroke:none;" d="M83 113L84 114L83 113z"/>
<path style="fill:#f38493; stroke:none;" d="M317 113L318 114L317 113z"/>
<path style="fill:#fc9ca6; stroke:none;" d="M410 113L411 114L410 113z"/>
<path style="fill:#f27a89; stroke:none;" d="M644 113L645 114L644 113z"/>
<path style="fill:#fccacb; stroke:none;" d="M645 114L646 115L645 114z"/>
<path style="fill:#f73c52; stroke:none;" d="M82 115L83 116L82 115z"/>
<path style="fill:#eb3f4e; stroke:none;" d="M318 115L319 116L318 115z"/>
<path style="fill:#e43d47; stroke:none;" d="M409 115L410 116L409 115z"/>
<path style="fill:#ef727c; stroke:none;" d="M81 116L82 117L81 116z"/>
<path style="fill:#ee8997; stroke:none;" d="M319 116L320 117L319 116z"/>
<path style="fill:#f88b97; stroke:none;" d="M408 116L409 117L408 116z"/>
<path style="fill:#ee7078; stroke:none;" d="M646 116L647 117L646 116z"/>
<path style="fill:#f9c6c8; stroke:none;" d="M80 117L81 118L80 117z"/>
<path style="fill:#efccc5; stroke:none;" d="M407 117L408 118L407 117z"/>
<path style="fill:#ffc1c3; stroke:none;" d="M647 117L648 118L647 117z"/>
<path style="fill:#db4756; stroke:none;" d="M407 118L408 119L407 118z"/>
<path style="fill:#bbadab; stroke:none;" d="M79 119L80 120L79 119z"/>
<path style="fill:#db9a91; stroke:none;" d="M321 119L322 120L321 119z"/>
<path style="fill:#e2a59e; stroke:none;" d="M406 119L407 120L406 119z"/>
<path style="fill:#d292a3; stroke:none;" d="M648 119L649 120L648 119z"/>
<path style="fill:#ed4f63; stroke:none;" d="M78 121L79 122L78 121z"/>
<path style="fill:#eb5268; stroke:none;" d="M322 121L323 122L322 121z"/>
<path style="fill:#f66e7e; stroke:none;" d="M405 121L406 122L405 121z"/>
<path style="fill:#dd4756; stroke:none;" d="M649 121L650 122L649 121z"/>
<path style="fill:#fcb2b1; stroke:none;" d="M77 122L78 123L77 122z"/>
<path style="fill:#f6b6be; stroke:none;" d="M323 122L324 123L323 122z"/>
<path style="fill:#fbbbbc; stroke:none;" d="M404 122L405 123L404 122z"/>
<path style="fill:#fda3a8; stroke:none;" d="M650 122L651 123L650 122z"/>
<path style="fill:#f08888; stroke:none;" d="M76 124L77 125L76 124z"/>
<path style="fill:#f28b8d; stroke:none;" d="M324 124L325 125L324 124z"/>
<path style="fill:#f6929f; stroke:none;" d="M403 124L404 125L403 124z"/>
<path style="fill:#fa7f85; stroke:none;" d="M651 124L652 125L651 124z"/>
<path style="fill:#ee5966; stroke:none;" d="M75 126L76 127L75 126z"/>
<path style="fill:#fd596b; stroke:none;" d="M325 126L326 127L325 126z"/>
<path style="fill:#f06e74; stroke:none;" d="M402 126L403 127L402 126z"/>
<path style="fill:#de4954; stroke:none;" d="M652 126L653 127L652 126z"/>
<path style="fill:#f3cfc3; stroke:none;" d="M326 127L327 128L326 127z"/>
<path style="fill:#ffc6c2; stroke:none;" d="M73 129L74 130L73 129z"/>
<path style="fill:#efb4aa; stroke:none;" d="M327 129L328 130L327 129z"/>
<path style="fill:#ffc7bd; stroke:none;" d="M400 129L401 130L400 129z"/>
<path style="fill:#efa1a5; stroke:none;" d="M654 129L655 130L654 129z"/>
<path style="fill:#e54255; stroke:none;" d="M73 130L74 131L73 130z"/>
<path style="fill:#ec5153; stroke:none;" d="M400 130L401 131L400 130z"/>
<path style="fill:#ffb3a7; stroke:none;" d="M72 131L73 132L72 131z"/>
<path style="fill:#f8b1b8; stroke:none;" d="M328 131L329 132L328 131z"/>
<path style="fill:#f6afa2; stroke:none;" d="M655 131L656 132L655 131z"/>
<path style="fill:#ed4b64; stroke:none;" d="M399 132L400 133L399 132z"/>
<path style="fill:#f6b3b8; stroke:none;" d="M71 133L72 134L71 133z"/>
<path style="fill:#fdb3ac; stroke:none;" d="M329 133L330 134L329 133z"/>
<path style="fill:#eab3b3; stroke:none;" d="M656 133L657 134L656 133z"/>
<path style="fill:#eb4a5d; stroke:none;" d="M71 134L72 135L71 134z"/>
<path style="fill:#f35564; stroke:none;" d="M398 134L399 135L398 134z"/>
<path style="fill:#eab3aa; stroke:none;" d="M657 135L658 136L657 135z"/>
<path style="fill:#ff4d64; stroke:none;" d="M397 136L398 137L397 136z"/>
<path style="fill:#f3b9ba; stroke:none;" d="M658 137L659 138L658 137z"/>
<path style="fill:#f36378; stroke:none;" d="M69 138L70 139L69 138z"/>
<path style="fill:#eb6972; stroke:none;" d="M331 138L332 139L331 138z"/>
<path style="fill:#ed6f79; stroke:none;" d="M396 138L397 139L396 138z"/>
<path style="fill:#e799a0; stroke:none;" d="M68 140L69 141L68 140z"/>
<path style="fill:#ea8898; stroke:none;" d="M332 140L333 141L332 140z"/>
<path style="fill:#f397ab; stroke:none;" d="M395 140L396 141L395 140z"/>
<path style="fill:#e96f73; stroke:none;" d="M659 140L660 141L659 140z"/>
<path style="fill:#ffc5bb; stroke:none;" d="M67 142L68 143L67 142z"/>
<path style="fill:#f4b5af; stroke:none;" d="M333 142L334 143L333 142z"/>
<path style="fill:#ffaeb1; stroke:none;" d="M660 142L661 143L660 142z"/>
<path style="fill:#e25b62; stroke:none;" d="M67 143L68 144L67 143z"/>
<path style="fill:#dc4d57; stroke:none;" d="M333 143L334 144L333 143z"/>
<path style="fill:#e75e70; stroke:none;" d="M394 143L395 144L394 143z"/>
<path style="fill:#f28c99; stroke:none;" d="M66 145L67 146L66 145z"/>
<path style="fill:#f78b97; stroke:none;" d="M334 145L335 146L334 145z"/>
<path style="fill:#f19a97; stroke:none;" d="M393 145L394 146L393 145z"/>
<path style="fill:#e5717b; stroke:none;" d="M661 145L662 146L661 145z"/>
<path style="fill:#ff0017; stroke:none;" d="M661 146L661 149C661.696 147.446 661.696 147.554 661 146z"/>
<path style="fill:#ffd1c2; stroke:none;" d="M335 147L336 148L335 147z"/>
<path style="fill:#f3c2c0; stroke:none;" d="M662 147L663 148L662 147z"/>
<path style="fill:#ec6d73; stroke:none;" d="M65 148L66 149L65 148z"/>
<path style="fill:#fe686a; stroke:none;" d="M335 148L336 149L335 148z"/>
<path style="fill:#f88083; stroke:none;" d="M392 148L393 149L392 148z"/>
<path style="fill:#e1515c; stroke:none;" d="M662 148L663 149L662 148z"/>
<path style="fill:#ffc4c4; stroke:none;" d="M64 150L65 151L64 150z"/>
<path style="fill:#fabdcd; stroke:none;" d="M336 150L337 151L336 150z"/>
<path style="fill:#ffb4b1; stroke:none;" d="M663 150L664 151L663 150z"/>
<path style="fill:#ea6e79; stroke:none;" d="M64 151L65 152L64 151z"/>
<path style="fill:#e0708f; stroke:none;" d="M336 151L337 152L336 151z"/>
<path style="fill:#d989a1; stroke:none;" d="M391 151L392 152L391 151z"/>
<path style="fill:#e75962; stroke:none;" d="M663 151L664 152L663 151z"/>
<path style="fill:#f9c6c8; stroke:none;" d="M337 153L338 154L337 153z"/>
<path style="fill:#f4b5b2; stroke:none;" d="M664 153L665 154L664 153z"/>
<path style="fill:#e9666f; stroke:none;" d="M63 154L64 155L63 154z"/>
<path style="fill:#ec6872; stroke:none;" d="M337 154L338 155L337 154z"/>
<path style="fill:#f07885; stroke:none;" d="M390 154L391 155L390 154z"/>
<path style="fill:#e95364; stroke:none;" d="M664 154L665 155L664 154z"/>
<path style="fill:#e4d0bf; stroke:none;" d="M665 156L666 157L665 156z"/>
<path style="fill:#db8387; stroke:none;" d="M62 157L63 158L62 157z"/>
<path style="fill:#ef9799; stroke:none;" d="M338 157L339 158L338 157z"/>
<path style="fill:#ea8c8e; stroke:none;" d="M389 157L390 158L389 157z"/>
<path style="fill:#dd787c; stroke:none;" d="M665 157L666 158L665 157z"/>
<path style="fill:#ff9093; stroke:none;" d="M61 160L62 161L61 160z"/>
<path style="fill:#ffb8b7; stroke:none;" d="M339 160L340 161L339 160z"/>
<path style="fill:#fd929a; stroke:none;" d="M388 160L389 161L388 160z"/>
<path style="fill:#f96a73; stroke:none;" d="M666.333 160.667C666.278 160.722 666.222 161.778 666.667 161.333C666.722 161.278 666.778 160.222 666.333 160.667z"/>
<path style="fill:#ed505f; stroke:none;" d="M61 161L62 162L61 161z"/>
<path style="fill:#ed7d88; stroke:none;" d="M339 161L340 162L339 161z"/>
<path style="fill:#f04b64; stroke:none;" d="M388 161L389 162L388 161z"/>
<path style="fill:#f8b6b5; stroke:none;" d="M60 163L61 164L60 163z"/>
<path style="fill:#ffc3c4; stroke:none;" d="M387 163L388 164L387 163z"/>
<path style="fill:#ef5a64; stroke:none;" d="M60 164L61 165L60 164z"/>
<path style="fill:#f96876; stroke:none;" d="M387 164L388 165L387 164z"/>
<path style="fill:#f6c1b6; stroke:none;" d="M667 164L668 165L667 164z"/>
<path style="fill:#ec8c89; stroke:none;" d="M340 165L341 166L340 165z"/>
<path style="fill:#ee7679; stroke:none;" d="M667 165L668 166L667 165z"/>
<path style="fill:#ffa7b6; stroke:none;" d="M59 167L60 168L59 167z"/>
<path style="fill:#e59ba2; stroke:none;" d="M386 167L387 168L386 167z"/>
<path style="fill:#efadab; stroke:none;" d="M668 168L668 171C668.696 169.446 668.696 169.554 668 168z"/>
<path style="fill:#f68a90; stroke:none;" d="M341 170L342 171L341 170z"/>
<path style="fill:#ed8086; stroke:none;" d="M58 171L59 172L58 171z"/>
<path style="fill:#f48c94; stroke:none;" d="M385 171L386 172L385 171z"/>
<path style="fill:#f39291; stroke:none;" d="M57.3333 174.667C57.2779 174.722 57.2221 175.778 57.6667 175.333C57.7223 175.278 57.7778 174.222 57.3333 174.667z"/>
<path style="fill:#eca7a9; stroke:none;" d="M342.333 174.667C342.278 174.722 342.222 175.778 342.667 175.333C342.722 175.278 342.778 174.222 342.333 174.667z"/>
<path style="fill:#ea9faa; stroke:none;" d="M669.333 174.667C669.278 174.722 669.222 175.778 669.667 175.333C669.722 175.278 669.778 174.222 669.333 174.667z"/>
<path style="fill:#ed8bad; stroke:none;" d="M384 175L385 176L384 175z"/>
<path style="fill:#f36364; stroke:none;" d="M342.333 176.667C342.278 176.722 342.222 177.778 342.667 177.333C342.722 177.278 342.778 176.222 342.333 176.667z"/>
<path style="fill:#ef5657; stroke:none;" d="M669.333 176.667C669.278 176.722 669.222 177.778 669.667 177.333C669.722 177.278 669.778 176.222 669.333 176.667z"/>
<path style="fill:#fa8f94; stroke:none;" d="M56 179L57 180L56 179z"/>
<path style="fill:#f6a3ad; stroke:none;" d="M383 179L384 180L383 179z"/>
<path style="fill:#f14e56; stroke:none;" d="M56 180L57 181L56 180z"/>
<path style="fill:#f6d1cf; stroke:none;" d="M343.333 182.667C343.278 182.722 343.222 183.778 343.667 183.333C343.722 183.278 343.778 182.222 343.333 182.667z"/>
<path style="fill:#fea7be; stroke:none;" d="M670.333 182.667C670.278 182.722 670.222 183.778 670.667 183.333C670.722 183.278 670.778 182.222 670.333 182.667z"/>
<path style="fill:#d3c6cd; stroke:none;" d="M55 183L56 184L55 183z"/>
<path style="fill:#f0ccca; stroke:none;" d="M382 183L383 184L382 183z"/>
<path style="fill:#fb8076; stroke:none;" d="M55 184L56 185L55 184z"/>
<path style="fill:#fa9590; stroke:none;" d="M343 184L343 187C343.696 185.446 343.696 185.554 343 184z"/>
<path style="fill:#ff8587; stroke:none;" d="M382 184L383 185L382 184z"/>
<path style="fill:#f7817c; stroke:none;" d="M670 184L670 187C670.696 185.446 670.696 185.554 670 184z"/>
<path style="fill:#ef4d5b; stroke:none;" d="M382 185L383 186L382 185z"/>
<path style="fill:#ed464c; stroke:none;" d="M343 187L343 193C343.951 190.715 343.951 189.285 343 187z"/>
<path style="fill:#f44a52; stroke:none;" d="M670 187L670 190C670.696 188.446 670.696 188.554 670 187z"/>
<path style="fill:#f3beb0; stroke:none;" d="M54 188L55 189L54 188z"/>
<path style="fill:#fcc5c1; stroke:none;" d="M381 188L382 189L381 188z"/>
<path style="fill:#f2847c; stroke:none;" d="M54 189L55 190L54 189z"/>
<path style="fill:#fa898f; stroke:none;" d="M381 189L382 190L381 189z"/>
<path style="fill:#f1c8c5; stroke:none;" d="M53 192L53 195C53.6961 193.446 53.6961 193.554 53 192z"/>
<path style="fill:#e80009; stroke:none;" d="M670 192L670 201C671.256 198.006 671.256 194.994 670 192z"/>
<path style="fill:#f00003; stroke:none;" d="M343 194L343 198C343.71 196.241 343.71 195.759 343 194z"/>
<path style="fill:#f16670; stroke:none;" d="M380.333 194.667C380.278 194.722 380.222 195.778 380.667 195.333C380.722 195.278 380.778 194.222 380.333 194.667z"/>
<path style="fill:#fac8d2; stroke:none;" d="M52.3333 198.667C52.2779 198.722 52.2221 199.778 52.6667 199.333C52.7224 199.278 52.7777 198.222 52.3333 198.667z"/>
<path style="fill:#ec0e1d; stroke:none;" d="M53 198C51.5643 209.36 50 220.531 50 232C52.9035 225.958 52 218.547 52 212L53 214C54.8123 209.681 54.8123 202.319 53 198z"/>
<path style="fill:#ee444e; stroke:none;" d="M343 199L343 205C343.951 202.715 343.951 201.285 343 199z"/>
<path style="fill:#f16868; stroke:none;" d="M52.3333 200.667C52.2779 200.722 52.2222 201.778 52.6667 201.333C52.7223 201.278 52.7778 200.222 52.3333 200.667z"/>
<path style="fill:#f9737e; stroke:none;" d="M379.333 200.667C379.278 200.722 379.222 201.778 379.667 201.333C379.722 201.278 379.778 200.222 379.333 200.667z"/>
<path style="fill:#de5252; stroke:none;" d="M670 202L670 206C670.71 204.241 670.71 203.759 670 202z"/>
<path style="fill:#ff8589; stroke:none;" d="M343 205L343 208C343.696 206.446 343.696 206.554 343 205z"/>
<path style="fill:#ef90a2; stroke:none;" d="M51.3333 206.667C51.2779 206.722 51.2222 207.778 51.6667 207.333C51.7223 207.278 51.7778 206.222 51.3333 206.667z"/>
<path style="fill:#fe98a5; stroke:none;" d="M378.333 206.667C378.278 206.722 378.222 207.778 378.667 207.333C378.722 207.278 378.778 206.222 378.333 206.667z"/>
<path style="fill:#f49587; stroke:none;" d="M670 206L670 209C670.696 207.446 670.696 207.554 670 206z"/>
<path style="fill:#ed4c4d; stroke:none;" d="M51.3333 208.667C51.2777 208.722 51.2223 209.778 51.6667 209.333C51.7223 209.278 51.7778 208.222 51.3333 208.667z"/>
<path style="fill:#fbc2c7; stroke:none;" d="M343.333 208.667C343.278 208.722 343.222 209.778 343.667 209.333C343.722 209.278 343.778 208.222 343.333 208.667z"/>
<path style="fill:#f1605e; stroke:none;" d="M378.333 208.667C378.278 208.722 378.222 209.778 378.667 209.333C378.722 209.278 378.778 208.222 378.333 208.667z"/>
<path style="fill:#ec000a; stroke:none;" d="M342 209L342 213C342.71 211.24 342.71 210.76 342 209z"/>
<path style="fill:#facad5; stroke:none;" d="M670.333 209.667C670.278 209.722 670.222 210.778 670.667 210.333C670.722 210.278 670.778 209.222 670.333 209.667z"/>
<path style="fill:#f1000e; stroke:none;" d="M669 210L669 214C669.71 212.24 669.71 211.759 669 210z"/>
<path style="fill:#ee96a1; stroke:none;" d="M50.3333 214.667C50.2778 214.722 50.2222 215.778 50.6667 215.333C50.7222 215.278 50.7778 214.222 50.3333 214.667z"/>
<path style="fill:#f8635b; stroke:none;" d="M342.333 214.667C342.278 214.722 342.222 215.778 342.667 215.333C342.722 215.278 342.778 214.222 342.333 214.667z"/>
<path style="fill:#ffa5c1; stroke:none;" d="M377.333 214.667C377.278 214.722 377.222 215.778 377.667 215.333C377.722 215.278 377.778 214.222 377.333 214.667z"/>
<path style="fill:#f34344; stroke:none;" d="M669.333 214.667C669.278 214.722 669.222 215.778 669.667 215.333C669.722 215.278 669.778 214.222 669.333 214.667z"/>
<path style="fill:#f87070; stroke:none;" d="M50 216L50 219C50.6961 217.446 50.6961 217.554 50 216z"/>
<path style="fill:#f7aeb1; stroke:none;" d="M342.333 216.667C342.278 216.722 342.222 217.778 342.667 217.333C342.722 217.278 342.778 216.222 342.333 216.667z"/>
<path style="fill:#fb8583; stroke:none;" d="M377.333 216.667C377.278 216.722 377.222 217.778 377.667 217.333C377.722 217.278 377.778 216.222 377.333 216.667z"/>
<path style="fill:#f7a0a4; stroke:none;" d="M669.333 216.667C669.278 216.722 669.222 217.778 669.667 217.333C669.722 217.278 669.778 216.222 669.333 216.667z"/>
<path style="fill:#e6444b; stroke:none;" d="M377 218L377 221C377.696 219.446 377.696 219.554 377 218z"/>
<path style="fill:#ee4d64; stroke:none;" d="M341 221L342 222L341 221z"/>
<path style="fill:#ffbfc0; stroke:none;" d="M341.333 222.667C341.278 222.722 341.222 223.778 341.667 223.333C341.722 223.278 341.778 222.222 341.333 222.667z"/>
<path style="fill:#ffa2a2; stroke:none;" d="M668.333 222.667C668.278 222.722 668.222 223.778 668.667 223.333C668.722 223.278 668.778 222.222 668.333 222.667z"/>
<path style="fill:#fcd2c4; stroke:none;" d="M49 224L49 227C49.6961 225.446 49.6961 225.554 49 224z"/>
<path style="fill:#fbd5d0; stroke:none;" d="M376 224L376 228C376.71 226.24 376.71 225.759 376 224z"/>
<path style="fill:#f3737c; stroke:none;" d="M49 227L49 232C49.8299 229.969 49.8299 229.03 49 227z"/>
<path style="fill:#ec8f86; stroke:none;" d="M340 227L341 228L340 227z"/>
<path style="fill:#f87f86; stroke:none;" d="M667 227L668 228L667 227z"/>
<path style="fill:#f88c92; stroke:none;" d="M376 228L376 232C376.71 230.24 376.71 229.759 376 228z"/>
<path style="fill:#f6c0c3; stroke:none;" d="M667 228L668 229L667 228z"/>
<path style="fill:#fe716a; stroke:none;" d="M339 231L340 232L339 231z"/>
<path style="fill:#ff5d5a; stroke:none;" d="M666 231L667 232L666 231z"/>
<path style="fill:#fc4652; stroke:none;" d="M49 232L49 238C49.9511 235.715 49.9511 234.285 49 232z"/>
<path style="fill:#ef474a; stroke:none;" d="M376 232L376 240C377.161 237.23 377.161 234.77 376 232z"/>
<path style="fill:#f19f9c; stroke:none;" d="M338 235L339 236L338 235z"/>
<path style="fill:#ea7573; stroke:none;" d="M665 235L666 236L665 235z"/>
<path style="fill:#eb7280; stroke:none;" d="M337 238L338 239L337 238z"/>
<path style="fill:#ec6172; stroke:none;" d="M664 238L665 239L664 238z"/>
<path style="fill:#e80009; stroke:none;" d="M49 239L49 252C50.5909 248.209 50.5909 242.791 49 239z"/>
<path style="fill:#ffbfbf; stroke:none;" d="M337 239L338 240L337 239z"/>
<path style="fill:#ffafb2; stroke:none;" d="M664 239L665 240L664 239z"/>
<path style="fill:#f15e72; stroke:none;" d="M336 241L337 242L336 241z"/>
<path style="fill:#f35158; stroke:none;" d="M663 241L664 242L663 241z"/>
<path style="fill:#fdc4c8; stroke:none;" d="M336 242L337 243L336 242z"/>
<path style="fill:#ef010b; stroke:none;" d="M376 242L376 249C377.059 246.466 377.059 244.534 376 242z"/>
<path style="fill:#f2bfb6; stroke:none;" d="M663 242L664 243L663 242z"/>
<path style="fill:#ef6e6f; stroke:none;" d="M335 244L336 245L335 244z"/>
<path style="fill:#ed515c; stroke:none;" d="M662 244L663 245L662 244z"/>
<path style="fill:#fccdc0; stroke:none;" d="M662 245L663 246L662 245z"/>
<path style="fill:#ff8390; stroke:none;" d="M334 247L335 248L334 247z"/>
<path style="fill:#eb6e70; stroke:none;" d="M661 247L662 248L661 247z"/>
<path style="fill:#f8aba6; stroke:none;" d="M333 250L334 251L333 250z"/>
<path style="fill:#feb0ae; stroke:none;" d="M660 250L661 251L660 250z"/>
<path style="fill:#f34949; stroke:none;" d="M376 251L376 259C377.161 256.23 377.161 253.77 376 251z"/>
<path style="fill:#ee8c84; stroke:none;" d="M332 252L333 253L332 252z"/>
<path style="fill:#e16d65; stroke:none;" d="M659 252L660 253L659 252z"/>
<path style="fill:#ee4356; stroke:none;" d="M49 253L49 260C50.0595 257.466 50.0595 255.534 49 253z"/>
<path style="fill:#ec6b74; stroke:none;" d="M331 254L332 255L331 254z"/>
<path style="fill:#ffcbc6; stroke:none;" d="M658 255L659 256L658 255z"/>
<path style="fill:#e44a55; stroke:none;" d="M330 256L331 257L330 256z"/>
<path style="fill:#f6cdc0; stroke:none;" d="M330 257L331 258L330 257z"/>
<path style="fill:#fcb3aa; stroke:none;" d="M657 257L658 258L657 257z"/>
<path style="fill:#fe3c59; stroke:none;" d="M329 258L330 259L329 258z"/>
<path style="fill:#f3b4b7; stroke:none;" d="M329 259L330 260L329 259z"/>
<path style="fill:#ee959a; stroke:none;" d="M376 259L376 264C376.83 261.97 376.83 261.03 376 259z"/>
<path style="fill:#ffa3ba; stroke:none;" d="M656 259L657 260L656 259z"/>
<path style="fill:#e2928c; stroke:none;" d="M49 260L49 264C49.7102 262.24 49.7102 261.759 49 260z"/>
<path style="fill:#ebadaa; stroke:none;" d="M328 261L329 262L328 261z"/>
<path style="fill:#ee020f; stroke:none;" d="M377 261L377 270C378.256 267.006 378.256 263.994 377 261z"/>
<path style="fill:#feada4; stroke:none;" d="M655 261L656 262L655 261z"/>
<path style="fill:#dc5049; stroke:none;" d="M327 262L328 263L327 262z"/>
<path style="fill:#fdd6ae; stroke:none;" d="M327 263L328 264L327 263z"/>
<path style="fill:#f5b0aa; stroke:none;" d="M654 263L655 264L654 263z"/>
<path style="fill:#ffcde0; stroke:none;" d="M49 264L49 268C49.7102 266.24 49.7102 265.759 49 264z"/>
<path style="fill:#e3504e; stroke:none;" d="M326 264L327 265L326 264z"/>
<path style="fill:#f8ccd3; stroke:none;" d="M376 264L376 267C376.696 265.446 376.696 265.554 376 264z"/>
<path style="fill:#f5c4ba; stroke:none;" d="M326 265L327 266L326 265z"/>
<path style="fill:#f3bdba; stroke:none;" d="M653 265L654 266L653 265z"/>
<path style="fill:#de0103; stroke:none;" d="M50 266L50 270C50.7102 268.24 50.7102 267.759 50 266z"/>
<path style="fill:#d76a6a; stroke:none;" d="M325 266L326 267L325 266z"/>
<path style="fill:#ec898f; stroke:none;" d="M324 268L325 269L324 268z"/>
<path style="fill:#f56c80; stroke:none;" d="M651 268L652 269L651 268z"/>
<path style="fill:#ffbbb9; stroke:none;" d="M323 270L324 271L323 270z"/>
<path style="fill:#ee918d; stroke:none;" d="M650 270L651 271L650 270z"/>
<path style="fill:#eb465c; stroke:none;" d="M50 271L50 274C50.6961 272.446 50.6961 272.554 50 271z"/>
<path style="fill:#f55466; stroke:none;" d="M377 271L377 274C377.696 272.446 377.696 272.554 377 271z"/>
<path style="fill:#e60c13; stroke:none;" d="M51 272L51 281C52.2561 278.006 52.2561 274.994 51 272z"/>
<path style="fill:#eb9e92; stroke:none;" d="M321 273L322 274L321 273z"/>
<path style="fill:#f8868f; stroke:none;" d="M648 273L649 274L648 273z"/>
<path style="fill:#f99b9f; stroke:none;" d="M50 274L50 277C50.6961 275.446 50.6961 275.554 50 274z"/>
<path style="fill:#f8a39f; stroke:none;" d="M377.333 274.667C377.278 274.722 377.222 275.778 377.667 275.333C377.722 275.278 377.778 274.222 377.333 274.667z"/>
<path style="fill:#f00015; stroke:none;" d="M378 275L378 280C378.83 277.97 378.83 277.03 378 275z"/>
<path style="fill:#ff888a; stroke:none;" d="M319 276L320 277L319 276z"/>
<path style="fill:#f8ead5; stroke:none;" d="M377.333 276.667C377.278 276.722 377.222 277.778 377.667 277.333C377.722 277.278 377.778 276.222 377.333 276.667z"/>
<path style="fill:#f37c7c; stroke:none;" d="M646 276L647 277L646 276z"/>
<path style="fill:#f68e83; stroke:none;" d="M317 279L318 280L317 279z"/>
<path style="fill:#e98978; stroke:none;" d="M644 279L645 280L644 279z"/>
<path style="fill:#e3505f; stroke:none;" d="M316 280L317 281L316 280z"/>
<path style="fill:#fa8a80; stroke:none;" d="M51 282L51 285C51.6961 283.446 51.6961 283.554 51 282z"/>
<path style="fill:#f38c8e; stroke:none;" d="M378.333 282.667C378.278 282.722 378.222 283.778 378.667 283.333C378.722 283.278 378.778 282.222 378.333 282.667z"/>
<path style="fill:#faada9; stroke:none;" d="M642 282L643 283L642 282z"/>
<path style="fill:#e50507; stroke:none;" d="M52 283L52 288C52.8299 285.97 52.8299 285.031 52 283z"/>
<path style="fill:#eb9491; stroke:none;" d="M314 283L315 284L314 283z"/>
<path style="fill:#f20008; stroke:none;" d="M379 283L379 288C379.83 285.969 379.83 285.031 379 283z"/>
<path style="fill:#fc737f; stroke:none;" d="M641 283L642 284L641 283z"/>
<path style="fill:#f3e1e3; stroke:none;" d="M378.333 284.667C378.278 284.722 378.222 285.778 378.667 285.333C378.722 285.278 378.778 284.222 378.333 284.667z"/>
<path style="fill:#ff0623; stroke:none;" d="M309 286L308 288L310 288C310 286.147 310.3 286.65 309 286z"/>
<path style="fill:#ffc5c7; stroke:none;" d="M639 286L640 287L639 286z"/>
<path style="fill:#ffa690; stroke:none;" d="M311 287L312 288L311 287z"/>
<path style="fill:#ffa5ae; stroke:none;" d="M638 287L639 288L638 287z"/>
<path style="fill:#f4838c; stroke:none;" d="M310 288L311 289L310 288z"/>
<path style="fill:#ee5162; stroke:none;" d="M379 288L379 291C379.696 289.446 379.696 289.554 379 288z"/>
<path style="fill:#e76a74; stroke:none;" d="M637 288L638 289L637 288z"/>
<path style="fill:#fc8c8b; stroke:none;" d="M52 289L52 292C52.6961 290.446 52.6961 290.554 52 289z"/>
<path style="fill:#ee716f; stroke:none;" d="M309 289L310 290L309 289z"/>
<path style="fill:#f2bbbb; stroke:none;" d="M379 291L380 292L379 291z"/>
<path style="fill:#eb3e4f; stroke:none;" d="M380.333 294.667C380.278 294.722 380.222 295.778 380.667 295.333C380.722 295.278 380.778 294.222 380.333 294.667z"/>
<path style="fill:#f3a3ad; stroke:none;" d="M632 294L633 295L632 294z"/>
<path style="fill:#f7bdc5; stroke:none;" d="M304 295L305 296L304 295z"/>
<path style="fill:#ffaa90; stroke:none;" d="M631 295L632 296L631 295z"/>
<path style="fill:#ffa1a1; stroke:none;" d="M53.3333 296.667C53.2778 296.722 53.2222 297.778 53.6667 297.333C53.7222 297.278 53.7778 296.222 53.3333 296.667z"/>
<path style="fill:#f6bab2; stroke:none;" d="M303 296L304 297L303 296z"/>
<path style="fill:#ffb7ba; stroke:none;" d="M380.333 296.667C380.278 296.722 380.222 297.778 380.667 297.333C380.722 297.278 380.778 296.222 380.333 296.667z"/>
<path style="fill:#e00413; stroke:none;" d="M627 299C628.457 297.896 628.897 297.457 630 296C627.876 296.899 627.899 296.876 627 299z"/>
<path style="fill:#ffa3ab; stroke:none;" d="M630 296L631 297L630 296z"/>
<path style="fill:#ffa8a9; stroke:none;" d="M302 297L303 298L302 297z"/>
<path style="fill:#fdbbb9; stroke:none;" d="M629 297L630 298L629 297z"/>
<path style="fill:#e8a895; stroke:none;" d="M301 298L302 299L301 298z"/>
<path style="fill:#ffbeb3; stroke:none;" d="M628 298L629 299L628 298z"/>
<path style="fill:#fab0b5; stroke:none;" d="M300 299L301 300L300 299z"/>
<path style="fill:#ee021f; stroke:none;" d="M621 304C623.763 302.701 625.164 301.447 627 299C624.034 300.174 622.535 301.204 621 304z"/>
<path style="fill:#f9bcbb; stroke:none;" d="M627 299L628 300L627 299z"/>
<path style="fill:#ffc1b8; stroke:none;" d="M626 300L627 301L626 300z"/>
<path style="fill:#ed576b; stroke:none;" d="M54 301L55 302L54 301z"/>
<path style="fill:#f9a4a0; stroke:none;" d="M381 301L381 304C381.696 302.446 381.696 302.554 381 301z"/>
<path style="fill:#f5b3b6; stroke:none;" d="M625 301L626 302L625 301z"/>
<path style="fill:#ffc6c7; stroke:none;" d="M54.3333 302.667C54.2778 302.722 54.2222 303.778 54.6667 303.333C54.7222 303.278 54.7778 302.222 54.3333 302.667z"/>
<path style="fill:#fce0b9; stroke:none;" d="M623 303L624 304L623 303z"/>
<path style="fill:#ec6075; stroke:none;" d="M293 305L294 306L293 305z"/>
<path style="fill:#e45d6b; stroke:none;" d="M620 305L621 306L620 305z"/>
<path style="fill:#f55c5f; stroke:none;" d="M55 306L56 307L55 306z"/>
<path style="fill:#fa8e94; stroke:none;" d="M292 306L293 307L292 306z"/>
<path style="fill:#e3766b; stroke:none;" d="M382 306L383 307L382 306z"/>
<path style="fill:#cc665c; stroke:none;" d="M619 306L620 307L619 306z"/>
<path style="fill:#f89c9d; stroke:none;" d="M55 307L56 308L55 307z"/>
<path style="fill:#eeadb0; stroke:none;" d="M291 307L292 308L291 307z"/>
<path style="fill:#e9baaa; stroke:none;" d="M382 307L383 308L382 307z"/>
<path style="fill:#ecb5ac; stroke:none;" d="M618 307L619 308L618 307z"/>
<path style="fill:#e7535d; stroke:none;" d="M288 309L289 310L288 309z"/>
<path style="fill:#fa7f8d; stroke:none;" d="M287 310L288 311L287 310z"/>
<path style="fill:#f87483; stroke:none;" d="M614 310L615 311L614 310z"/>
<path style="fill:#ff6a68; stroke:none;" d="M56 311L57 312L56 311z"/>
<path style="fill:#ffcac6; stroke:none;" d="M286 311L287 312L286 311z"/>
<path style="fill:#ff8e83; stroke:none;" d="M383 311L384 312L383 311z"/>
<path style="fill:#f4bfb1; stroke:none;" d="M613 311L614 312L613 311z"/>
<path style="fill:#ec595c; stroke:none;" d="M284 312L285 313L284 312z"/>
<path style="fill:#e54866; stroke:none;" d="M611 312L612 313L611 312z"/>
<path style="fill:#f796a3; stroke:none;" d="M283 313L284 314L283 313z"/>
<path style="fill:#fe858f; stroke:none;" d="M610 313L611 314L610 313z"/>
<path style="fill:#ff5f69; stroke:none;" d="M57 315L58 316L57 315z"/>
<path style="fill:#f57e96; stroke:none;" d="M280 315L281 316L280 315z"/>
<path style="fill:#ef7d7d; stroke:none;" d="M384 315L385 316L384 315z"/>
<path style="fill:#f37273; stroke:none;" d="M607 315L608 316L607 315z"/>
<path style="fill:#ffbebc; stroke:none;" d="M57 316L58 317L57 316z"/>
<path style="fill:#f0cec7; stroke:none;" d="M606 316L607 317L606 316z"/>
<path style="fill:#f69798; stroke:none;" d="M277 317L278 318L277 317z"/>
<path style="fill:#d7010d; stroke:none;" d="M602.667 317.333C602.222 317.778 603.278 317.722 603.333 317.667C603.778 317.222 602.722 317.278 602.667 317.333z"/>
<path style="fill:#ec9590; stroke:none;" d="M604 317L605 318L604 317z"/>
<path style="fill:#f2606f; stroke:none;" d="M275 318L276 319L275 318z"/>
<path style="fill:#f7747c; stroke:none;" d="M385.333 318.667C385.278 318.722 385.222 319.778 385.667 319.333C385.722 319.278 385.778 318.222 385.333 318.667z"/>
<path style="fill:#ea525a; stroke:none;" d="M602 318L603 319L602 318z"/>
<path style="fill:#f76a5d; stroke:none;" d="M58 319L59 320L58 319z"/>
<path style="fill:#fbb5b9; stroke:none;" d="M274 319L275 320L274 319z"/>
<path style="fill:#ff9e9a; stroke:none;" d="M601 319L602 320L601 319z"/>
<path style="fill:#ffe3e0; stroke:none;" d="M58.3333 320.667C58.2778 320.722 58.2222 321.778 58.6667 321.333C58.7222 321.278 58.7778 320.222 58.3333 320.667z"/>
<path style="fill:#c0b0af; stroke:none;" d="M272 320L273 321L272 320z"/>
<path style="fill:#fabfd4; stroke:none;" d="M385 320L386 321L385 320z"/>
<path style="fill:#f6908c; stroke:none;" d="M599 320L600 321L599 320z"/>
<path style="fill:#f16071; stroke:none;" d="M270 321L271 322L270 321z"/>
<path style="fill:#f65b67; stroke:none;" d="M597 321L598 322L597 321z"/>
<path style="fill:#f95564; stroke:none;" d="M268 322L269 323L268 322z"/>
<path style="fill:#fb6b73; stroke:none;" d="M59 323L60 324L59 323z"/>
<path style="fill:#fb5166; stroke:none;" d="M266 323L267 324L266 323z"/>
<path style="fill:#f18288; stroke:none;" d="M386 323L387 324L386 323z"/>
<path style="fill:#f1fff8; stroke:none;" d="M589 326C592.559 327.239 596.206 325.785 600 327C597.124 322.32 593.314 324.124 589 326z"/>
<path style="fill:#ffc7c6; stroke:none;" d="M59 324L60 325L59 324z"/>
<path style="fill:#ef4e61; stroke:none;" d="M264 324L265 325L264 324z"/>
<path style="fill:#ffc6c0; stroke:none;" d="M265 324L266 325L265 324z"/>
<path style="fill:#ffb9c6; stroke:none;" d="M592 324L593 325L592 324z"/>
<path style="fill:#e84c62; stroke:none;" d="M262 325L263 326L262 325z"/>
<path style="fill:#e9aaac; stroke:none;" d="M590 325L591 326L590 325z"/>
<path style="fill:#f14f55; stroke:none;" d="M60 326L61 327L60 326z"/>
<path style="fill:#eb5d64; stroke:none;" d="M387 326L388 327L387 326z"/>
<path style="fill:#e94c56; stroke:none;" d="M587 326L588 327L587 326z"/>
<path style="fill:#f1cbba; stroke:none;" d="M588 326L589 327L588 326z"/>
<path style="fill:#ff9888; stroke:none;" d="M60 327L61 328L60 327z"/>
<path style="fill:#ec666e; stroke:none;" d="M258 327L259 328L258 327z"/>
<path style="fill:#ffafa7; stroke:none;" d="M387 327L388 328L387 327z"/>
<path style="fill:#fa6c6c; stroke:none;" d="M585 327L586 328L585 327z"/>
<path style="fill:#c0a6a9; stroke:none;" d="M256 328L257 329L256 328z"/>
<path style="fill:#f88984; stroke:none;" d="M583 328L584 329L583 328z"/>
<path style="fill:#e75e67; stroke:none;" d="M253 329L254 330L253 329z"/>
<path style="fill:#f4cbc9; stroke:none;" d="M254 329L255 330L254 329z"/>
<path style="fill:#f7b8b4; stroke:none;" d="M581 329L582 330L581 329z"/>
<path style="fill:#f77381; stroke:none;" d="M61 330L62 331L61 330z"/>
<path style="fill:#f07978; stroke:none;" d="M149 330L149 332C150.635 331.455 150.455 331.635 151 330L149 330z"/>
<path style="fill:#f19898; stroke:none;" d="M251 330L252 331L251 330z"/>
<path style="fill:#eb8f91; stroke:none;" d="M388 330L389 331L388 330z"/>
<path style="fill:#de7476; stroke:none;" d="M476 330L476 332C477.635 331.455 477.455 331.635 478 330L476 330z"/>
<path style="fill:#e4797a; stroke:none;" d="M578 330L579 331L578 330z"/>
<path style="fill:#f5766a; stroke:none;" d="M152 331L153 332L152 331z"/>
<path style="fill:#ff757e; stroke:none;" d="M248 331L249 332L248 331z"/>
<path style="fill:#f77a80; stroke:none;" d="M479 331L480 332L479 331z"/>
<path style="fill:#f76961; stroke:none;" d="M575 331L576 332L575 331z"/>
<path style="fill:#ffb5c5; stroke:none;" d="M576 331L577 332L576 331z"/>
<path style="fill:#f56472; stroke:none;" d="M155 332L156 333L155 332z"/>
<path style="fill:#e35f63; stroke:none;" d="M245 332L246 333L245 332z"/>
<path style="fill:#f0c3ce; stroke:none;" d="M246 332L247 333L246 332z"/>
<path style="fill:#f4c1ce; stroke:none;" d="M481 332L482 333L481 332z"/>
<path style="fill:#e85d66; stroke:none;" d="M482 332L483 333L482 332z"/>
<path style="fill:#f96178; stroke:none;" d="M572 332L573 333L572 332z"/>
<path style="fill:#f55669; stroke:none;" d="M62 333L63 334L62 333z"/>
<path style="fill:#f6c9be; stroke:none;" d="M157 333L158 334L157 333z"/>
<path style="fill:#f67476; stroke:none;" d="M158 333L159 334L158 333z"/>
<path style="fill:#e27980; stroke:none;" d="M242 333L243 334L242 333z"/>
<path style="fill:#efc8cf; stroke:none;" d="M243 333L244 334L243 333z"/>
<path style="fill:#eb6b6e; stroke:none;" d="M389 333L390 334L389 333z"/>
<path style="fill:#e57883; stroke:none;" d="M485 333L486 334L485 333z"/>
<path style="fill:#f7676b; stroke:none;" d="M569 333L570 334L569 333z"/>
<path style="fill:#ffcfbf; stroke:none;" d="M570 333L571 334L570 333z"/>
<path style="fill:#f8b1b7; stroke:none;" d="M62 334L63 335L62 334z"/>
<path style="fill:#f3a19e; stroke:none;" d="M161 334L162 335L161 334z"/>
<path style="fill:#dd4554; stroke:none;" d="M162 334L163 335L162 334z"/>
<path style="fill:#e94a5b; stroke:none;" d="M238 334L239 335L238 334z"/>
<path style="fill:#fb9e99; stroke:none;" d="M239 334L240 335L239 334z"/>
<path style="fill:#fbc4c3; stroke:none;" d="M477 334L478 335L477 334z"/>
<path style="fill:#fca7a1; stroke:none;" d="M488 334L489 335L488 334z"/>
<path style="fill:#ec5661; stroke:none;" d="M489 334L490 335L489 334z"/>
<path style="fill:#f09898; stroke:none;" d="M566 334L567 335L566 334z"/>
<path style="fill:#f78791; stroke:none;" d="M150 335L151 336L150 335z"/>
<path style="fill:#f68a84; stroke:none;" d="M165 335L166 336L165 335z"/>
<path style="fill:#f37c7d; stroke:none;" d="M235 335L236 336L235 335z"/>
<path style="fill:#f37f84; stroke:none;" d="M477 335L478 336L477 335z"/>
<path style="fill:#fb8b8d; stroke:none;" d="M492 335L493 336L492 335z"/>
<path style="fill:#fb7c79; stroke:none;" d="M562 335L563 336L562 335z"/>
<path style="fill:#ffc8bc; stroke:none;" d="M563 335L564 336L563 335z"/>
<path style="fill:#e5567c; stroke:none;" d="M63 336L64 337L63 336z"/>
<path style="fill:#f69993; stroke:none;" d="M168.667 336.333C168.222 336.778 169.278 336.722 169.333 336.667C169.778 336.222 168.722 336.278 168.667 336.333z"/>
<path style="fill:#e64f56; stroke:none;" d="M170 336L171 337L170 336z"/>
<path style="fill:#fd8789; stroke:none;" d="M230.667 336.333C230.222 336.778 231.278 336.722 231.333 336.667C231.778 336.222 230.722 336.278 230.667 336.333z"/>
<path style="fill:#fd5467; stroke:none;" d="M390 336L391 337L390 336z"/>
<path style="fill:#ef5e66; stroke:none;" d="M496.667 336.333C496.222 336.778 497.278 336.722 497.333 336.667C497.778 336.222 496.722 336.278 496.667 336.333z"/>
<path style="fill:#fdcec7; stroke:none;" d="M558.667 336.333C558.222 336.778 559.278 336.722 559.333 336.667C559.778 336.222 558.722 336.278 558.667 336.333z"/>
<path style="fill:#ffa5bb; stroke:none;" d="M63 337L64 338L63 337z"/>
<path style="fill:#ffc2ca; stroke:none;" d="M173 337L174 338L173 337z"/>
<path style="fill:#f65779; stroke:none;" d="M174.667 337.333C174.222 337.778 175.278 337.722 175.333 337.667C175.778 337.222 174.722 337.278 174.667 337.333z"/>
<path style="fill:#e41203; stroke:none;" d="M220 337C221.506 337.683 222.315 337.826 224 338C222.494 337.317 221.685 337.174 220 337z"/>
<path style="fill:#f84560; stroke:none;" d="M225 337L226 338L225 337z"/>
<path style="fill:#fc8d94; stroke:none;" d="M226 337L227 338L226 337z"/>
<path style="fill:#ffa7a2; stroke:none;" d="M390 337L391 338L390 337z"/>
<path style="fill:#ff9091; stroke:none;" d="M501 337L502 338L501 337z"/>
<path style="fill:#f9848b; stroke:none;" d="M552.667 337.333C552.222 337.778 553.278 337.722 553.333 337.667C553.778 337.222 552.722 337.278 552.667 337.333z"/>
<path style="fill:#f68d88; stroke:none;" d="M179.667 338.333C179.222 338.778 180.278 338.722 180.333 338.667C180.778 338.222 179.722 338.278 179.667 338.333z"/>
<path style="fill:#f44033; stroke:none;" d="M181.667 338.333C181.222 338.778 182.278 338.722 182.333 338.667C182.778 338.222 181.722 338.278 181.667 338.333z"/>
<path style="fill:#f49497; stroke:none;" d="M219.667 338.333C219.222 338.778 220.278 338.722 220.333 338.667C220.778 338.222 219.722 338.278 219.667 338.333z"/>
<path style="fill:#f8939c; stroke:none;" d="M506 338C507.248 338.685 507.548 338.749 509 339C507.752 338.315 507.452 338.251 506 338z"/>
<path style="fill:#f9908c; stroke:none;" d="M546 338C547.248 338.685 547.548 338.749 549 339C547.752 338.315 547.452 338.251 546 338z"/>
<path style="fill:#ef515b; stroke:none;" d="M64 339L65 340L64 339z"/>
<path style="fill:#ff9ca2; stroke:none;" d="M151 339L152 340L151 339z"/>
<path style="fill:#f5d0ca; stroke:none;" d="M186.667 339.333C186.222 339.778 187.278 339.722 187.333 339.667C187.778 339.222 186.722 339.278 186.667 339.333z"/>
<path style="fill:#fd8d9b; stroke:none;" d="M188 339C189.506 339.683 190.315 339.826 192 340C190.494 339.317 189.685 339.174 188 339z"/>
<path style="fill:#f34b47; stroke:none;" d="M192 339C196.974 341.087 203.638 340 209 340C204.026 337.913 197.362 339 192 339z"/>
<path style="fill:#f78892; stroke:none;" d="M209 339C210.248 339.685 210.548 339.749 212 340C210.752 339.315 210.452 339.251 209 339z"/>
<path style="fill:#f5cdc6; stroke:none;" d="M212 339C213.248 339.685 213.548 339.749 215 340C213.752 339.315 213.452 339.251 212 339z"/>
<path style="fill:#e3475f; stroke:none;" d="M391 339L392 340L391 339z"/>
<path style="fill:#fb8f95; stroke:none;" d="M478 339L479 340L478 339z"/>
<path style="fill:#efccc3; stroke:none;" d="M513 339C514.248 339.685 514.548 339.749 516 340C514.752 339.315 514.452 339.251 513 339z"/>
<path style="fill:#fb8c96; stroke:none;" d="M516 339C517.248 339.685 517.548 339.749 519 340C517.752 339.315 517.452 339.251 516 339z"/>
<path style="fill:#f34b47; stroke:none;" d="M519 339C523.974 341.087 530.638 340 536 340C531.026 337.913 524.362 339 519 339z"/>
<path style="fill:#f78c99; stroke:none;" d="M536 339C537.248 339.685 537.548 339.749 539 340C537.752 339.315 537.452 339.251 536 339z"/>
<path style="fill:#f5d0ca; stroke:none;" d="M539.667 339.333C539.222 339.778 540.278 339.722 540.333 339.667C540.778 339.222 539.722 339.278 539.667 339.333z"/>
<path style="fill:#fbc0b5; stroke:none;" d="M64 340L65 341L64 340z"/>
<path style="fill:#f1b7bc; stroke:none;" d="M391 340L392 341L391 340z"/>
<path style="fill:#f05c69; stroke:none;" d="M65 342L66 343L65 342z"/>
<path style="fill:#e41216; stroke:none;" d="M66 342C66.827 347.6 69.1966 352.669 71 358C72.3974 353.261 68.8701 345.836 66 342z"/>
<path style="fill:#e86359; stroke:none;" d="M392 342L393 343L392 342z"/>
<path style="fill:#f9aea6; stroke:none;" d="M65 343L66 344L65 343z"/>
<path style="fill:#d9acb8; stroke:none;" d="M152 343L153 344L152 343z"/>
<path style="fill:#fcc8a5; stroke:none;" d="M392 343L393 344L392 343z"/>
<path style="fill:#f08da4; stroke:none;" d="M479 343L480 344L479 343z"/>
<path style="fill:#f35e61; stroke:none;" d="M66 345L67 346L66 345z"/>
<path style="fill:#f05863; stroke:none;" d="M393 345L394 346L393 345z"/>
<path style="fill:#ffcac8; stroke:none;" d="M66 346L67 347L66 346z"/>
<path style="fill:#f8c0b4; stroke:none;" d="M393 346L394 347L393 346z"/>
<path style="fill:#f0868a; stroke:none;" d="M153 347L154 348L153 347z"/>
<path style="fill:#e37178; stroke:none;" d="M480 347L481 348L480 347z"/>
<path style="fill:#ff7078; stroke:none;" d="M67 348L68 349L67 348z"/>
<path style="fill:#f38289; stroke:none;" d="M394 348L395 349L394 348z"/>
<path style="fill:#ff9c9c; stroke:none;" d="M154 350L155 351L154 350z"/>
<path style="fill:#e04552; stroke:none;" d="M395 350L396 351L395 350z"/>
<path style="fill:#f18d91; stroke:none;" d="M481 350L482 351L481 350z"/>
<path style="fill:#ed988f; stroke:none;" d="M68 351L69 352L68 351z"/>
<path style="fill:#f8a79f; stroke:none;" d="M395 351L396 352L395 351z"/>
<path style="fill:#e63a54; stroke:none;" d="M481 351L482 352L481 351z"/>
<path style="fill:#ec575e; stroke:none;" d="M69 353L70 354L69 353z"/>
<path style="fill:#f5babb; stroke:none;" d="M155 353L156 354L155 353z"/>
<path style="fill:#ed6c68; stroke:none;" d="M396 353L397 354L396 353z"/>
<path style="fill:#fca5a0; stroke:none;" d="M482 353L483 354L482 353z"/>
<path style="fill:#f3c2ba; stroke:none;" d="M69 354L70 355L69 354z"/>
<path style="fill:#f64b69; stroke:none;" d="M155 354L156 355L155 354z"/>
<path style="fill:#ee8d90; stroke:none;" d="M70 356L71 357L70 356z"/>
<path style="fill:#eec0b3; stroke:none;" d="M156 356L157 357L156 356z"/>
<path style="fill:#f09595; stroke:none;" d="M397 356L398 357L397 356z"/>
<path style="fill:#f0a09d; stroke:none;" d="M483 356L484 357L483 356z"/>
<path style="fill:#e44a54; stroke:none;" d="M156 357L157 358L156 357z"/>
<path style="fill:#e3585b; stroke:none;" d="M71 358L72 359L71 358z"/>
<path style="fill:#e15f70; stroke:none;" d="M398 358L399 359L398 358z"/>
<path style="fill:#ffbbb1; stroke:none;" d="M71 359L72 360L71 359z"/>
<path style="fill:#ffadbe; stroke:none;" d="M157 359L158 360L157 359z"/>
<path style="fill:#efa3bc; stroke:none;" d="M484 359L485 360L484 359z"/>
<path style="fill:#de345d; stroke:none;" d="M399 360L400 361L399 360z"/>
<path style="fill:#ff8f91; stroke:none;" d="M72 361L73 362L72 361z"/>
<path style="fill:#ffa2b4; stroke:none;" d="M399 361L400 362L399 361z"/>
<path style="fill:#fc9899; stroke:none;" d="M158 362L159 363L158 362z"/>
<path style="fill:#f47882; stroke:none;" d="M485 362L486 363L485 362z"/>
<path style="fill:#e86471; stroke:none;" d="M73 363L74 364L73 363z"/>
<path style="fill:#f77d7c; stroke:none;" d="M400 363L401 364L400 363z"/>
<path style="fill:#ffcbc2; stroke:none;" d="M159 364L160 365L159 364z"/>
<path style="fill:#f7c1b7; stroke:none;" d="M486 364L487 365L486 364z"/>
<path style="fill:#f7415f; stroke:none;" d="M74 365L75 366L74 365z"/>
<path style="fill:#e95b5f; stroke:none;" d="M159 365L160 366L159 365z"/>
<path style="fill:#f65d73; stroke:none;" d="M401 365L402 366L401 365z"/>
<path style="fill:#ffc4ce; stroke:none;" d="M74 366L75 367L74 366z"/>
<path style="fill:#d2b7be; stroke:none;" d="M160 367L161 368L160 367z"/>
<path style="fill:#f34a4f; stroke:none;" d="M402 367L403 368L402 367z"/>
<path style="fill:#e37e82; stroke:none;" d="M487 367L488 368L487 367z"/>
<path style="fill:#ebb9b9; stroke:none;" d="M75 368L76 369L75 368z"/>
<path style="fill:#f3a9af; stroke:none;" d="M402 368L403 369L402 368z"/>
<path style="fill:#f4b4b8; stroke:none;" d="M161 369L162 370L161 369z"/>
<path style="fill:#f1b4be; stroke:none;" d="M488 369L489 370L488 369z"/>
<path style="fill:#f1959b; stroke:none;" d="M76 370L77 371L76 370z"/>
<path style="fill:#ef4657; stroke:none;" d="M161 370L162 371L161 370z"/>
<path style="fill:#f5b3ae; stroke:none;" d="M403 370L404 371L403 370z"/>
<path style="fill:#f68b8f; stroke:none;" d="M77 372L78 373L77 372z"/>
<path style="fill:#ee7079; stroke:none;" d="M162 372L163 373L162 372z"/>
<path style="fill:#ef8981; stroke:none;" d="M404 372L405 373L404 372z"/>
<path style="fill:#f06e79; stroke:none;" d="M489 372L490 373L489 372z"/>
<path style="fill:#f9667f; stroke:none;" d="M78 374L79 375L78 374z"/>
<path style="fill:#fe9197; stroke:none;" d="M163 374L164 375L163 374z"/>
<path style="fill:#f6989a; stroke:none;" d="M405 374L406 375L405 374z"/>
<path style="fill:#f88e88; stroke:none;" d="M490 374L491 375L490 374z"/>
<path style="fill:#db7297; stroke:none;" d="M79 376L80 377L79 376z"/>
<path style="fill:#ffb3a9; stroke:none;" d="M164 376L165 377L164 376z"/>
<path style="fill:#ff7c88; stroke:none;" d="M406 376L407 377L406 376z"/>
<path style="fill:#ff8793; stroke:none;" d="M491 376L492 377L491 376z"/>
<path style="fill:#f76272; stroke:none;" d="M80 378L81 379L80 378z"/>
<path style="fill:#ffb1b4; stroke:none;" d="M165 378L166 379L165 378z"/>
<path style="fill:#ea6f7c; stroke:none;" d="M407 378L408 379L407 378z"/>
<path style="fill:#f9b0ac; stroke:none;" d="M492 378L493 379L492 378z"/>
<path style="fill:#ef6c70; stroke:none;" d="M81 380L82 381L81 380z"/>
<path style="fill:#f87e73; stroke:none;" d="M408 380L409 381L408 380z"/>
<path style="fill:#f0aeae; stroke:none;" d="M493 380L494 381L493 380z"/>
<path style="fill:#e05259; stroke:none;" d="M166 381L167 382L166 381z"/>
<path style="fill:#e35d6d; stroke:none;" d="M82 382L83 383L82 382z"/>
<path style="fill:#ffc9c5; stroke:none;" d="M167 382L168 383L167 382z"/>
<path style="fill:#f38792; stroke:none;" d="M409 382L410 383L409 382z"/>
<path style="fill:#ffaba9; stroke:none;" d="M494 382L495 383L494 382z"/>
<path style="fill:#e94d5d; stroke:none;" d="M167 383L168 384L167 383z"/>
<path style="fill:#f78b9e; stroke:none;" d="M83 384L84 385L83 384z"/>
<path style="fill:#ffaba9; stroke:none;" d="M168 384L169 385L168 384z"/>
<path style="fill:#ea8e92; stroke:none;" d="M410 384L411 385L410 384z"/>
<path style="fill:#ff9f88; stroke:none;" d="M495 384L496 385L495 384z"/>
<path style="fill:#e99596; stroke:none;" d="M84 386L85 387L84 386z"/>
<path style="fill:#f2b2ab; stroke:none;" d="M169 386L170 387L169 386z"/>
<path style="fill:#f8999d; stroke:none;" d="M411 386L412 387L411 386z"/>
<path style="fill:#eea4a5; stroke:none;" d="M496 386L497 387L496 386z"/>
<path style="fill:#e4b5a5; stroke:none;" d="M85 388L86 389L85 388z"/>
<path style="fill:#e8919b; stroke:none;" d="M170 388L171 389L170 388z"/>
<path style="fill:#eaada1; stroke:none;" d="M412 388L413 389L412 388z"/>
<path style="fill:#e99598; stroke:none;" d="M497 388L498 389L497 388z"/>
<path style="fill:#fa8587; stroke:none;" d="M171 390L172 391L171 390z"/>
<path style="fill:#fcc7c6; stroke:none;" d="M413 390L414 391L413 390z"/>
<path style="fill:#e76f72; stroke:none;" d="M498 390L499 391L498 390z"/>
<path style="fill:#ee5d64; stroke:none;" d="M414 391L415 392L414 391z"/>
<path style="fill:#ee4d53; stroke:none;" d="M172 392L173 393L172 392z"/>
<path style="fill:#f97478; stroke:none;" d="M88 393L89 394L88 393z"/>
<path style="fill:#fd808d; stroke:none;" d="M415 393L416 394L415 393z"/>
<path style="fill:#f5a8ae; stroke:none;" d="M500 393L501 394L500 393z"/>
<path style="fill:#e69185; stroke:none;" d="M89 395L90 396L89 395z"/>
<path style="fill:#ff848a; stroke:none;" d="M174 395L175 396L174 395z"/>
<path style="fill:#fc9fa8; stroke:none;" d="M416 395L417 396L416 395z"/>
<path style="fill:#f27f83; stroke:none;" d="M501 395L502 396L501 395z"/>
<path style="fill:#f6c2c7; stroke:none;" d="M90 397L91 398L90 397z"/>
<path style="fill:#f04f5e; stroke:none;" d="M175 397L176 398L175 397z"/>
<path style="fill:#eecdc0; stroke:none;" d="M417 397L418 398L417 397z"/>
<path style="fill:#e24e55; stroke:none;" d="M502 397L503 398L502 397z"/>
<path style="fill:#e1585e; stroke:none;" d="M91 398L92 399L91 398z"/>
<path style="fill:#ffadb2; stroke:none;" d="M176 398L177 399L176 398z"/>
<path style="fill:#f0697c; stroke:none;" d="M418 398L419 399L418 398z"/>
<path style="fill:#f4a094; stroke:none;" d="M503 398L504 399L503 398z"/>
<path style="fill:#f48aa0; stroke:none;" d="M92 400L93 401L92 400z"/>
<path style="fill:#fb858a; stroke:none;" d="M177 400L178 401L177 400z"/>
<path style="fill:#f19c9e; stroke:none;" d="M419 400L420 401L419 400z"/>
<path style="fill:#f94f5b; stroke:none;" d="M504 400L505 401L504 400z"/>
<path style="fill:#ffc7c7; stroke:none;" d="M178 401L179 402L178 401z"/>
<path style="fill:#ffbcbb; stroke:none;" d="M505 401L506 402L505 401z"/>
<path style="fill:#ee6b7d; stroke:none;" d="M94 403L95 404L94 403z"/>
<path style="fill:#fd7986; stroke:none;" d="M179 403L180 404L179 403z"/>
<path style="fill:#fd7788; stroke:none;" d="M421 403L422 404L421 403z"/>
<path style="fill:#f2596f; stroke:none;" d="M506 403L507 404L506 403z"/>
<path style="fill:#ffc5be; stroke:none;" d="M180 404L181 405L180 404z"/>
<path style="fill:#fac6be; stroke:none;" d="M507 404L508 405L507 404z"/>
<path style="fill:#f9aaa9; stroke:none;" d="M95 405L96 406L95 405z"/>
<path style="fill:#ffbec3; stroke:none;" d="M422 405L423 406L422 405z"/>
<path style="fill:#e55956; stroke:none;" d="M96 406L97 407L96 406z"/>
<path style="fill:#f7757c; stroke:none;" d="M181 406L182 407L181 406z"/>
<path style="fill:#de6077; stroke:none;" d="M423 406L424 407L423 406z"/>
<path style="fill:#e9616b; stroke:none;" d="M508 406L509 407L508 406z"/>
<path style="fill:#ffb7bc; stroke:none;" d="M182 407L183 408L182 407z"/>
<path style="fill:#eba1a8; stroke:none;" d="M509 407L510 408L509 407z"/>
<path style="fill:#d99f97; stroke:none;" d="M97 408L98 409L97 408z"/>
<path style="fill:#fb0f25; stroke:none;" d="M181 408C182.104 410.357 182.956 411.376 185 413C183.987 410.515 183.274 409.402 181 408z"/>
<path style="fill:#e5a298; stroke:none;" d="M424 408L425 409L424 408z"/>
<path style="fill:#e84e5a; stroke:none;" d="M98 409L99 410L98 409z"/>
<path style="fill:#de5d60; stroke:none;" d="M183 409L184 410L183 409z"/>
<path style="fill:#e94d59; stroke:none;" d="M425 409L426 410L425 409z"/>
<path style="fill:#f79a9e; stroke:none;" d="M184 410L185 411L184 410z"/>
<path style="fill:#ec928f; stroke:none;" d="M511 410L512 411L511 410z"/>
<path style="fill:#ec9a97; stroke:none;" d="M99 411L100 412L99 411z"/>
<path style="fill:#f9a2a0; stroke:none;" d="M426 411L427 412L426 411z"/>
<path style="fill:#e65866; stroke:none;" d="M100 412L101 413L100 412z"/>
<path style="fill:#f84d65; stroke:none;" d="M186 413L187 414L186 413z"/>
<path style="fill:#ee4c5e; stroke:none;" d="M513 413L514 414L513 413z"/>
<path style="fill:#e4a7a3; stroke:none;" d="M101 414L102 415L101 414z"/>
<path style="fill:#f29591; stroke:none;" d="M187 414L188 415L187 414z"/>
<path style="fill:#ffc6c7; stroke:none;" d="M428 414L429 415L428 414z"/>
<path style="fill:#f17d82; stroke:none;" d="M514 414L515 415L514 414z"/>
<path style="fill:#ef4e5d; stroke:none;" d="M102 415L103 416L102 415z"/>
<path style="fill:#e05f62; stroke:none;" d="M429 415L430 416L429 415z"/>
<path style="fill:#ffcabd; stroke:none;" d="M515 415L516 416L515 415z"/>
<path style="fill:#ffacb1; stroke:none;" d="M103 417L104 418L103 417z"/>
<path style="fill:#eeccb7; stroke:none;" d="M430 417L431 418L430 417z"/>
<path style="fill:#eb7076; stroke:none;" d="M104 418L105 419L104 418z"/>
<path style="fill:#ed5f70; stroke:none;" d="M190 418L191 419L190 418z"/>
<path style="fill:#fc7889; stroke:none;" d="M431 418L432 419L431 418z"/>
<path style="fill:#f65462; stroke:none;" d="M517 418L518 419L517 418z"/>
<path style="fill:#f4a393; stroke:none;" d="M191 419L192 420L191 419z"/>
<path style="fill:#e98085; stroke:none;" d="M518 419L519 420L518 419z"/>
<path style="fill:#ffb8be; stroke:none;" d="M192 420L193 421L192 420z"/>
<path style="fill:#f5a59b; stroke:none;" d="M519 420L520 421L519 420z"/>
<path style="fill:#ffa7a9; stroke:none;" d="M106 421L107 422L106 421z"/>
<path style="fill:#f69da2; stroke:none;" d="M433 421L434 422L433 421z"/>
<path style="fill:#ee4c68; stroke:none;" d="M107 422L108 423L107 422z"/>
<path style="fill:#f55d6c; stroke:none;" d="M434 422L435 423L434 422z"/>
<path style="fill:#f85662; stroke:none;" d="M195 424L196 425L195 424z"/>
<path style="fill:#f08989; stroke:none;" d="M109 425L110 426L109 425z"/>
<path style="fill:#f56d7f; stroke:none;" d="M196 425L197 426L196 425z"/>
<path style="fill:#ef9f95; stroke:none;" d="M436 425L437 426L436 425z"/>
<path style="fill:#ff6377; stroke:none;" d="M523 425L524 426L523 425z"/>
<path style="fill:#f3f2fd; stroke:none;" d="M106 426C105.274 428.179 105.561 427.78 104 427L104 432L109 429C108.014 430.479 108 430.203 108 432C110.42 431.193 110.543 429.942 112 428C109.822 427.14 107.866 427.4 106 426z"/>
<path style="fill:#e6515b; stroke:none;" d="M110 426L111 427L110 426z"/>
<path style="fill:#ed8388; stroke:none;" d="M197 426L198 427L197 426z"/>
<path style="fill:#f55569; stroke:none;" d="M437 426L438 427L437 426z"/>
<path style="fill:#f36774; stroke:none;" d="M524 426L525 427L524 426z"/>
<path style="fill:#f6a4a7; stroke:none;" d="M198 427L199 428L198 427z"/>
<path style="fill:#f398a3; stroke:none;" d="M525 427L526 428L525 427z"/>
<path style="fill:#f0af9e; stroke:none;" d="M199 428L200 429L199 428z"/>
<path style="fill:#fca7a7; stroke:none;" d="M526 428L527 429L526 428z"/>
<path style="fill:#ebaca0; stroke:none;" d="M112 429L113 430L112 429z"/>
<path style="fill:#fe9fb1; stroke:none;" d="M200 429L201 430L200 429z"/>
<path style="fill:#ffa5ab; stroke:none;" d="M439 429L440 430L439 429z"/>
<path style="fill:#ffabbf; stroke:none;" d="M527 429L528 430L527 429z"/>
<path style="fill:#fd677e; stroke:none;" d="M113 430L114 431L113 430z"/>
<path style="fill:#f17d7e; stroke:none;" d="M440 430L441 431L440 430z"/>
<path style="fill:#ffa7aa; stroke:none;" d="M528 430L529 431L528 430z"/>
<path style="fill:#de4a57; stroke:none;" d="M441 431L442 432L441 431z"/>
<path style="fill:#f5aeaa; stroke:none;" d="M116 434L117 435L116 434z"/>
<path style="fill:#ffb8bc; stroke:none;" d="M443 434L444 435L443 434z"/>
<path style="fill:#d57267; stroke:none;" d="M117 435L118 436L117 435z"/>
<path style="fill:#f30e27; stroke:none;" d="M118 435C119.388 437.702 120.963 439.736 123 442C124.459 440.688 125.157 439.769 126 438L122 439C120.846 436.751 120.249 436.154 118 435z"/>
<path style="fill:#ea868a; stroke:none;" d="M444 435L445 436L444 435z"/>
<path style="fill:#e75164; stroke:none;" d="M118 436L119 437L118 436z"/>
<path style="fill:#e96063; stroke:none;" d="M445 436L446 437L445 436z"/>
<path style="fill:#f6bfb6; stroke:none;" d="M534 436L535 437L534 436z"/>
<path style="fill:#d42c24; stroke:none;" d="M122 437L122 439L124 439L124 437L122 437z"/>
<path style="fill:#ffb6bd; stroke:none;" d="M208 437L209 438L208 437z"/>
<path style="fill:#f6b4ab; stroke:none;" d="M535 437L536 438L535 437z"/>
<path style="fill:#ffb6b0; stroke:none;" d="M209 438L210 439L209 438z"/>
<path style="fill:#ffb3af; stroke:none;" d="M536 438L537 439L536 438z"/>
<path style="fill:#f7a4b0; stroke:none;" d="M210 439L211 440L210 439z"/>
<path style="fill:#fcb2ad; stroke:none;" d="M537 439L538 440L537 439z"/>
<path style="fill:#f9b1aa; stroke:none;" d="M121 440L122 441L121 440z"/>
<path style="fill:#f79e99; stroke:none;" d="M211 440L212 441L211 440z"/>
<path style="fill:#ffbbc0; stroke:none;" d="M448 440L449 441L448 440z"/>
<path style="fill:#ee778a; stroke:none;" d="M538 440L539 441L538 440z"/>
<path style="fill:#f78b94; stroke:none;" d="M122 441L123 442L122 441z"/>
<path style="fill:#ee7580; stroke:none;" d="M212 441L213 442L212 441z"/>
<path style="fill:#ffafbb; stroke:none;" d="M449 441L450 442L449 441z"/>
<path style="fill:#ee666f; stroke:none;" d="M539 441L540 442L539 441z"/>
<path style="fill:#fc6a76; stroke:none;" d="M123 442L124 443L123 442z"/>
<path style="fill:#f7606a; stroke:none;" d="M213 442L214 443L213 442z"/>
<path style="fill:#e56877; stroke:none;" d="M450 442L451 443L450 442z"/>
<path style="fill:#fe5b6e; stroke:none;" d="M124 443L125 444L124 443z"/>
<path style="fill:#ec6f76; stroke:none;" d="M451 443L452 444L451 443z"/>
<path style="fill:#f84457; stroke:none;" d="M126 445L127 446L126 445z"/>
<path style="fill:#ffa2b5; stroke:none;" d="M544 445L545 446L544 445z"/>
<path style="fill:#fba1a1; stroke:none;" d="M218 446L219 447L218 446z"/>
<path style="fill:#f49995; stroke:none;" d="M545 446L546 447L545 446z"/>
<path style="fill:#db6f7a; stroke:none;" d="M219 447L220 448L219 447z"/>
<path style="fill:#f36d7e; stroke:none;" d="M546 447L547 448L546 447z"/>
<path style="fill:#edd0c3; stroke:none;" d="M129 449L130 450L129 449z"/>
<path style="fill:#ffcec7; stroke:none;" d="M549 449L550 450L549 449z"/>
<path style="fill:#ebbbaf; stroke:none;" d="M130 450L131 451L130 450z"/>
<path style="fill:#f7a392; stroke:none;" d="M223 450L224 451L223 450z"/>
<path style="fill:#f5c2bf; stroke:none;" d="M457 450L458 451L457 450z"/>
<path style="fill:#e38184; stroke:none;" d="M550 450L551 451L550 450z"/>
<path style="fill:#e6b8ae; stroke:none;" d="M131 451L132 452L131 451z"/>
<path style="fill:#de5f6d; stroke:none;" d="M224 451L225 452L224 451z"/>
<path style="fill:#f7b1b2; stroke:none;" d="M458 451L459 452L458 451z"/>
<path style="fill:#e94f5a; stroke:none;" d="M551 451L552 452L551 451z"/>
<path style="fill:#f9b6b5; stroke:none;" d="M132 452L133 453L132 452z"/>
<path style="fill:#efb7b7; stroke:none;" d="M459 452L460 453L459 452z"/>
<path style="fill:#f4b7b0; stroke:none;" d="M133 453L134 454L133 453z"/>
<path style="fill:#faa4a7; stroke:none;" d="M227 453L228 454L227 453z"/>
<path style="fill:#f3aead; stroke:none;" d="M460 453L461 454L460 453z"/>
<path style="fill:#f09393; stroke:none;" d="M554 453L555 454L554 453z"/>
<path style="fill:#f0a6a3; stroke:none;" d="M134 454L135 455L134 454z"/>
<path style="fill:#db4e5f; stroke:none;" d="M228 454L229 455L228 454z"/>
<path style="fill:#efb0aa; stroke:none;" d="M461 454L462 455L461 454z"/>
<path style="fill:#ec4d5e; stroke:none;" d="M555 454L556 455L555 454z"/>
<path style="fill:#eea7a6; stroke:none;" d="M135 455L136 456L135 455z"/>
<path style="fill:#ffc4d2; stroke:none;" d="M230 455L231 456L230 455z"/>
<path style="fill:#f9b8b9; stroke:none;" d="M462 455L463 456L462 455z"/>
<path style="fill:#fbbabd; stroke:none;" d="M557 455L558 456L557 455z"/>
<path style="fill:#fab2aa; stroke:none;" d="M136 456L137 457L136 456z"/>
<path style="fill:#ff665b; stroke:none;" d="M231 456L232 457L231 456z"/>
<path style="fill:#d0cad0; stroke:none;" d="M463 456L464 457L463 456z"/>
<path style="fill:#e46f6e; stroke:none;" d="M558 456L559 457L558 456z"/>
<path style="fill:#efbfb1; stroke:none;" d="M137 457L138 458L137 457z"/>
<path style="fill:#f8b7bb; stroke:none;" d="M464 457L465 458L464 457z"/>
<path style="fill:#e5c5b6; stroke:none;" d="M560 457L561 458L560 457z"/>
<path style="fill:#eab9ab; stroke:none;" d="M138 458L139 459L138 458z"/>
<path style="fill:#ee8897; stroke:none;" d="M234 458L235 459L234 458z"/>
<path style="fill:#f7b7b6; stroke:none;" d="M465 458L466 459L465 458z"/>
<path style="fill:#f48284; stroke:none;" d="M561 458L562 459L561 458z"/>
<path style="fill:#e7bbab; stroke:none;" d="M139 459L140 460L139 459z"/>
<path style="fill:#fab4b3; stroke:none;" d="M466 459L467 460L466 459z"/>
<path style="fill:#fab1ab; stroke:none;" d="M140 460L141 461L140 460z"/>
<path style="fill:#ffb0b5; stroke:none;" d="M237 460L238 461L237 460z"/>
<path style="fill:#f3bbbb; stroke:none;" d="M467 460L468 461L467 460z"/>
<path style="fill:#ffacad; stroke:none;" d="M564 460L565 461L564 460z"/>
<path style="fill:#f3bdb1; stroke:none;" d="M141 461L142 462L141 461z"/>
<path style="fill:#fe8c93; stroke:none;" d="M238 461L239 462L238 461z"/>
<path style="fill:#f6b1af; stroke:none;" d="M468 461L469 462L468 461z"/>
<path style="fill:#ef736d; stroke:none;" d="M565 461L566 462L565 461z"/>
<path style="fill:#e6b2ab; stroke:none;" d="M142 462L143 463L142 462z"/>
<path style="fill:#f67379; stroke:none;" d="M239 462L240 463L239 462z"/>
<path style="fill:#ffcbc8; stroke:none;" d="M469 462L470 463L469 462z"/>
<path style="fill:#f3727c; stroke:none;" d="M566 462L567 463L566 462z"/>
<path style="fill:#bdacad; stroke:none;" d="M240 463L241 464L240 463z"/>
<path style="fill:#ff626a; stroke:none;" d="M567 463L568 464L567 463z"/>
<path style="fill:#faaaa6; stroke:none;" d="M241 464L242 465L241 464z"/>
<path style="fill:#f8ae9e; stroke:none;" d="M568 464L569 465L568 464z"/>
<path style="fill:#ec888a; stroke:none;" d="M243 467L244 468L243 467z"/>
<path style="fill:#dd7c77; stroke:none;" d="M570 467L571 468L570 467z"/>
<path style="fill:#ef5962; stroke:none;" d="M149 468L150 469L149 468z"/>
<path style="fill:#e9626c; stroke:none;" d="M476 468L477 469L476 468z"/>
<path style="fill:#ef6371; stroke:none;" d="M150 469L151 470L150 469z"/>
<path style="fill:#f16068; stroke:none;" d="M244 469L245 470L244 469z"/>
<path style="fill:#ec6f7e; stroke:none;" d="M477 469L478 470L477 469z"/>
<path style="fill:#e65161; stroke:none;" d="M571 469L572 470L571 469z"/>
<path style="fill:#f5a299; stroke:none;" d="M151 470L152 471L151 470z"/>
<path style="fill:#ffacbb; stroke:none;" d="M478 470L479 471L478 470z"/>
<path style="fill:#f1d5c2; stroke:none;" d="M572 470L573 471L572 470z"/>
<path style="fill:#ff9e8b; stroke:none;" d="M152 471L153 472L152 471z"/>
<path style="fill:#f86871; stroke:none;" d="M245 471L246 472L245 471z"/>
<path style="fill:#ffb1b8; stroke:none;" d="M479 471L480 472L479 471z"/>
<path style="fill:#f76b71; stroke:none;" d="M572 471L573 472L572 471z"/>
<path style="fill:#f4b5ac; stroke:none;" d="M246 473L247 474L246 473z"/>
<path style="fill:#f7a6af; stroke:none;" d="M573 473L574 474L573 473z"/>
<path style="fill:#ee595a; stroke:none;" d="M156 474L157 475L156 474z"/>
<path style="fill:#e54d5c; stroke:none;" d="M246 474L247 475L246 474z"/>
<path style="fill:#dc6b65; stroke:none;" d="M483 474L484 475L483 474z"/>
<path style="fill:#fa7b89; stroke:none;" d="M157 475L158 476L157 475z"/>
<path style="fill:#eb9698; stroke:none;" d="M484 475L485 476L484 475z"/>
<path style="fill:#ffa7b0; stroke:none;" d="M158 476L159 477L158 476z"/>
<path style="fill:#ffc8c9; stroke:none;" d="M485 476L486 477L485 476z"/>
<path style="fill:#f98086; stroke:none;" d="M247.333 477.667C247.278 477.722 247.222 478.778 247.667 478.333C247.722 478.278 247.778 477.222 247.333 477.667z"/>
<path style="fill:#fb656e; stroke:none;" d="M574.333 477.667C574.278 477.722 574.222 478.778 574.667 478.333C574.722 478.278 574.778 477.222 574.333 477.667z"/>
<path style="fill:#fc4664; stroke:none;" d="M161 478L162 479L161 478z"/>
<path style="fill:#f6928d; stroke:none;" d="M162 479L163 480L162 479z"/>
<path style="fill:#f9071f; stroke:none;" d="M163 479C164.223 480.195 164.42 480.316 166 481C164.777 479.805 164.58 479.684 163 479z"/>
<path style="fill:#f24348; stroke:none;" d="M247 479L247 486C248.059 483.466 248.059 481.534 247 479z"/>
<path style="fill:#eb8682; stroke:none;" d="M489 479L490 480L489 479z"/>
<path style="fill:#fa3848; stroke:none;" d="M574.333 479.667C574.278 479.722 574.222 480.778 574.667 480.333C574.722 480.278 574.778 479.222 574.333 479.667z"/>
<path style="fill:#f9b1ae; stroke:none;" d="M163 480L164 481L163 480z"/>
<path style="fill:#fbb4a8; stroke:none;" d="M490 480L491 481L490 480z"/>
<path style="fill:#e13c4c; stroke:none;" d="M165 481L166 482L165 481z"/>
<path style="fill:#e5666b; stroke:none;" d="M166 482L167 483L166 482z"/>
<path style="fill:#ee6974; stroke:none;" d="M493 482L494 483L493 482z"/>
<path style="fill:#e2999a; stroke:none;" d="M167 483L168 484L167 483z"/>
<path style="fill:#ffaea7; stroke:none;" d="M494 483L495 484L494 483z"/>
<path style="fill:#ea6774; stroke:none;" d="M170 485L171 486L170 485z"/>
<path style="fill:#ee5e6f; stroke:none;" d="M497 485L498 486L497 485z"/>
<path style="fill:#df5655; stroke:none;" d="M574.333 485.667C574.278 485.722 574.222 486.778 574.667 486.333C574.722 486.278 574.778 485.222 574.333 485.667z"/>
<path style="fill:#edafa8; stroke:none;" d="M171 486L172 487L171 486z"/>
<path style="fill:#ff837b; stroke:none;" d="M247.333 486.667C247.278 486.722 247.222 487.778 247.667 487.333C247.722 487.278 247.778 486.222 247.333 486.667z"/>
<path style="fill:#fabbb4; stroke:none;" d="M498 486L499 487L498 486z"/>
<path style="fill:#edbbb5; stroke:none;" d="M574.333 487.667C574.278 487.722 574.222 488.778 574.667 488.333C574.722 488.278 574.778 487.222 574.333 487.667z"/>
<path style="fill:#f69a9b; stroke:none;" d="M174 488L175 489L174 488z"/>
<path style="fill:#f67e96; stroke:none;" d="M501 488L502 489L501 488z"/>
<path style="fill:#fcc9c8; stroke:none;" d="M175 489L176 490L175 489z"/>
<path style="fill:#e2646d; stroke:none;" d="M177 490L178 491L177 490z"/>
<path style="fill:#fb0016; stroke:none;" d="M178 490C179.223 491.195 179.42 491.316 181 492C179.777 490.805 179.58 490.684 178 490z"/>
<path style="fill:#f58289; stroke:none;" d="M504 490L505 491L504 490z"/>
<path style="fill:#ffcac4; stroke:none;" d="M178 491L179 492L178 491z"/>
<path style="fill:#ec8086; stroke:none;" d="M246 491L247 492L246 491z"/>
<path style="fill:#f66971; stroke:none;" d="M573 491L574 492L573 491z"/>
<path style="fill:#e46367; stroke:none;" d="M180 492L181 493L180 492z"/>
<path style="fill:#fd6579; stroke:none;" d="M507 492L508 493L507 492z"/>
<path style="fill:#ffccc5; stroke:none;" d="M573 492L574 493L573 492z"/>
<path style="fill:#f4cac5; stroke:none;" d="M181 493L182 494L181 493z"/>
<path style="fill:#ffb8bc; stroke:none;" d="M508 493L509 494L508 493z"/>
<path style="fill:#df585e; stroke:none;" d="M183 494L184 495L183 494z"/>
<path style="fill:#f5a9ac; stroke:none;" d="M245 494L246 495L245 494z"/>
<path style="fill:#e25962; stroke:none;" d="M510 494L511 495L510 494z"/>
<path style="fill:#e59899; stroke:none;" d="M572 494L573 495L572 494z"/>
<path style="fill:#ffbe9e; stroke:none;" d="M184 495L185 496L184 495z"/>
<path style="fill:#fa7786; stroke:none;" d="M186 496L187 497L186 496z"/>
<path style="fill:#ffacb2; stroke:none;" d="M244 496L245 497L244 496z"/>
<path style="fill:#e77c90; stroke:none;" d="M513 496L514 497L513 496z"/>
<path style="fill:#f98794; stroke:none;" d="M571 496L572 497L571 496z"/>
<path style="fill:#fcc4bf; stroke:none;" d="M187 497L188 498L187 497z"/>
<path style="fill:#f48b93; stroke:none;" d="M189 498L190 499L189 498z"/>
<path style="fill:#fd919c; stroke:none;" d="M516 498L517 499L516 498z"/>
<path style="fill:#ea4c61; stroke:none;" d="M191 499L192 500L191 499z"/>
<path style="fill:#ef9298; stroke:none;" d="M242 499L243 500L242 499z"/>
<path style="fill:#f25b67; stroke:none;" d="M518 499L519 500L518 499z"/>
<path style="fill:#ed898b; stroke:none;" d="M569 499L570 500L569 499z"/>
<path style="fill:#fcc3c3; stroke:none;" d="M192 500L193 501L192 500z"/>
<path style="fill:#e25364; stroke:none;" d="M241 500L242 501L241 500z"/>
<path style="fill:#f5bfb8; stroke:none;" d="M519 500L520 501L519 500z"/>
<path style="fill:#f3898a; stroke:none;" d="M194 501L195 502L194 501z"/>
<path style="fill:#f98694; stroke:none;" d="M521 501L522 502L521 501z"/>
<path style="fill:#e9555d; stroke:none;" d="M196 502L197 503L196 502z"/>
<path style="fill:#f16069; stroke:none;" d="M523 502L524 503L523 502z"/>
<path style="fill:#fbc2c8; stroke:none;" d="M524 503L525 504L524 503z"/>
<path style="fill:#ea4252; stroke:none;" d="M525 503L526 504L525 503z"/>
<path style="fill:#f60808; stroke:none;" d="M526 503C527.223 504.195 527.42 504.316 529 505C527.777 503.805 527.58 503.684 526 503z"/>
<path style="fill:#c8b7bd; stroke:none;" d="M199 504L200 505L199 504z"/>
<path style="fill:#ffaeb7; stroke:none;" d="M526 504L527 505L526 504z"/>
<path style="fill:#f9838b; stroke:none;" d="M201 505L202 506L201 505z"/>
<path style="fill:#e86975; stroke:none;" d="M236 505L237 506L236 505z"/>
<path style="fill:#f78498; stroke:none;" d="M528 505L529 506L528 505z"/>
<path style="fill:#e15b6b; stroke:none;" d="M563 505L564 506L563 505z"/>
<path style="fill:#f56470; stroke:none;" d="M203 506L204 507L203 506z"/>
<path style="fill:#fcc0bd; stroke:none;" d="M235 506L236 507L235 506z"/>
<path style="fill:#e25660; stroke:none;" d="M530 506L531 507L530 506z"/>
<path style="fill:#f29fa0; stroke:none;" d="M562 506L563 507L562 506z"/>
<path style="fill:#e4b5ae; stroke:none;" d="M204 507L205 508L204 507z"/>
<path style="fill:#e65a64; stroke:none;" d="M233 507L234 508L233 507z"/>
<path style="fill:#e9586d; stroke:none;" d="M560 507L561 508L560 507z"/>
<path style="fill:#f2a29e; stroke:none;" d="M206 508L207 509L206 508z"/>
<path style="fill:#ff5b63; stroke:none;" d="M231 508L232 509L231 508z"/>
<path style="fill:#ffbccb; stroke:none;" d="M533 508L534 509L533 508z"/>
<path style="fill:#e9606d; stroke:none;" d="M558 508L559 509L558 508z"/>
<path style="fill:#ffaba3; stroke:none;" d="M208 509L209 510L208 509z"/>
<path style="fill:#f45965; stroke:none;" d="M209 509L210 510L209 509z"/>
<path style="fill:#f48e92; stroke:none;" d="M229 509L230 510L229 509z"/>
<path style="fill:#f4cbc4; stroke:none;" d="M535 509L536 510L535 509z"/>
<path style="fill:#fd574f; stroke:none;" d="M536 509L537 510L536 509z"/>
<path style="fill:#ec8185; stroke:none;" d="M556 509L557 510L556 509z"/>
<path style="fill:#fecdc7; stroke:none;" d="M211 510L212 511L211 510z"/>
<path style="fill:#f97579; stroke:none;" d="M212 510L213 511L212 510z"/>
<path style="fill:#ea080e; stroke:none;" d="M214 510C216.89 511.213 219.874 510.998 223 511C220.11 509.787 217.126 510.002 214 510z"/>
<path style="fill:#f74e5a; stroke:none;" d="M225 510L226 511L225 510z"/>
<path style="fill:#f8959b; stroke:none;" d="M226 510L227 511L226 510z"/>
<path style="fill:#fec3d0; stroke:none;" d="M538 510L539 511L538 510z"/>
<path style="fill:#fa7c8b; stroke:none;" d="M539 510L540 511L539 510z"/>
<path style="fill:#e8020b; stroke:none;" d="M542 510C544.613 511.098 547.164 510.993 550 511C547.387 509.902 544.836 510.007 542 510z"/>
<path style="fill:#ee5957; stroke:none;" d="M552 510L553 511L552 510z"/>
<path style="fill:#fe928e; stroke:none;" d="M553 510L554 511L553 510z"/>
<path style="fill:#ffcfd5; stroke:none;" d="M216 511C218.332 511.985 220.457 511.981 223 512C220.668 511.015 218.543 511.019 216 511z"/>
<path style="fill:#ffd4d7; stroke:none;" d="M543 511C545.331 511.984 547.457 511.981 550 512C547.668 511.015 545.543 511.019 543 511z"/>
</svg>
