<?xml version="1.0" standalone="yes"?>
<svg xmlns="http://www.w3.org/2000/svg" width="720" height="720">
<path style="fill:#f1c9ba; stroke:none;" d="M178.667 53.3333C178.222 53.7778 179.278 53.7223 179.333 53.6667C179.778 53.222 178.722 53.2778 178.667 53.3333z"/>
<path style="fill:#ea7876; stroke:none;" d="M180 53C181.506 53.683 182.315 53.8259 184 54C182.494 53.3169 181.685 53.1741 180 53z"/>
<path style="fill:#fc4d54; stroke:none;" d="M184 53C185.769 53.7789 187.036 53.9124 189 54C187.231 53.2211 185.964 53.0876 184 53z"/>
<path style="fill:#eb1c24; stroke:none;" d="M104 83C104.598 84.1955 104.466 83.9774 106 85C97.2902 87.6581 91.1587 94.2545 85.2894 101C73.4881 114.563 64.1413 129.771 58.5733 146.83C54.9599 157.901 51.2931 168.244 50.1698 180C44.1571 242.927 77.3663 301.547 135 327.769C157.977 338.223 185.972 342.004 211 338.421C217.478 337.493 229.675 337.373 234 332C237.744 332.331 240.522 331.33 244 330C238.717 348.756 233.521 366.475 224.753 384C221.631 390.24 213.571 399.026 216 406C206.444 407.969 199.456 422.207 192.961 429C184.178 438.185 174.625 447.36 164.91 455.517C161.235 458.603 156.527 459.587 153.105 463.059C144.53 471.759 143.063 486.417 148.905 497C155.571 509.075 171.197 513.04 184 509.2C188.598 507.821 192.899 504.828 197 502.397C201.929 499.474 209.111 496.737 211 491C222.712 489.728 234.398 476.647 243 469.271C270.481 445.707 294.024 415.362 310.247 383C319.575 364.391 327.473 345.107 332.989 325C338.538 304.776 340.618 284.725 342.184 264C344.458 233.905 342.535 204.022 334.92 174.714C327.771 147.201 318.221 121.544 298.829 100C287.272 87.1591 273.086 77.1057 258 68.8642C247.024 62.8682 234.224 58.8599 222 56.3997C204.341 52.8455 185.813 52.7897 168 55.4275C153.558 57.5661 138.924 62.5385 126 69.3203C118.299 73.3612 111.512 78.7209 104 83z"/>
<path style="fill:#ec0016; stroke:none;" d="M190 53C191.769 53.7789 193.036 53.9124 195 54C193.231 53.2211 191.964 53.0876 190 53z"/>
<path style="fill:#e44f4f; stroke:none;" d="M196 53C197.769 53.7789 199.036 53.9124 201 54C199.231 53.2211 197.964 53.0876 196 53z"/>
<path style="fill:#f77d81; stroke:none;" d="M201 53C202.248 53.6848 202.548 53.7488 204 54C202.752 53.3151 202.452 53.2512 201 53z"/>
<path style="fill:#fbc8c3; stroke:none;" d="M204.667 53.3333C204.222 53.7777 205.278 53.7223 205.333 53.6667C205.778 53.222 204.722 53.2778 204.667 53.3333z"/>
<path style="fill:#ffe7dc; stroke:none;" d="M206.667 53.3333C206.222 53.7778 207.278 53.7223 207.333 53.6667C207.778 53.222 206.722 53.2778 206.667 53.3333z"/>
<path style="fill:#ffded5; stroke:none;" d="M504 53C505.248 53.6848 505.548 53.7488 507 54C505.752 53.3152 505.452 53.2512 504 53z"/>
<path style="fill:#f49192; stroke:none;" d="M507 53C508.248 53.6848 508.548 53.7488 510 54C508.752 53.3152 508.452 53.2512 507 53z"/>
<path style="fill:#e94c4f; stroke:none;" d="M510 53C512.052 53.8743 513.747 53.9528 516 54C513.948 53.1257 512.253 53.0472 510 53z"/>
<path style="fill:#eb1c24; stroke:none;" d="M571 330C564.666 352.53 558.5 373.656 546.396 394C543.568 398.752 539.227 410.324 534 412C526.068 423.992 515.071 435.257 504 444.385C488.376 457.267 468 467.072 473.529 491C474.472 495.08 476.877 498.471 479 502L483 501C483.211 503.739 483.303 504.422 486 505C486.438 508.205 493.598 511.909 496 509C507.634 512.446 516.259 507.033 526 501.2C545.212 489.695 564.432 476.231 579.978 460.001C582.587 457.276 584.195 453.77 586.794 451.129C588.519 449.376 590.886 448.481 592.59 446.701C595.308 443.861 596.011 440.243 600 439C616.606 416.966 632.12 395.205 643.691 370C674.191 303.568 678.621 225.657 656.974 156C649.191 130.954 635.579 107.845 616 90.1697C611.995 86.5541 607.508 84.4285 603.259 81.3171C600.651 79.4072 598.745 76.8492 595.982 75.0656C546.152 42.9024 477.296 47.3923 431 83.662C424.822 88.5021 418.124 93.743 413.313 100C411.318 102.595 410.443 105.777 408.447 108.381C404.024 114.15 399.052 118.627 395.204 125C361.303 181.143 374.769 259.421 423 302.829C462.543 338.419 521.495 349.097 571 330z"/>
<path style="fill:#ec0016; stroke:none;" d="M517 53C518.769 53.7789 520.036 53.9124 522 54C520.231 53.221 518.964 53.0876 517 53z"/>
<path style="fill:#e4484b; stroke:none;" d="M523 53C524.769 53.779 526.036 53.9124 528 54C526.231 53.221 524.964 53.0876 523 53z"/>
<path style="fill:#eb8281; stroke:none;" d="M528 53C529.248 53.6848 529.548 53.7488 531 54C529.752 53.3152 529.451 53.2512 528 53z"/>
<path style="fill:#f1c9ba; stroke:none;" d="M531.667 53.3333C531.222 53.7778 532.278 53.7222 532.333 53.6667C532.778 53.222 531.722 53.2778 531.667 53.3333z"/>
<path style="fill:#ec8588; stroke:none;" d="M171.667 54.3333C171.222 54.7778 172.278 54.7223 172.333 54.6667C172.778 54.222 171.722 54.2778 171.667 54.3333z"/>
<path style="fill:#e13c3a; stroke:none;" d="M173 54C174.248 54.6848 174.548 54.7488 176 55C174.752 54.3151 174.452 54.2512 173 54z"/>
<path style="fill:#ef8794; stroke:none;" d="M211 54C212.248 54.6848 212.548 54.7488 214 55C212.752 54.3151 212.452 54.2512 211 54z"/>
<path style="fill:#f08a9a; stroke:none;" d="M498 54C499.248 54.6848 499.548 54.7488 501 55C499.752 54.3152 499.452 54.2512 498 54z"/>
<path style="fill:#ec8688; stroke:none;" d="M538.667 54.3333C538.222 54.7778 539.278 54.7222 539.333 54.6667C539.778 54.2221 538.722 54.2776 538.667 54.3333z"/>
<path style="fill:#f1e1e1; stroke:none;" d="M540.667 54.3333C540.222 54.7778 541.278 54.7222 541.333 54.6667C541.778 54.2221 540.722 54.2776 540.667 54.3333z"/>
<path style="fill:#fdbec3; stroke:none;" d="M165 55L166 56L165 55z"/>
<path style="fill:#e95365; stroke:none;" d="M166.667 55.3333C166.222 55.7778 167.278 55.7222 167.333 55.6667C167.778 55.222 166.722 55.2778 166.667 55.3333z"/>
<path style="fill:#ef4855; stroke:none;" d="M217 55L218 56L217 55z"/>
<path style="fill:#f5848c; stroke:none;" d="M218 55L219 56L218 55z"/>
<path style="fill:#fcc3c7; stroke:none;" d="M492 55L493 56L492 55z"/>
<path style="fill:#f5848c; stroke:none;" d="M493 55L494 56L493 55z"/>
<path style="fill:#f37c8c; stroke:none;" d="M544.667 55.3333C544.222 55.7779 545.278 55.7222 545.333 55.6667C545.778 55.2221 544.722 55.2776 544.667 55.3333z"/>
<path style="fill:#fbbac2; stroke:none;" d="M546 55L547 56L546 55z"/>
<path style="fill:#f78f89; stroke:none;" d="M160.667 56.3333C160.222 56.7777 161.278 56.7222 161.333 56.6667C161.778 56.2221 160.722 56.2777 160.667 56.3333z"/>
<path style="fill:#fa8273; stroke:none;" d="M222.667 56.3333C222.222 56.7777 223.278 56.7222 223.333 56.6667C223.778 56.222 222.722 56.2777 222.667 56.3333z"/>
<path style="fill:#ea504d; stroke:none;" d="M488.667 56.3333C488.222 56.7779 489.278 56.7222 489.333 56.6667C489.778 56.2223 488.722 56.2776 488.667 56.3333z"/>
<path style="fill:#ffc0b1; stroke:none;" d="M550.667 56.3333C550.222 56.7778 551.278 56.7222 551.333 56.6667C551.778 56.222 550.722 56.2778 550.667 56.3333z"/>
<path style="fill:#fbcacb; stroke:none;" d="M156 57L157 58L156 57z"/>
<path style="fill:#f27d7f; stroke:none;" d="M157 57L158 58L157 57z"/>
<path style="fill:#f5707d; stroke:none;" d="M227 57L228 58L227 57z"/>
<path style="fill:#f7cac6; stroke:none;" d="M228 57L229 58L228 57z"/>
<path style="fill:#f6c9c5; stroke:none;" d="M483 57L484 58L483 57z"/>
<path style="fill:#f5707d; stroke:none;" d="M484 57L485 58L484 57z"/>
<path style="fill:#f27d7f; stroke:none;" d="M554 57L555 58L554 57z"/>
<path style="fill:#f693a1; stroke:none;" d="M153 58L154 59L153 58z"/>
<path style="fill:#ed4959; stroke:none;" d="M230 58L231 59L230 58z"/>
<path style="fill:#f68f89; stroke:none;" d="M231 58L232 59L231 58M480 58L481 59L480 58z"/>
<path style="fill:#ed4959; stroke:none;" d="M481 58L482 59L481 58z"/>
<path style="fill:#f693a1; stroke:none;" d="M558 58L559 59L558 58z"/>
<path style="fill:#f3d5c0; stroke:none;" d="M149 59L150 60L149 59z"/>
<path style="fill:#f16364; stroke:none;" d="M150 59L151 60L150 59z"/>
<path style="fill:#e06d75; stroke:none;" d="M234 59L235 60L234 59z"/>
<path style="fill:#df6c74; stroke:none;" d="M477 59L478 60L477 59z"/>
<path style="fill:#f16364; stroke:none;" d="M561 59L562 60L561 59z"/>
<path style="fill:#f3d5c0; stroke:none;" d="M562 59L563 60L562 59z"/>
<path style="fill:#ea6266; stroke:none;" d="M147 60L148 61L147 60z"/>
<path style="fill:#f0636f; stroke:none;" d="M237 60L238 61L237 60z"/>
<path style="fill:#f9c7d0; stroke:none;" d="M238 60L239 61L238 60z"/>
<path style="fill:#f8c6ce; stroke:none;" d="M473 60L474 61L473 60z"/>
<path style="fill:#f0636f; stroke:none;" d="M474 60L475 61L474 60z"/>
<path style="fill:#ea6266; stroke:none;" d="M564 60L565 61L564 60z"/>
<path style="fill:#e8ccc4; stroke:none;" d="M143 61L144 62L143 61z"/>
<path style="fill:#f16a65; stroke:none;" d="M144 61L145 62L144 61z"/>
<path style="fill:#f76e70; stroke:none;" d="M240 61L241 62L240 61z"/>
<path style="fill:#ffcbbe; stroke:none;" d="M241 61L242 62L241 61z"/>
<path style="fill:#ffcec2; stroke:none;" d="M470 61L471 62L470 61z"/>
<path style="fill:#f07573; stroke:none;" d="M471 61L472 62L471 61z"/>
<path style="fill:#f16a65; stroke:none;" d="M567 61L568 62L567 61z"/>
<path style="fill:#e8ccc4; stroke:none;" d="M568 61L569 62L568 61z"/>
<path style="fill:#fe7b85; stroke:none;" d="M141 62L142 63L141 62z"/>
<path style="fill:#f8979a; stroke:none;" d="M243 62L244 63L243 62z"/>
<path style="fill:#fd9098; stroke:none;" d="M468 62L469 63L468 62z"/>
<path style="fill:#fe7b85; stroke:none;" d="M570 62L571 63L570 62z"/>
<path style="fill:#fbafb9; stroke:none;" d="M138 63L139 64L138 63z"/>
<path style="fill:#f05566; stroke:none;" d="M245 63L246 64L245 63z"/>
<path style="fill:#efb4c5; stroke:none;" d="M465 63L466 64L465 63z"/>
<path style="fill:#ea4659; stroke:none;" d="M466 63L467 64L466 63z"/>
<path style="fill:#fbafb9; stroke:none;" d="M573 63L574 64L573 63z"/>
<path style="fill:#ff6562; stroke:none;" d="M136 64L137 65L136 64z"/>
<path style="fill:#f18d9e; stroke:none;" d="M248 64L249 65L248 64z"/>
<path style="fill:#e19186; stroke:none;" d="M463 64L464 65L463 64z"/>
<path style="fill:#ff7576; stroke:none;" d="M575 64L576 65L575 64z"/>
<path style="fill:#ef6363; stroke:none;" d="M134 65L135 66L134 65z"/>
<path style="fill:#ed6f7a; stroke:none;" d="M250 65L251 66L250 65z"/>
<path style="fill:#f0636b; stroke:none;" d="M461 65L462 66L461 65z"/>
<path style="fill:#ec6463; stroke:none;" d="M577 65L578 66L577 65z"/>
<path style="fill:#ffc0c7; stroke:none;" d="M131 66L132 67L131 66z"/>
<path style="fill:#fb425f; stroke:none;" d="M132 66L133 67L132 66z"/>
<path style="fill:#f34f65; stroke:none;" d="M579 66L580 67L579 66z"/>
<path style="fill:#ffadb4; stroke:none;" d="M129 67L130 68L129 67z"/>
<path style="fill:#f8a9a0; stroke:none;" d="M456 67L457 68L456 67z"/>
<path style="fill:#ffb4b8; stroke:none;" d="M582 67L583 68L582 67z"/>
<path style="fill:#fca7b8; stroke:none;" d="M127 68L128 69L127 68z"/>
<path style="fill:#ffc8c6; stroke:none;" d="M257 68L258 69L257 68z"/>
<path style="fill:#f8b2b2; stroke:none;" d="M454 68L455 69L454 68z"/>
<path style="fill:#e9b2b8; stroke:none;" d="M584 68L585 69L584 68z"/>
<path style="fill:#fab2ae; stroke:none;" d="M125 69L126 70L125 69z"/>
<path style="fill:#ffc8cf; stroke:none;" d="M259 69L260 70L259 69z"/>
<path style="fill:#febfbb; stroke:none;" d="M452 69L453 70L452 69z"/>
<path style="fill:#eec8b9; stroke:none;" d="M586 69L587 70L586 69z"/>
<path style="fill:#fbcfc5; stroke:none;" d="M123 70L124 71L123 70z"/>
<path style="fill:#ed4a5a; stroke:none;" d="M260 70L261 71L260 70z"/>
<path style="fill:#ffc5d2; stroke:none;" d="M450 70L451 71L450 70z"/>
<path style="fill:#f2455f; stroke:none;" d="M451 70L452 71L451 70z"/>
<path style="fill:#fb4563; stroke:none;" d="M587 70L588 71L587 70z"/>
<path style="fill:#e5435b; stroke:none;" d="M122 71L123 72L122 71z"/>
<path style="fill:#dc6e75; stroke:none;" d="M262 71L263 72L262 71z"/>
<path style="fill:#ef667f; stroke:none;" d="M449 71L450 72L449 71z"/>
<path style="fill:#f76a74; stroke:none;" d="M589 71L590 72L589 71z"/>
<path style="fill:#ff645a; stroke:none;" d="M120 72L121 73L120 72z"/>
<path style="fill:#eb929e; stroke:none;" d="M264 72L265 73L264 72z"/>
<path style="fill:#df969c; stroke:none;" d="M447 72L448 73L447 72z"/>
<path style="fill:#ff7971; stroke:none;" d="M591 72L592 73L591 72z"/>
<path style="fill:#f69c9f; stroke:none;" d="M118 73L119 74L118 73z"/>
<path style="fill:#ffbbc0; stroke:none;" d="M266 73L267 74L266 73z"/>
<path style="fill:#f4b0b3; stroke:none;" d="M445 73L446 74L445 73z"/>
<path style="fill:#ffb9bb; stroke:none;" d="M593 73L594 74L593 73z"/>
<path style="fill:#e65567; stroke:none;" d="M267 74L268 75L267 74z"/>
<path style="fill:#e8465e; stroke:none;" d="M444 74L445 75L444 74z"/>
<path style="fill:#ff8490; stroke:none;" d="M115 75L116 76L115 75z"/>
<path style="fill:#eb9c98; stroke:none;" d="M269 75L270 76L269 75z"/>
<path style="fill:#ee9091; stroke:none;" d="M442 75L443 76L442 75z"/>
<path style="fill:#ff919f; stroke:none;" d="M596 75L597 76L596 75z"/>
<path style="fill:#f3c7c2; stroke:none;" d="M113 76L114 77L113 76z"/>
<path style="fill:#ff8284; stroke:none;" d="M112 77L113 78L112 77z"/>
<path style="fill:#f68ca2; stroke:none;" d="M272 77L273 78L272 77z"/>
<path style="fill:#f08397; stroke:none;" d="M439 77L440 78L439 77z"/>
<path style="fill:#fd9591; stroke:none;" d="M599 77L600 78L599 77z"/>
<path style="fill:#f46f7e; stroke:none;" d="M109 79L110 80L109 79z"/>
<path style="fill:#e99bab; stroke:none;" d="M275 79L276 80L275 79z"/>
<path style="fill:#ed929f; stroke:none;" d="M436 79L437 80L436 79z"/>
<path style="fill:#ed0f12; stroke:none;" d="M601 79C602.382 81.4203 603.363 82.061 606 83C604.41 81.2478 603.046 80.2064 601 79z"/>
<path style="fill:#f39099; stroke:none;" d="M602 79L603 80L602 79z"/>
<path style="fill:#d84551; stroke:none;" d="M108 80L109 81L108 80z"/>
<path style="fill:#ea635e; stroke:none;" d="M276 80L277 81L276 80z"/>
<path style="fill:#e6504d; stroke:none;" d="M435 80L436 81L435 80z"/>
<path style="fill:#df4959; stroke:none;" d="M603 80L604 81L603 80z"/>
<path style="fill:#ffaeab; stroke:none;" d="M106 81L107 82L106 81z"/>
<path style="fill:#ffbfc4; stroke:none;" d="M433 81L434 82L433 81z"/>
<path style="fill:#e95b70; stroke:none;" d="M105 82L106 83L105 82z"/>
<path style="fill:#fa9588; stroke:none;" d="M279 82L280 83L279 82z"/>
<path style="fill:#f98277; stroke:none;" d="M432 82L433 83L432 82z"/>
<path style="fill:#e97c85; stroke:none;" d="M606 82L607 83L606 82z"/>
<path style="fill:#eb5872; stroke:none;" d="M280 83L281 84L280 83z"/>
<path style="fill:#e53e58; stroke:none;" d="M431 83L432 84L431 83z"/>
<path style="fill:#e30b0d; stroke:none;" d="M102 85C103.809 85.5743 104.069 85.4654 106 85C104.191 84.4257 103.931 84.5346 102 85z"/>
<path style="fill:#ffadae; stroke:none;" d="M101 85L102 86L101 85z"/>
<path style="fill:#f8aead; stroke:none;" d="M428 85L429 86L428 85z"/>
<path style="fill:#fab2b1; stroke:none;" d="M610 85L611 86L610 85z"/>
<path style="fill:#e46e70; stroke:none;" d="M100 86L101 87L100 86z"/>
<path style="fill:#fc979b; stroke:none;" d="M284 86L285 87L284 86z"/>
<path style="fill:#f76a7a; stroke:none;" d="M427 86L428 87L427 86z"/>
<path style="fill:#f37e83; stroke:none;" d="M611 86L612 87L611 86z"/>
<path style="fill:#e83c58; stroke:none;" d="M99 87L100 88L99 87z"/>
<path style="fill:#e97975; stroke:none;" d="M285 87L286 88L285 87z"/>
<path style="fill:#d8615b; stroke:none;" d="M426 87L427 88L426 87z"/>
<path style="fill:#f77383; stroke:none;" d="M612 87L613 88L612 87z"/>
<path style="fill:#dd4b4b; stroke:none;" d="M425 88L426 89L425 88z"/>
<path style="fill:#ee4857; stroke:none;" d="M287 89L288 90L287 89z"/>
<path style="fill:#fabbb4; stroke:none;" d="M94 91L95 92L94 91z"/>
<path style="fill:#fbabae; stroke:none;" d="M93 92L94 93L93 92z"/>
<path style="fill:#eebfb9; stroke:none;" d="M420 92L421 93L420 92z"/>
<path style="fill:#f7c3c3; stroke:none;" d="M618 92L619 93L618 92z"/>
<path style="fill:#ecb2a0; stroke:none;" d="M92 93L93 94L92 93z"/>
<path style="fill:#e3b1ab; stroke:none;" d="M292 93L293 94L292 93z"/>
<path style="fill:#f0b4ac; stroke:none;" d="M419 93L420 94L419 93z"/>
<path style="fill:#f7aeaf; stroke:none;" d="M619 93L620 94L619 93z"/>
<path style="fill:#ffa6ab; stroke:none;" d="M91 94L92 95L91 94z"/>
<path style="fill:#ebabad; stroke:none;" d="M293 94L294 95L293 94z"/>
<path style="fill:#f5abad; stroke:none;" d="M418 94L419 95L418 94z"/>
<path style="fill:#ff9ead; stroke:none;" d="M620 94L621 95L620 94z"/>
<path style="fill:#f79298; stroke:none;" d="M90 95L91 96L90 95z"/>
<path style="fill:#ffa0b4; stroke:none;" d="M294 95L295 96L294 95z"/>
<path style="fill:#ffa7af; stroke:none;" d="M417 95L418 96L417 95z"/>
<path style="fill:#ffa5a4; stroke:none;" d="M621 95L622 96L621 95z"/>
<path style="fill:#ffa5ac; stroke:none;" d="M89 96L90 97L89 96z"/>
<path style="fill:#ffa58e; stroke:none;" d="M295 96L296 97L295 96z"/>
<path style="fill:#ffa98f; stroke:none;" d="M416 96L417 97L416 96z"/>
<path style="fill:#ffa5ac; stroke:none;" d="M622 96L623 97L622 96z"/>
<path style="fill:#ffaab1; stroke:none;" d="M88 97L89 98L88 97z"/>
<path style="fill:#fa9da8; stroke:none;" d="M415 97L416 98L415 97z"/>
<path style="fill:#ffa4ac; stroke:none;" d="M623 97L624 98L623 97z"/>
<path style="fill:#f1ada0; stroke:none;" d="M87 98L88 99L87 98z"/>
<path style="fill:#e74761; stroke:none;" d="M83 103L84 104L83 103z"/>
<path style="fill:#ef6474; stroke:none;" d="M301 103L302 104L301 103z"/>
<path style="fill:#e85a62; stroke:none;" d="M410 103L411 104L410 103z"/>
<path style="fill:#f85b73; stroke:none;" d="M628 103L629 104L628 103z"/>
<path style="fill:#f16f6a; stroke:none;" d="M82 104L83 105L82 104z"/>
<path style="fill:#f07988; stroke:none;" d="M302 104L303 105L302 104z"/>
<path style="fill:#f26576; stroke:none;" d="M409 104L410 105L409 104z"/>
<path style="fill:#f30d1d; stroke:none;" d="M410 104C407.535 106.858 405.471 109.521 404 113C407.135 111.072 410.895 107.939 410 104z"/>
<path style="fill:#e18a76; stroke:none;" d="M629 104L630 105L629 104z"/>
<path style="fill:#ffacb9; stroke:none;" d="M81 105L82 106L81 105z"/>
<path style="fill:#ffabaf; stroke:none;" d="M303 105L304 106L303 105z"/>
<path style="fill:#ef9594; stroke:none;" d="M408 105L409 106L408 105z"/>
<path style="fill:#faa8ae; stroke:none;" d="M630 105L631 106L630 105z"/>
<path style="fill:#f04767; stroke:none;" d="M79 108L80 109L79 108z"/>
<path style="fill:#ec5d6c; stroke:none;" d="M305 108L306 109L305 108z"/>
<path style="fill:#d04a55; stroke:none;" d="M406 108L407 109L406 108z"/>
<path style="fill:#eb5869; stroke:none;" d="M632 108L633 109L632 108z"/>
<path style="fill:#f7767f; stroke:none;" d="M78 109L79 110L78 109z"/>
<path style="fill:#f78c91; stroke:none;" d="M306 109L307 110L306 109z"/>
<path style="fill:#f7838a; stroke:none;" d="M405 109L406 110L405 109z"/>
<path style="fill:#f78189; stroke:none;" d="M633 109L634 110L633 109z"/>
<path style="fill:#f2beb5; stroke:none;" d="M77 110L78 111L77 110z"/>
<path style="fill:#fdc8ba; stroke:none;" d="M404 110L405 111L404 110z"/>
<path style="fill:#ecbeb6; stroke:none;" d="M634 110L635 111L634 110z"/>
<path style="fill:#ff6c69; stroke:none;" d="M308 112L309 113L308 112z"/>
<path style="fill:#ff3e4f; stroke:none;" d="M403 112L404 113L403 112z"/>
<path style="fill:#e94c57; stroke:none;" d="M635 112L636 113L635 112z"/>
<path style="fill:#f37b8a; stroke:none;" d="M75 113L76 114L75 113z"/>
<path style="fill:#fd9da7; stroke:none;" d="M309 113L310 114L309 113z"/>
<path style="fill:#f38493; stroke:none;" d="M402 113L403 114L402 113z"/>
<path style="fill:#f28e97; stroke:none;" d="M636 113L637 114L636 113z"/>
<path style="fill:#ec404f; stroke:none;" d="M401 115L402 116L401 115z"/>
<path style="fill:#f83d53; stroke:none;" d="M637 115L638 116L637 115z"/>
<path style="fill:#ef7179; stroke:none;" d="M73 116L74 117L73 116z"/>
<path style="fill:#f98c98; stroke:none;" d="M311 116L312 117L311 116z"/>
<path style="fill:#ef8a98; stroke:none;" d="M400 116L401 117L400 116z"/>
<path style="fill:#ef727c; stroke:none;" d="M638 116L639 117L638 116z"/>
<path style="fill:#ffc1c3; stroke:none;" d="M72 117L73 118L72 117z"/>
<path style="fill:#f3cec7; stroke:none;" d="M312 117L313 118L312 117z"/>
<path style="fill:#fac8c9; stroke:none;" d="M639 117L640 118L639 117z"/>
<path style="fill:#e04858; stroke:none;" d="M312 118L313 119L312 118z"/>
<path style="fill:#d93f4d; stroke:none;" d="M399 118L400 119L399 118z"/>
<path style="fill:#d694a6; stroke:none;" d="M71 119L72 120L71 119z"/>
<path style="fill:#e2a69f; stroke:none;" d="M313 119L314 120L313 119z"/>
<path style="fill:#da9890; stroke:none;" d="M398 119L399 120L398 119z"/>
<path style="fill:#bdadac; stroke:none;" d="M640 119L641 120L640 119z"/>
<path style="fill:#dd4756; stroke:none;" d="M70 121L71 122L70 121z"/>
<path style="fill:#f46c7d; stroke:none;" d="M314 121L315 122L314 121z"/>
<path style="fill:#ec5369; stroke:none;" d="M397 121L398 122L397 121z"/>
<path style="fill:#ed4f63; stroke:none;" d="M641 121L642 122L641 121z"/>
<path style="fill:#fda2a8; stroke:none;" d="M69 122L70 123L69 122z"/>
<path style="fill:#fbbbbc; stroke:none;" d="M315 122L316 123L315 122z"/>
<path style="fill:#f7b7bd; stroke:none;" d="M396 122L397 123L396 122z"/>
<path style="fill:#fdb4b2; stroke:none;" d="M642 122L643 123L642 122z"/>
<path style="fill:#fb8087; stroke:none;" d="M68 124L69 125L68 124z"/>
<path style="fill:#f794a0; stroke:none;" d="M316 124L317 125L316 124z"/>
<path style="fill:#f38c90; stroke:none;" d="M395 124L396 125L395 124z"/>
<path style="fill:#f28a89; stroke:none;" d="M643 124L644 125L643 124z"/>
<path style="fill:#e04b55; stroke:none;" d="M67 126L68 127L67 126z"/>
<path style="fill:#f26f76; stroke:none;" d="M317 126L318 127L317 126z"/>
<path style="fill:#fc596b; stroke:none;" d="M394 126L395 127L394 126z"/>
<path style="fill:#ee5966; stroke:none;" d="M644 126L645 127L644 126z"/>
<path style="fill:#f4cec7; stroke:none;" d="M393 127L394 128L393 127z"/>
<path style="fill:#f0a2a6; stroke:none;" d="M65 129L66 130L65 129z"/>
<path style="fill:#ffc7bd; stroke:none;" d="M319 129L320 130L319 129z"/>
<path style="fill:#efb4aa; stroke:none;" d="M392 129L393 130L392 129z"/>
<path style="fill:#ffc6c2; stroke:none;" d="M646 129L647 130L646 129z"/>
<path style="fill:#ec5053; stroke:none;" d="M319 130L320 131L319 130z"/>
<path style="fill:#f7b0a3; stroke:none;" d="M64 131L65 132L64 131z"/>
<path style="fill:#f8b1b8; stroke:none;" d="M391 131L392 132L391 131z"/>
<path style="fill:#feb3a7; stroke:none;" d="M647 131L648 132L647 131z"/>
<path style="fill:#ee4d65; stroke:none;" d="M320 132L321 133L320 132z"/>
<path style="fill:#efb5b5; stroke:none;" d="M63 133L64 134L63 133z"/>
<path style="fill:#fdb3ac; stroke:none;" d="M390 133L391 134L390 133z"/>
<path style="fill:#f7b4ba; stroke:none;" d="M648 133L649 134L648 133z"/>
<path style="fill:#f35564; stroke:none;" d="M321 134L322 135L321 134z"/>
<path style="fill:#ec4b5e; stroke:none;" d="M648 134L649 135L648 134z"/>
<path style="fill:#ecb6ac; stroke:none;" d="M62 135L63 136L62 135z"/>
<path style="fill:#ff4d64; stroke:none;" d="M322 136L323 137L322 136z"/>
<path style="fill:#f4babb; stroke:none;" d="M61 137L62 138L61 137z"/>
<path style="fill:#ef707a; stroke:none;" d="M323 138L324 139L323 138z"/>
<path style="fill:#ec6a73; stroke:none;" d="M388 138L389 139L388 138z"/>
<path style="fill:#f36378; stroke:none;" d="M650 138L651 139L650 138z"/>
<path style="fill:#e96f73; stroke:none;" d="M60 140L61 141L60 140z"/>
<path style="fill:#f499ac; stroke:none;" d="M324 140L325 141L324 140z"/>
<path style="fill:#ea8798; stroke:none;" d="M387 140L388 141L387 140z"/>
<path style="fill:#e89aa1; stroke:none;" d="M651 140L652 141L651 140z"/>
<path style="fill:#ffaeb1; stroke:none;" d="M59 142L60 143L59 142z"/>
<path style="fill:#f4b5ae; stroke:none;" d="M386 142L387 143L386 142z"/>
<path style="fill:#ffc6bc; stroke:none;" d="M652 142L653 143L652 142z"/>
<path style="fill:#e85f71; stroke:none;" d="M325 143L326 144L325 143z"/>
<path style="fill:#dc4d57; stroke:none;" d="M386 143L387 144L386 143z"/>
<path style="fill:#e45c63; stroke:none;" d="M652 143L653 144L652 143z"/>
<path style="fill:#e6737c; stroke:none;" d="M58 145L59 146L58 145z"/>
<path style="fill:#f19a97; stroke:none;" d="M326 145L327 146L326 145z"/>
<path style="fill:#f78b97; stroke:none;" d="M385 145L386 146L385 145z"/>
<path style="fill:#f38d9a; stroke:none;" d="M653 145L654 146L653 145z"/>
<path style="fill:#ff0016; stroke:none;" d="M58 146L58 149C58.6961 147.446 58.6961 147.554 58 146z"/>
<path style="fill:#f3c2c0; stroke:none;" d="M57 147L58 148L57 147z"/>
<path style="fill:#ffd1c2; stroke:none;" d="M384 147L385 148L384 147z"/>
<path style="fill:#e1515c; stroke:none;" d="M57 148L58 149L57 148z"/>
<path style="fill:#f88082; stroke:none;" d="M327 148L328 149L327 148z"/>
<path style="fill:#fe686a; stroke:none;" d="M384 148L385 149L384 148z"/>
<path style="fill:#eb6d73; stroke:none;" d="M654 148L655 149L654 148z"/>
<path style="fill:#ffb5b2; stroke:none;" d="M56 150L57 151L56 150z"/>
<path style="fill:#fcc0cd; stroke:none;" d="M383 150L384 151L383 150z"/>
<path style="fill:#ffc3c4; stroke:none;" d="M655 150L656 151L655 150z"/>
<path style="fill:#e75962; stroke:none;" d="M56 151L57 152L56 151z"/>
<path style="fill:#dc899f; stroke:none;" d="M328 151L329 152L328 151z"/>
<path style="fill:#e47192; stroke:none;" d="M383 151L384 152L383 151z"/>
<path style="fill:#eb707b; stroke:none;" d="M655 151L656 152L655 151z"/>
<path style="fill:#f5b6b3; stroke:none;" d="M55 153L56 154L55 153z"/>
<path style="fill:#f9c6c8; stroke:none;" d="M382 153L383 154L382 153z"/>
<path style="fill:#ea5465; stroke:none;" d="M55 154L56 155L55 154z"/>
<path style="fill:#f17987; stroke:none;" d="M329 154L330 155L329 154z"/>
<path style="fill:#ec6872; stroke:none;" d="M382 154L383 155L382 154z"/>
<path style="fill:#e8656f; stroke:none;" d="M656 154L657 155L656 154z"/>
<path style="fill:#e5cebf; stroke:none;" d="M54 156L55 157L54 156z"/>
<path style="fill:#de767c; stroke:none;" d="M54 157L55 158L54 157z"/>
<path style="fill:#eb8d8f; stroke:none;" d="M330 157L331 158L330 157z"/>
<path style="fill:#f0989b; stroke:none;" d="M381 157L382 158L381 157z"/>
<path style="fill:#dc8588; stroke:none;" d="M657 157L658 158L657 157z"/>
<path style="fill:#f96a73; stroke:none;" d="M53.3333 160.667C53.2779 160.722 53.2222 161.778 53.6667 161.333C53.7224 161.278 53.7777 160.222 53.3333 160.667z"/>
<path style="fill:#fe939b; stroke:none;" d="M331 160L332 161L331 160z"/>
<path style="fill:#ffb8b7; stroke:none;" d="M380 160L381 161L380 160z"/>
<path style="fill:#ff9195; stroke:none;" d="M658 160L659 161L658 160z"/>
<path style="fill:#f04b64; stroke:none;" d="M331 161L332 162L331 161z"/>
<path style="fill:#ef7f89; stroke:none;" d="M380 161L381 162L380 161z"/>
<path style="fill:#ef5160; stroke:none;" d="M658 161L659 162L658 161z"/>
<path style="fill:#ffc4c6; stroke:none;" d="M332 163L333 164L332 163z"/>
<path style="fill:#f9b7b6; stroke:none;" d="M659 163L660 164L659 163z"/>
<path style="fill:#f6c0b6; stroke:none;" d="M52 164L53 165L52 164z"/>
<path style="fill:#fa6977; stroke:none;" d="M332 164L333 165L332 164z"/>
<path style="fill:#f05b65; stroke:none;" d="M659 164L660 165L659 164z"/>
<path style="fill:#ef777a; stroke:none;" d="M52 165L53 166L52 165z"/>
<path style="fill:#ee8c8a; stroke:none;" d="M379 165L380 166L379 165z"/>
<path style="fill:#e79ca3; stroke:none;" d="M333 167L334 168L333 167z"/>
<path style="fill:#ffa8b7; stroke:none;" d="M660 167L661 168L660 167z"/>
<path style="fill:#efadab; stroke:none;" d="M51 168L51 171C51.6961 169.446 51.6961 169.554 51 168z"/>
<path style="fill:#e82332; stroke:none;" d="M381 168C379.913 172.553 379.368 177.334 379 182C381.223 178.29 382.472 172.105 381 168z"/>
<path style="fill:#f4888f; stroke:none;" d="M378 170L379 171L378 170z"/>
<path style="fill:#f58e95; stroke:none;" d="M334 171L335 172L334 171z"/>
<path style="fill:#ed8086; stroke:none;" d="M661 171L662 172L661 171z"/>
<path style="fill:#ed0102; stroke:none;" d="M334 173L334 176C334.696 174.446 334.696 174.554 334 173z"/>
<path style="fill:#eba0ac; stroke:none;" d="M50.3333 174.667C50.2779 174.722 50.2221 175.778 50.6667 175.333C50.7223 175.278 50.7778 174.222 50.3333 174.667z"/>
<path style="fill:#eda8aa; stroke:none;" d="M377.333 174.667C377.278 174.722 377.222 175.778 377.667 175.333C377.722 175.278 377.778 174.222 377.333 174.667z"/>
<path style="fill:#f39291; stroke:none;" d="M662.333 174.667C662.278 174.722 662.222 175.778 662.667 175.333C662.722 175.278 662.778 174.222 662.333 174.667z"/>
<path style="fill:#ed8aad; stroke:none;" d="M335 175L336 176L335 175z"/>
<path style="fill:#f15759; stroke:none;" d="M50.3333 176.667C50.2779 176.722 50.2221 177.778 50.6667 177.333C50.7224 177.278 50.7777 176.222 50.3333 176.667z"/>
<path style="fill:#f36364; stroke:none;" d="M377.333 176.667C377.278 176.722 377.222 177.778 377.667 177.333C377.722 177.278 377.778 176.222 377.333 176.667z"/>
<path style="fill:#f6a3ad; stroke:none;" d="M336 179L337 180L336 179z"/>
<path style="fill:#f98f94; stroke:none;" d="M663 179L664 180L663 179z"/>
<path style="fill:#fea7be; stroke:none;" d="M49.3333 182.667C49.2779 182.722 49.2221 183.778 49.6667 183.333C49.7224 183.278 49.7777 182.222 49.3333 182.667z"/>
<path style="fill:#f6d1cf; stroke:none;" d="M376.333 182.667C376.278 182.722 376.222 183.778 376.667 183.333C376.722 183.278 376.778 182.222 376.333 182.667z"/>
<path style="fill:#f1ccca; stroke:none;" d="M337 183L338 184L337 183z"/>
<path style="fill:#d3c6cd; stroke:none;" d="M664 183L665 184L664 183z"/>
<path style="fill:#f6817c; stroke:none;" d="M49 184L49 187C49.6961 185.446 49.6961 185.554 49 184z"/>
<path style="fill:#ff8589; stroke:none;" d="M337 184L338 185L337 184z"/>
<path style="fill:#fa9590; stroke:none;" d="M376 184L376 187C376.696 185.446 376.696 185.554 376 184z"/>
<path style="fill:#eb474c; stroke:none;" d="M664.333 184.667C664.278 184.722 664.222 185.778 664.667 185.333C664.722 185.278 664.778 184.222 664.333 184.667z"/>
<path style="fill:#ef4d5b; stroke:none;" d="M337 185L338 186L337 185z"/>
<path style="fill:#f54b53; stroke:none;" d="M49 187L49 190C49.6961 188.446 49.6961 188.554 49 187z"/>
<path style="fill:#ed464c; stroke:none;" d="M376 187L376 193C376.951 190.715 376.951 189.285 376 187z"/>
<path style="fill:#fdc6c2; stroke:none;" d="M338 188L339 189L338 188z"/>
<path style="fill:#f3beb0; stroke:none;" d="M665 188L666 189L665 188z"/>
<path style="fill:#fb8a91; stroke:none;" d="M338 189L339 190L338 189z"/>
<path style="fill:#f2847c; stroke:none;" d="M665 189L666 190L665 189z"/>
<path style="fill:#f22939; stroke:none;" d="M49.3333 190.667C49.2779 190.722 49.2222 191.778 49.6667 191.333C49.7223 191.278 49.7778 190.222 49.3333 190.667z"/>
<path style="fill:#e80009; stroke:none;" d="M49 192L49 201C50.2561 198.006 50.2561 194.994 49 192z"/>
<path style="fill:#f1c8c8; stroke:none;" d="M666 192L666 195C666.696 193.446 666.696 193.554 666 192z"/>
<path style="fill:#f16670; stroke:none;" d="M339.333 194.667C339.278 194.722 339.222 195.778 339.667 195.333C339.722 195.278 339.778 194.222 339.333 194.667z"/>
<path style="fill:#f00003; stroke:none;" d="M376 194L376 198C376.71 196.241 376.71 195.759 376 194z"/>
<path style="fill:#ee444e; stroke:none;" d="M376 199L376 205C376.951 202.715 376.951 201.285 376 199z"/>
<path style="fill:#fa7580; stroke:none;" d="M340.333 200.667C340.278 200.722 340.222 201.778 340.667 201.333C340.722 201.278 340.778 200.222 340.333 200.667z"/>
<path style="fill:#f16868; stroke:none;" d="M667.333 200.667C667.278 200.722 667.222 201.778 667.667 201.333C667.722 201.278 667.778 200.222 667.333 200.667z"/>
<path style="fill:#de5252; stroke:none;" d="M49 202L49 206C49.7102 204.241 49.7102 203.759 49 202z"/>
<path style="fill:#ff8589; stroke:none;" d="M376 205L376 208C376.696 206.446 376.696 206.554 376 205z"/>
<path style="fill:#f49587; stroke:none;" d="M49 206L49 209C49.6961 207.446 49.6961 207.554 49 206z"/>
<path style="fill:#fe98a5; stroke:none;" d="M341.333 206.667C341.278 206.722 341.222 207.778 341.667 207.333C341.722 207.278 341.778 206.222 341.333 206.667z"/>
<path style="fill:#ef90a2; stroke:none;" d="M668.333 206.667C668.278 206.722 668.222 207.778 668.667 207.333C668.722 207.278 668.778 206.222 668.333 206.667z"/>
<path style="fill:#f1605e; stroke:none;" d="M341.333 208.667C341.278 208.722 341.222 209.778 341.667 209.333C341.722 209.278 341.778 208.222 341.333 208.667z"/>
<path style="fill:#fbc2c7; stroke:none;" d="M376.333 208.667C376.278 208.722 376.222 209.778 376.667 209.333C376.722 209.278 376.778 208.222 376.333 208.667z"/>
<path style="fill:#ed4c4d; stroke:none;" d="M668.333 208.667C668.278 208.722 668.222 209.778 668.667 209.333C668.722 209.278 668.778 208.222 668.333 208.667z"/>
<path style="fill:#facad5; stroke:none;" d="M49 209L49 212C49.6961 210.446 49.6961 210.554 49 209z"/>
<path style="fill:#ec000a; stroke:none;" d="M377 209L377 213C377.71 211.24 377.71 210.76 377 209z"/>
<path style="fill:#f1000e; stroke:none;" d="M50 210L50 214C50.7102 212.24 50.7102 211.759 50 210z"/>
<path style="fill:#f34344; stroke:none;" d="M50.3333 214.667C50.2778 214.722 50.2222 215.778 50.6667 215.333C50.7222 215.278 50.7778 214.222 50.3333 214.667z"/>
<path style="fill:#ffa7c3; stroke:none;" d="M342.333 214.667C342.278 214.722 342.222 215.778 342.667 215.333C342.722 215.278 342.778 214.222 342.333 214.667z"/>
<path style="fill:#f8635b; stroke:none;" d="M377.333 214.667C377.278 214.722 377.222 215.778 377.667 215.333C377.722 215.278 377.778 214.222 377.333 214.667z"/>
<path style="fill:#ef98a3; stroke:none;" d="M669.333 214.667C669.278 214.722 669.222 215.778 669.667 215.333C669.722 215.278 669.778 214.222 669.333 214.667z"/>
<path style="fill:#f8a1a5; stroke:none;" d="M50.3333 216.667C50.2778 216.722 50.2222 217.778 50.6667 217.333C50.7221 217.278 50.7779 216.222 50.3333 216.667z"/>
<path style="fill:#fc8684; stroke:none;" d="M342.333 216.667C342.278 216.722 342.222 217.778 342.667 217.333C342.722 217.278 342.778 216.222 342.333 216.667z"/>
<path style="fill:#f7aeb1; stroke:none;" d="M377.333 216.667C377.278 216.722 377.222 217.778 377.667 217.333C377.722 217.278 377.778 216.222 377.333 216.667z"/>
<path style="fill:#f87070; stroke:none;" d="M669 216L669 219C669.696 217.446 669.696 217.554 669 216z"/>
<path style="fill:#e8454d; stroke:none;" d="M342 218L342 221C342.696 219.446 342.696 219.554 342 218z"/>
<path style="fill:#ef4657; stroke:none;" d="M51 221L52 222L51 221z"/>
<path style="fill:#ee4d64; stroke:none;" d="M378 221L379 222L378 221z"/>
<path style="fill:#ffa3a3; stroke:none;" d="M51.3333 222.667C51.2778 222.722 51.2222 223.778 51.6667 223.333C51.7223 223.278 51.7777 222.222 51.3333 222.667z"/>
<path style="fill:#ffbfc0; stroke:none;" d="M378.333 222.667C378.278 222.722 378.222 223.778 378.667 223.333C378.722 223.278 378.778 222.222 378.333 222.667z"/>
<path style="fill:#fbd5d0; stroke:none;" d="M343 224L343 228C343.71 226.24 343.71 225.759 343 224z"/>
<path style="fill:#fcd2c4; stroke:none;" d="M670 224L670 227C670.696 225.446 670.696 225.554 670 224z"/>
<path style="fill:#f87f86; stroke:none;" d="M52 227L53 228L52 227z"/>
<path style="fill:#ec8f86; stroke:none;" d="M379 227L380 228L379 227z"/>
<path style="fill:#f3737c; stroke:none;" d="M670 227L670 232C670.83 229.97 670.83 229.03 670 227z"/>
<path style="fill:#f6bfc3; stroke:none;" d="M52 228L53 229L52 228z"/>
<path style="fill:#f88c92; stroke:none;" d="M343 228L343 232C343.71 230.24 343.71 229.759 343 228z"/>
<path style="fill:#ff5d5a; stroke:none;" d="M53 231L54 232L53 231z"/>
<path style="fill:#fe716a; stroke:none;" d="M380 231L381 232L380 231z"/>
<path style="fill:#ef474a; stroke:none;" d="M343 232L343 240C344.161 237.23 344.161 234.77 343 232z"/>
<path style="fill:#fe4753; stroke:none;" d="M670 232L670 238C670.951 235.715 670.951 234.285 670 232z"/>
<path style="fill:#ec7776; stroke:none;" d="M54 235L55 236L54 235z"/>
<path style="fill:#f39f9c; stroke:none;" d="M381 235L382 236L381 235z"/>
<path style="fill:#ec6171; stroke:none;" d="M55 238L56 239L55 238z"/>
<path style="fill:#eb7280; stroke:none;" d="M382 238L383 239L382 238z"/>
<path style="fill:#ffafb2; stroke:none;" d="M55 239L56 240L55 239z"/>
<path style="fill:#ffbfbf; stroke:none;" d="M382 239L383 240L382 239z"/>
<path style="fill:#e80009; stroke:none;" d="M670 239L670 252C671.591 248.209 671.591 242.791 670 239z"/>
<path style="fill:#f25f73; stroke:none;" d="M383 241L384 242L383 241z"/>
<path style="fill:#f2bfb6; stroke:none;" d="M56 242L57 243L56 242z"/>
<path style="fill:#ef010b; stroke:none;" d="M343 242L343 249C344.059 246.466 344.059 244.534 343 242z"/>
<path style="fill:#ffc4c9; stroke:none;" d="M383 242L384 243L383 242z"/>
<path style="fill:#ed515c; stroke:none;" d="M57 244L58 245L57 244z"/>
<path style="fill:#ef6e6f; stroke:none;" d="M384 244L385 245L384 244z"/>
<path style="fill:#fccdc0; stroke:none;" d="M57 245L58 246L57 245z"/>
<path style="fill:#eb6e70; stroke:none;" d="M58 247L59 248L58 247z"/>
<path style="fill:#ff8390; stroke:none;" d="M385 247L386 248L385 247z"/>
<path style="fill:#feb0ae; stroke:none;" d="M59 250L60 251L59 250z"/>
<path style="fill:#f8aba6; stroke:none;" d="M386 250L387 251L386 250z"/>
<path style="fill:#f34949; stroke:none;" d="M343 251L343 259C344.161 256.23 344.161 253.77 343 251z"/>
<path style="fill:#e16d64; stroke:none;" d="M60 252L61 253L60 252z"/>
<path style="fill:#ee8c84; stroke:none;" d="M387 252L388 253L387 252z"/>
<path style="fill:#ee4356; stroke:none;" d="M670 253L670 260C671.059 257.466 671.059 255.534 670 253z"/>
<path style="fill:#de4957; stroke:none;" d="M61 254L62 255L61 254z"/>
<path style="fill:#ec6b74; stroke:none;" d="M388 254L389 255L388 254z"/>
<path style="fill:#ffccc8; stroke:none;" d="M61 255L62 256L61 255z"/>
<path style="fill:#e54b57; stroke:none;" d="M389 256L390 257L389 256z"/>
<path style="fill:#fcb5ac; stroke:none;" d="M62 257L63 258L62 257z"/>
<path style="fill:#f7cfbf; stroke:none;" d="M389 257L390 258L389 257z"/>
<path style="fill:#ff3d5a; stroke:none;" d="M390 258L391 259L390 258z"/>
<path style="fill:#ff091e; stroke:none;" d="M391 258L392 262C392.393 260.076 392.146 259.64 391 258z"/>
<path style="fill:#fea3ba; stroke:none;" d="M63 259L64 260L63 259z"/>
<path style="fill:#ee959a; stroke:none;" d="M343 259L343 264C343.83 261.969 343.83 261.03 343 259z"/>
<path style="fill:#f4b5b8; stroke:none;" d="M390 259L391 260L390 259z"/>
<path style="fill:#e2928c; stroke:none;" d="M670 260L670 264C670.71 262.24 670.71 261.76 670 260z"/>
<path style="fill:#feada3; stroke:none;" d="M64 261L65 262L64 261z"/>
<path style="fill:#ee020f; stroke:none;" d="M342 261L342 270C343.256 267.006 343.256 263.994 342 261z"/>
<path style="fill:#ecaead; stroke:none;" d="M391 261L392 262L391 261z"/>
<path style="fill:#dc5049; stroke:none;" d="M392 262L393 263L392 262z"/>
<path style="fill:#f6b1ac; stroke:none;" d="M65 263L66 264L65 263z"/>
<path style="fill:#fdd6ae; stroke:none;" d="M392 263L393 264L392 263z"/>
<path style="fill:#f8ccd3; stroke:none;" d="M343 264L343 267C343.696 265.446 343.696 265.554 343 264z"/>
<path style="fill:#e4514f; stroke:none;" d="M393 264L394 265L393 264z"/>
<path style="fill:#ffcde0; stroke:none;" d="M670 264L670 268C670.71 266.24 670.71 265.759 670 264z"/>
<path style="fill:#f3bdba; stroke:none;" d="M66 265L67 266L66 265z"/>
<path style="fill:#f6c5bc; stroke:none;" d="M393 265L394 266L393 265z"/>
<path style="fill:#da6c6d; stroke:none;" d="M394 266L395 267L394 266z"/>
<path style="fill:#df0304; stroke:none;" d="M669 266L669 270C669.71 268.24 669.71 267.76 669 266z"/>
<path style="fill:#f56c80; stroke:none;" d="M68 268L69 269L68 268z"/>
<path style="fill:#ee8a90; stroke:none;" d="M395 268L396 269L395 268z"/>
<path style="fill:#ef928e; stroke:none;" d="M69 270L70 271L69 270z"/>
<path style="fill:#ffbcba; stroke:none;" d="M396 270L397 271L396 270z"/>
<path style="fill:#f55466; stroke:none;" d="M342 271L342 274C342.696 272.446 342.696 272.554 342 271z"/>
<path style="fill:#ee484d; stroke:none;" d="M397 271L398 272L397 271z"/>
<path style="fill:#eb465c; stroke:none;" d="M669 271L669 274C669.696 272.446 669.696 272.554 669 271z"/>
<path style="fill:#e60c13; stroke:none;" d="M668 272L668 281C669.256 278.006 669.256 274.994 668 272z"/>
<path style="fill:#f98790; stroke:none;" d="M71 273L72 274L71 273z"/>
<path style="fill:#ed9e93; stroke:none;" d="M398 273L399 274L398 273z"/>
<path style="fill:#f00015; stroke:none;" d="M341 274L341 280C341.951 277.715 341.951 276.285 341 274z"/>
<path style="fill:#f8a39f; stroke:none;" d="M342.333 274.667C342.278 274.722 342.222 275.778 342.667 275.333C342.722 275.278 342.778 274.222 342.333 274.667z"/>
<path style="fill:#f99b9f; stroke:none;" d="M669.333 274.667C669.278 274.722 669.222 275.778 669.667 275.333C669.722 275.278 669.778 274.222 669.333 274.667z"/>
<path style="fill:#f37c7c; stroke:none;" d="M73 276L74 277L73 276z"/>
<path style="fill:#f7ead5; stroke:none;" d="M342.333 276.667C342.278 276.722 342.222 277.778 342.667 277.333C342.722 277.278 342.778 276.222 342.333 276.667z"/>
<path style="fill:#ff888a; stroke:none;" d="M400 276L401 277L400 276z"/>
<path style="fill:#f6d8cf; stroke:none;" d="M669.333 276.667C669.278 276.722 669.222 277.778 669.667 277.333C669.722 277.278 669.778 276.222 669.333 276.667z"/>
<path style="fill:#e88878; stroke:none;" d="M75 279L76 280L75 279z"/>
<path style="fill:#f68d83; stroke:none;" d="M402 279L403 280L402 279z"/>
<path style="fill:#e45161; stroke:none;" d="M403 280L404 281L403 280z"/>
<path style="fill:#fbafaa; stroke:none;" d="M77 282L78 283L77 282z"/>
<path style="fill:#f48d8f; stroke:none;" d="M341.333 282.667C341.278 282.722 341.222 283.778 341.667 283.333C341.722 283.278 341.778 282.222 341.333 282.667z"/>
<path style="fill:#fa8882; stroke:none;" d="M668 282L668 285C668.696 283.446 668.696 283.554 668 282z"/>
<path style="fill:#fc727f; stroke:none;" d="M78 283L79 284L78 283z"/>
<path style="fill:#f20008; stroke:none;" d="M340 283L340 288C340.83 285.97 340.83 285.03 340 283z"/>
<path style="fill:#ed9291; stroke:none;" d="M405 283L406 284L405 283z"/>
<path style="fill:#f3e1e3; stroke:none;" d="M341.333 284.667C341.278 284.722 341.222 285.778 341.667 285.333C341.722 285.278 341.778 284.222 341.333 284.667z"/>
<path style="fill:#eb415c; stroke:none;" d="M406 284L407 285L406 284z"/>
<path style="fill:#e5090f; stroke:none;" d="M667 284L667 288C667.71 286.24 667.71 285.759 667 284z"/>
<path style="fill:#ffc6c9; stroke:none;" d="M80 286L81 287L80 286z"/>
<path style="fill:#a8010f; stroke:none;" d="M81 286L82 287L81 286z"/>
<path style="fill:#ffa6af; stroke:none;" d="M81 287L82 288L81 287z"/>
<path style="fill:#ffa690; stroke:none;" d="M408 287L409 288L408 287z"/>
<path style="fill:#e96c76; stroke:none;" d="M82 288L83 289L82 288z"/>
<path style="fill:#ef5263; stroke:none;" d="M340 288L340 291C340.696 289.446 340.696 289.554 340 288z"/>
<path style="fill:#f6828c; stroke:none;" d="M409 288L410 289L409 288z"/>
<path style="fill:#f07170; stroke:none;" d="M410 289L411 290L410 289z"/>
<path style="fill:#fe8a8b; stroke:none;" d="M667 289L667 292C667.696 290.446 667.696 290.554 667 289z"/>
<path style="fill:#f4a4ae; stroke:none;" d="M87 294L88 295L87 294z"/>
<path style="fill:#e2100f; stroke:none;" d="M88 294C89.5489 296.136 90.8643 297.451 93 299C91.6759 296.313 90.6866 295.324 88 294z"/>
<path style="fill:#ec3f50; stroke:none;" d="M339.333 294.667C339.278 294.722 339.222 295.778 339.667 295.333C339.722 295.278 339.778 294.222 339.333 294.667z"/>
<path style="fill:#ffaa8f; stroke:none;" d="M88 295L89 296L88 295z"/>
<path style="fill:#fabdc6; stroke:none;" d="M415 295L416 296L415 295z"/>
<path style="fill:#ffa5ad; stroke:none;" d="M89 296L90 297L89 296z"/>
<path style="fill:#ffb7b9; stroke:none;" d="M339.333 296.667C339.278 296.722 339.222 297.778 339.667 297.333C339.722 297.278 339.778 296.222 339.333 296.667z"/>
<path style="fill:#f6bab2; stroke:none;" d="M416 296L417 297L416 296z"/>
<path style="fill:#ffa1a1; stroke:none;" d="M666.333 296.667C666.278 296.722 666.222 297.778 666.667 297.333C666.722 297.278 666.778 296.222 666.333 296.667z"/>
<path style="fill:#fcb9b7; stroke:none;" d="M90 297L91 298L90 297z"/>
<path style="fill:#ffa8a9; stroke:none;" d="M417 297L418 298L417 297z"/>
<path style="fill:#febcb3; stroke:none;" d="M91 298L92 299L91 298z"/>
<path style="fill:#e8a895; stroke:none;" d="M418 298L419 299L418 298z"/>
<path style="fill:#f9bcbb; stroke:none;" d="M92 299L93 300L92 299z"/>
<path style="fill:#ee021f; stroke:none;" d="M93 299C94.8358 301.447 96.2368 302.701 99 304C97.164 301.553 95.7633 300.299 93 299z"/>
<path style="fill:#fbb1b6; stroke:none;" d="M419 299L420 300L419 299z"/>
<path style="fill:#ffc0bb; stroke:none;" d="M93 300L94 301L93 300z"/>
<path style="fill:#f4b2b5; stroke:none;" d="M94 301L95 302L94 301z"/>
<path style="fill:#f9a4a0; stroke:none;" d="M338 301L338 304C338.696 302.446 338.696 302.554 338 301z"/>
<path style="fill:#ed576b; stroke:none;" d="M665 301L666 302L665 301z"/>
<path style="fill:#ffc7c8; stroke:none;" d="M665.333 302.667C665.278 302.722 665.222 303.778 665.667 303.333C665.722 303.278 665.778 302.222 665.333 302.667z"/>
<path style="fill:#fce0b9; stroke:none;" d="M96 303L97 304L96 303z"/>
<path style="fill:#df4645; stroke:none;" d="M98 304L99 305L98 304z"/>
<path style="fill:#e65d6c; stroke:none;" d="M99 305L100 306L99 305z"/>
<path style="fill:#ed6176; stroke:none;" d="M426 305L427 306L426 305z"/>
<path style="fill:#cf655d; stroke:none;" d="M100 306L101 307L100 306z"/>
<path style="fill:#e4776f; stroke:none;" d="M337 306L338 307L337 306z"/>
<path style="fill:#fa8e94; stroke:none;" d="M427 306L428 307L427 306z"/>
<path style="fill:#f55c62; stroke:none;" d="M664 306L665 307L664 306z"/>
<path style="fill:#f0b6ad; stroke:none;" d="M101 307L102 308L101 307z"/>
<path style="fill:#eabbac; stroke:none;" d="M337 307L338 308L337 307z"/>
<path style="fill:#eeadb0; stroke:none;" d="M428 307L429 308L428 307z"/>
<path style="fill:#f89c9e; stroke:none;" d="M664 307L665 308L664 307z"/>
<path style="fill:#e5525b; stroke:none;" d="M431 309L432 310L431 309z"/>
<path style="fill:#f87483; stroke:none;" d="M105 310L106 311L105 310z"/>
<path style="fill:#fa7f8d; stroke:none;" d="M432 310L433 311L432 310z"/>
<path style="fill:#f4bfb1; stroke:none;" d="M106 311L107 312L106 311z"/>
<path style="fill:#ff8d83; stroke:none;" d="M336 311L337 312L336 311z"/>
<path style="fill:#ffccc7; stroke:none;" d="M433 311L434 312L433 311z"/>
<path style="fill:#ff6a68; stroke:none;" d="M663 311L664 312L663 311z"/>
<path style="fill:#e54866; stroke:none;" d="M108 312L109 313L108 312z"/>
<path style="fill:#ee5a5d; stroke:none;" d="M435 312L436 313L435 312z"/>
<path style="fill:#fe878e; stroke:none;" d="M109 313L110 314L109 313z"/>
<path style="fill:#f796a3; stroke:none;" d="M436 313L437 314L436 313z"/>
<path style="fill:#ff3a65; stroke:none;" d="M111 314L112 315L111 314z"/>
<path style="fill:#f37273; stroke:none;" d="M112 315L113 316L112 315z"/>
<path style="fill:#ef7d7d; stroke:none;" d="M335 315L336 316L335 315z"/>
<path style="fill:#f77f97; stroke:none;" d="M439 315L440 316L439 315z"/>
<path style="fill:#ff5f69; stroke:none;" d="M662 315L663 316L662 315z"/>
<path style="fill:#f0cec7; stroke:none;" d="M113 316L114 317L113 316z"/>
<path style="fill:#eb3a54; stroke:none;" d="M441 316L442 317L441 316z"/>
<path style="fill:#e3000e; stroke:none;" d="M661.333 316.667C661.278 316.722 661.222 317.778 661.667 317.333C661.722 317.278 661.778 316.222 661.333 316.667z"/>
<path style="fill:#ffbebc; stroke:none;" d="M662 316L663 317L662 316z"/>
<path style="fill:#ec9590; stroke:none;" d="M115 317L116 318L115 317z"/>
<path style="fill:#f79899; stroke:none;" d="M442 317L443 318L442 317z"/>
<path style="fill:#ea5259; stroke:none;" d="M117 318L118 319L117 318z"/>
<path style="fill:#f7747c; stroke:none;" d="M334.333 318.667C334.278 318.722 334.222 319.778 334.667 319.333C334.722 319.278 334.778 318.222 334.333 318.667z"/>
<path style="fill:#f36170; stroke:none;" d="M444 318L445 319L444 318z"/>
<path style="fill:#ff9f9b; stroke:none;" d="M118 319L119 320L118 319z"/>
<path style="fill:#fcb6ba; stroke:none;" d="M445 319L446 320L445 319z"/>
<path style="fill:#f76a5d; stroke:none;" d="M661 319L662 320L661 319z"/>
<path style="fill:#f98d8c; stroke:none;" d="M120 320L121 321L120 320z"/>
<path style="fill:#c2b0b0; stroke:none;" d="M447 320L448 321L447 320z"/>
<path style="fill:#f75a67; stroke:none;" d="M122 321L123 322L122 321z"/>
<path style="fill:#f26172; stroke:none;" d="M449 321L450 322L449 321z"/>
<path style="fill:#ee3e55; stroke:none;" d="M124 322L125 323L124 322z"/>
<path style="fill:#f95564; stroke:none;" d="M451 322L452 323L451 322z"/>
<path style="fill:#f28389; stroke:none;" d="M333 323L334 324L333 323z"/>
<path style="fill:#fb5166; stroke:none;" d="M453 323L454 324L453 323z"/>
<path style="fill:#fc6d74; stroke:none;" d="M660 323L661 324L660 323z"/>
<path style="fill:#ffbac7; stroke:none;" d="M127 324L128 325L127 324z"/>
<path style="fill:#ffc6bf; stroke:none;" d="M454 324L455 325L454 324z"/>
<path style="fill:#ef4e61; stroke:none;" d="M455 324L456 325L455 324z"/>
<path style="fill:#ffc8c7; stroke:none;" d="M660 324L661 325L660 324z"/>
<path style="fill:#eaabad; stroke:none;" d="M129 325L130 326L129 325z"/>
<path style="fill:#e84c62; stroke:none;" d="M457 325L458 326L457 325z"/>
<path style="fill:#f2ccbc; stroke:none;" d="M131 326L132 327L131 326z"/>
<path style="fill:#ea4e58; stroke:none;" d="M132 326L133 327L132 326z"/>
<path style="fill:#eb5d64; stroke:none;" d="M332 326L333 327L332 326z"/>
<path style="fill:#ee4655; stroke:none;" d="M459 326L460 327L459 326z"/>
<path style="fill:#f14f55; stroke:none;" d="M659 326L660 327L659 326z"/>
<path style="fill:#fa6c6c; stroke:none;" d="M134 327L135 328L134 327z"/>
<path style="fill:#ffb1a8; stroke:none;" d="M332 327L333 328L332 327z"/>
<path style="fill:#ed676f; stroke:none;" d="M461 327L462 328L461 327z"/>
<path style="fill:#ff9888; stroke:none;" d="M659 327L660 328L659 327z"/>
<path style="fill:#f68883; stroke:none;" d="M136 328L137 329L136 328z"/>
<path style="fill:#c3a9ab; stroke:none;" d="M463 328L464 329L463 328z"/>
<path style="fill:#f7b8b4; stroke:none;" d="M138 329L139 330L138 329z"/>
<path style="fill:#f4cbc9; stroke:none;" d="M465 329L466 330L465 329z"/>
<path style="fill:#e75e67; stroke:none;" d="M466 329L467 330L466 329z"/>
<path style="fill:#e30006; stroke:none;" d="M467.667 329.333C467.222 329.778 468.278 329.722 468.333 329.667C468.778 329.222 467.722 329.278 467.667 329.333z"/>
<path style="fill:#e4797a; stroke:none;" d="M141 330L142 331L141 330z"/>
<path style="fill:#ff6f6b; stroke:none;" d="M242 330C242.545 331.635 242.365 331.455 244 332L244 330L242 330z"/>
<path style="fill:#eb8f91; stroke:none;" d="M331 330L332 331L331 330z"/>
<path style="fill:#f19898; stroke:none;" d="M468 330L469 331L468 330z"/>
<path style="fill:#f86d6c; stroke:none;" d="M569 330C569.545 331.635 569.365 331.455 571 332L571 330L569 330z"/>
<path style="fill:#f87483; stroke:none;" d="M658 330L659 331L658 330z"/>
<path style="fill:#ffb6c6; stroke:none;" d="M143 331L144 332L143 331z"/>
<path style="fill:#f86a62; stroke:none;" d="M144 331L145 332L144 331z"/>
<path style="fill:#f97c82; stroke:none;" d="M240 331L241 332L240 331z"/>
<path style="fill:#ff747e; stroke:none;" d="M471 331L472 332L471 331z"/>
<path style="fill:#f6776b; stroke:none;" d="M567 331L568 332L567 331z"/>
<path style="fill:#fa627a; stroke:none;" d="M147 332L148 333L147 332z"/>
<path style="fill:#ff0507; stroke:none;" d="M234.667 332.333C234.222 332.778 235.278 332.722 235.333 332.667C235.778 332.222 234.722 332.278 234.667 332.333z"/>
<path style="fill:#e95e67; stroke:none;" d="M237 332L238 333L237 332z"/>
<path style="fill:#f5c2cf; stroke:none;" d="M238 332L239 333L238 332z"/>
<path style="fill:#f2c4cf; stroke:none;" d="M473 332L474 333L473 332z"/>
<path style="fill:#e46165; stroke:none;" d="M474 332L475 333L474 332z"/>
<path style="fill:#f56472; stroke:none;" d="M564 332L565 333L564 332z"/>
<path style="fill:#ffd0c0; stroke:none;" d="M149 333L150 334L149 333z"/>
<path style="fill:#f7666b; stroke:none;" d="M150 333L151 334L150 333z"/>
<path style="fill:#e67984; stroke:none;" d="M234 333L235 334L234 333z"/>
<path style="fill:#ed6c72; stroke:none;" d="M330 333L331 334L330 333z"/>
<path style="fill:#f0c9d0; stroke:none;" d="M476 333L477 334L476 333z"/>
<path style="fill:#e37a81; stroke:none;" d="M477 333L478 334L477 333z"/>
<path style="fill:#f77577; stroke:none;" d="M561 333L562 334L561 333z"/>
<path style="fill:#f7cabf; stroke:none;" d="M562 333L563 334L562 333z"/>
<path style="fill:#f55569; stroke:none;" d="M657 333L658 334L657 333z"/>
<path style="fill:#f19999; stroke:none;" d="M153 334L154 335L153 334z"/>
<path style="fill:#ec5661; stroke:none;" d="M230 334L231 335L230 334z"/>
<path style="fill:#fca7a1; stroke:none;" d="M231 334L232 335L231 334z"/>
<path style="fill:#fbc4c3; stroke:none;" d="M242 334L243 335L242 334z"/>
<path style="fill:#fb9e99; stroke:none;" d="M480 334L481 335L480 334z"/>
<path style="fill:#e94a5b; stroke:none;" d="M481 334L482 335L481 334z"/>
<path style="fill:#dd4554; stroke:none;" d="M557 334L558 335L557 334z"/>
<path style="fill:#f4a29f; stroke:none;" d="M558 334L559 335L558 334z"/>
<path style="fill:#f7b1b7; stroke:none;" d="M657 334L658 335L657 334z"/>
<path style="fill:#ffc9bd; stroke:none;" d="M156 335L157 336L156 335z"/>
<path style="fill:#fc7d7a; stroke:none;" d="M157 335L158 336L157 335z"/>
<path style="fill:#fb8b8d; stroke:none;" d="M227 335L228 336L227 335z"/>
<path style="fill:#f17e83; stroke:none;" d="M242 335L243 336L242 335z"/>
<path style="fill:#f37c7d; stroke:none;" d="M484 335L485 336L484 335z"/>
<path style="fill:#f78b85; stroke:none;" d="M554 335L555 336L554 335z"/>
<path style="fill:#f88893; stroke:none;" d="M569 335L570 336L569 335z"/>
<path style="fill:#f7959b; stroke:none;" d="M160.667 336.333C160.222 336.778 161.278 336.722 161.333 336.667C161.778 336.222 160.722 336.278 160.667 336.333z"/>
<path style="fill:#fd8486; stroke:none;" d="M222.667 336.333C222.222 336.778 223.278 336.722 223.333 336.667C223.778 336.222 222.722 336.278 222.667 336.333z"/>
<path style="fill:#fd5466; stroke:none;" d="M329 336L330 337L329 336z"/>
<path style="fill:#f25865; stroke:none;" d="M488.667 336.333C488.222 336.778 489.278 336.722 489.333 336.667C489.778 336.222 488.722 336.278 488.667 336.333z"/>
<path style="fill:#e85058; stroke:none;" d="M549 336L550 337L549 336z"/>
<path style="fill:#ffcab9; stroke:none;" d="M550.667 336.333C550.222 336.778 551.278 336.722 551.333 336.667C551.778 336.222 550.722 336.278 550.667 336.333z"/>
<path style="fill:#e7567d; stroke:none;" d="M656 336L657 337L656 336z"/>
<path style="fill:#ffcbc1; stroke:none;" d="M165 337L166 338L165 337z"/>
<path style="fill:#f65068; stroke:none;" d="M166.667 337.333C166.222 337.778 167.278 337.722 167.333 337.667C167.778 337.222 166.722 337.278 166.667 337.333z"/>
<path style="fill:#fb4d5e; stroke:none;" d="M217 337L218 338L217 337z"/>
<path style="fill:#ff9093; stroke:none;" d="M218 337L219 338L218 337z"/>
<path style="fill:#ffa8a3; stroke:none;" d="M329 337L330 338L329 337z"/>
<path style="fill:#fd8e95; stroke:none;" d="M493 337L494 338L493 337z"/>
<path style="fill:#f61b42; stroke:none;" d="M494.667 337.333C494.222 337.778 495.278 337.722 495.333 337.667C495.778 337.222 494.722 337.278 494.667 337.333z"/>
<path style="fill:#e00e03; stroke:none;" d="M496 337C497.506 337.683 498.315 337.826 500 338C498.494 337.317 497.685 337.174 496 337z"/>
<path style="fill:#fc8399; stroke:none;" d="M544.667 337.333C544.222 337.778 545.278 337.722 545.333 337.667C545.778 337.222 544.722 337.278 544.667 337.333z"/>
<path style="fill:#ffa6bc; stroke:none;" d="M656 337L657 338L656 337z"/>
<path style="fill:#f9908e; stroke:none;" d="M171.667 338.333C171.222 338.778 172.278 338.722 172.333 338.667C172.778 338.222 171.722 338.278 171.667 338.333z"/>
<path style="fill:#ef413c; stroke:none;" d="M173.667 338.333C173.222 338.778 174.278 338.722 174.333 338.667C174.778 338.222 173.722 338.278 173.667 338.333z"/>
<path style="fill:#ff7179; stroke:none;" d="M210 338C211.248 338.685 211.549 338.749 213 339C211.752 338.315 211.452 338.251 210 338z"/>
<path style="fill:#f49497; stroke:none;" d="M498.667 338.333C498.222 338.778 499.278 338.722 499.333 338.667C499.778 338.222 498.722 338.278 498.667 338.333z"/>
<path style="fill:#ff4248; stroke:none;" d="M500.667 338.333C500.222 338.778 501.278 338.722 501.333 338.667C501.778 338.222 500.722 338.278 500.667 338.333z"/>
<path style="fill:#f88e89; stroke:none;" d="M538 338C539.248 338.685 539.548 338.749 541 339C539.752 338.315 539.452 338.251 538 338z"/>
<path style="fill:#f5d0ca; stroke:none;" d="M178.667 339.333C178.222 339.778 179.278 339.722 179.333 339.667C179.778 339.222 178.722 339.278 178.667 339.333z"/>
<path style="fill:#fd8d9b; stroke:none;" d="M180 339C181.506 339.683 182.315 339.826 184 340C182.494 339.317 181.685 339.174 180 339z"/>
<path style="fill:#f14a46; stroke:none;" d="M184 339C188.974 341.087 195.638 340 201 340C196.026 337.913 189.362 339 184 339z"/>
<path style="fill:#fb8c96; stroke:none;" d="M201 339C202.248 339.685 202.548 339.749 204 340C202.752 339.315 202.452 339.251 201 339z"/>
<path style="fill:#efccc3; stroke:none;" d="M204 339C205.248 339.685 205.548 339.749 207 340C205.752 339.315 205.452 339.251 204 339z"/>
<path style="fill:#fb8f95; stroke:none;" d="M241 339L242 340L241 339z"/>
<path style="fill:#e54962; stroke:none;" d="M328 339L329 340L328 339z"/>
<path style="fill:#f4ccc5; stroke:none;" d="M505 339C506.248 339.685 506.548 339.749 508 340C506.752 339.315 506.452 339.251 505 339z"/>
<path style="fill:#f78892; stroke:none;" d="M508 339C509.248 339.685 509.548 339.749 511 340C509.752 339.315 509.452 339.251 508 339z"/>
<path style="fill:#f14a46; stroke:none;" d="M511 339C515.974 341.087 522.638 340 528 340C523.026 337.913 516.362 339 511 339z"/>
<path style="fill:#f78c99; stroke:none;" d="M528 339C529.248 339.685 529.548 339.749 531 340C529.752 339.315 529.451 339.251 528 339z"/>
<path style="fill:#f5d0ca; stroke:none;" d="M531.667 339.333C531.222 339.778 532.278 339.722 532.333 339.667C532.778 339.222 531.722 339.278 531.667 339.333z"/>
<path style="fill:#ff9ca2; stroke:none;" d="M568 339L569 340L568 339z"/>
<path style="fill:#ef515b; stroke:none;" d="M655 339L656 340L655 339z"/>
<path style="fill:#f2b8bd; stroke:none;" d="M328 340L329 341L328 340z"/>
<path style="fill:#ee505c; stroke:none;" d="M568 340L569 341L568 340z"/>
<path style="fill:#fbc0b4; stroke:none;" d="M655 340L656 341L655 340z"/>
<path style="fill:#e76359; stroke:none;" d="M327 342L328 343L327 342z"/>
<path style="fill:#f05c69; stroke:none;" d="M654 342L655 343L654 342z"/>
<path style="fill:#f08da4; stroke:none;" d="M240 343L241 344L240 343z"/>
<path style="fill:#fcc8a5; stroke:none;" d="M327 343L328 344L327 343z"/>
<path style="fill:#daadb9; stroke:none;" d="M567 343L568 344L567 343z"/>
<path style="fill:#f9aea6; stroke:none;" d="M654 343L655 344L654 343z"/>
<path style="fill:#f15964; stroke:none;" d="M326 345L327 346L326 345z"/>
<path style="fill:#f45f62; stroke:none;" d="M653 345L654 346L653 345z"/>
<path style="fill:#f8c0b4; stroke:none;" d="M326 346L327 347L326 346z"/>
<path style="fill:#ffcbc9; stroke:none;" d="M653 346L654 347L653 346z"/>
<path style="fill:#e47279; stroke:none;" d="M239 347L240 348L239 347z"/>
<path style="fill:#f0868a; stroke:none;" d="M566 347L567 348L566 347z"/>
<path style="fill:#f38289; stroke:none;" d="M325 348L326 349L325 348z"/>
<path style="fill:#ff7078; stroke:none;" d="M652 348L653 349L652 348z"/>
<path style="fill:#f18d91; stroke:none;" d="M238 350L239 351L238 350z"/>
<path style="fill:#e04552; stroke:none;" d="M324 350L325 351L324 350z"/>
<path style="fill:#ff9d9e; stroke:none;" d="M565 350L566 351L565 350z"/>
<path style="fill:#e73846; stroke:none;" d="M651 350L652 351L651 350z"/>
<path style="fill:#e73b55; stroke:none;" d="M238 351L239 352L238 351z"/>
<path style="fill:#f9a8a0; stroke:none;" d="M324 351L325 352L324 351z"/>
<path style="fill:#ed988f; stroke:none;" d="M651 351L652 352L651 351z"/>
<path style="fill:#fca6a0; stroke:none;" d="M237 353L238 354L237 353z"/>
<path style="fill:#ed6c68; stroke:none;" d="M323 353L324 354L323 353z"/>
<path style="fill:#f5babb; stroke:none;" d="M564 353L565 354L564 353z"/>
<path style="fill:#ec565e; stroke:none;" d="M650 353L651 354L650 353z"/>
<path style="fill:#f74d6a; stroke:none;" d="M564 354L565 355L564 354z"/>
<path style="fill:#f3c2ba; stroke:none;" d="M650 354L651 355L650 354z"/>
<path style="fill:#fc0020; stroke:none;" d="M564.333 355.667C564.278 355.722 564.222 356.778 564.667 356.333C564.722 356.278 564.778 355.222 564.333 355.667z"/>
<path style="fill:#f4a19e; stroke:none;" d="M236 356L237 357L236 356z"/>
<path style="fill:#f09595; stroke:none;" d="M322 356L323 357L322 356z"/>
<path style="fill:#edc0b3; stroke:none;" d="M563 356L564 357L563 356z"/>
<path style="fill:#ef8e91; stroke:none;" d="M649 356L650 357L649 356z"/>
<path style="fill:#e54b56; stroke:none;" d="M563 357L564 358L563 357z"/>
<path style="fill:#e26071; stroke:none;" d="M321 358L322 359L321 358z"/>
<path style="fill:#e45a5c; stroke:none;" d="M648 358L649 359L648 358z"/>
<path style="fill:#f1a3bd; stroke:none;" d="M235 359L236 360L235 359z"/>
<path style="fill:#ffaec0; stroke:none;" d="M562 359L563 360L562 359z"/>
<path style="fill:#ffbcb2; stroke:none;" d="M648 359L649 360L648 359z"/>
<path style="fill:#df355e; stroke:none;" d="M320 360L321 361L320 360z"/>
<path style="fill:#ffa3b5; stroke:none;" d="M320 361L321 362L320 361z"/>
<path style="fill:#ff9092; stroke:none;" d="M647 361L648 362L647 361z"/>
<path style="fill:#f47882; stroke:none;" d="M234 362L235 363L234 362z"/>
<path style="fill:#fc9899; stroke:none;" d="M561 362L562 363L561 362z"/>
<path style="fill:#f77d7b; stroke:none;" d="M319 363L320 364L319 363z"/>
<path style="fill:#ea6572; stroke:none;" d="M646 363L647 364L646 363z"/>
<path style="fill:#f8c2b8; stroke:none;" d="M233 364L234 365L233 364z"/>
<path style="fill:#ffccc3; stroke:none;" d="M560 364L561 365L560 364z"/>
<path style="fill:#f55c72; stroke:none;" d="M318 365L319 366L318 365z"/>
<path style="fill:#e95b5f; stroke:none;" d="M560 365L561 366L560 365z"/>
<path style="fill:#f7415f; stroke:none;" d="M645 365L646 366L645 365z"/>
<path style="fill:#ffc6cf; stroke:none;" d="M645 366L646 367L645 366z"/>
<path style="fill:#e68185; stroke:none;" d="M232 367L233 368L232 367z"/>
<path style="fill:#d4b8bf; stroke:none;" d="M559 367L560 368L559 367z"/>
<path style="fill:#f4aab0; stroke:none;" d="M317 368L318 369L317 368z"/>
<path style="fill:#ecbaba; stroke:none;" d="M644 368L645 369L644 368z"/>
<path style="fill:#f2b4be; stroke:none;" d="M231 369L232 370L231 369z"/>
<path style="fill:#f4b4b8; stroke:none;" d="M558 369L559 370L558 369z"/>
<path style="fill:#f6b4ae; stroke:none;" d="M316 370L317 371L316 370z"/>
<path style="fill:#f04758; stroke:none;" d="M558 370L559 371L558 370z"/>
<path style="fill:#f1959b; stroke:none;" d="M643 370L644 371L643 370z"/>
<path style="fill:#f06e79; stroke:none;" d="M230 372L231 373L230 372z"/>
<path style="fill:#f18a82; stroke:none;" d="M315 372L316 373L315 372z"/>
<path style="fill:#ef717a; stroke:none;" d="M557 372L558 373L557 372z"/>
<path style="fill:#f78c90; stroke:none;" d="M642 372L643 373L642 372z"/>
<path style="fill:#f88e87; stroke:none;" d="M229 374L230 375L229 374z"/>
<path style="fill:#f6989a; stroke:none;" d="M314 374L315 375L314 374z"/>
<path style="fill:#fd9197; stroke:none;" d="M556 374L557 375L556 374z"/>
<path style="fill:#fb6680; stroke:none;" d="M641 374L642 375L641 374z"/>
<path style="fill:#ff8994; stroke:none;" d="M228 376L229 377L228 376z"/>
<path style="fill:#ff7b86; stroke:none;" d="M313 376L314 377L313 376z"/>
<path style="fill:#ffb1a9; stroke:none;" d="M555 376L556 377L555 376z"/>
<path style="fill:#dd7496; stroke:none;" d="M640 376L641 377L640 376z"/>
<path style="fill:#fab2ad; stroke:none;" d="M227 378L228 379L227 378z"/>
<path style="fill:#ed6e7d; stroke:none;" d="M312 378L313 379L312 378z"/>
<path style="fill:#ffb1b3; stroke:none;" d="M554 378L555 379L554 378z"/>
<path style="fill:#f86473; stroke:none;" d="M639 378L640 379L639 378z"/>
<path style="fill:#f0aead; stroke:none;" d="M226 380L227 381L226 380z"/>
<path style="fill:#f98075; stroke:none;" d="M311 380L312 381L311 380z"/>
<path style="fill:#ef6c70; stroke:none;" d="M638 380L639 381L638 380z"/>
<path style="fill:#e2535a; stroke:none;" d="M553 381L554 382L553 381z"/>
<path style="fill:#ffacaa; stroke:none;" d="M225 382L226 383L225 382z"/>
<path style="fill:#f38792; stroke:none;" d="M310 382L311 383L310 382z"/>
<path style="fill:#ffcac6; stroke:none;" d="M552 382L553 383L552 382z"/>
<path style="fill:#e45e6e; stroke:none;" d="M637 382L638 383L637 382z"/>
<path style="fill:#e94c5d; stroke:none;" d="M552 383L553 384L552 383z"/>
<path style="fill:#ff9f88; stroke:none;" d="M224 384L225 385L224 384z"/>
<path style="fill:#ea8e92; stroke:none;" d="M309 384L310 385L309 384z"/>
<path style="fill:#ffacaa; stroke:none;" d="M551 384L552 385L551 384z"/>
<path style="fill:#f78b9d; stroke:none;" d="M636 384L637 385L636 384z"/>
<path style="fill:#efa5a6; stroke:none;" d="M223 386L224 387L223 386z"/>
<path style="fill:#f8999d; stroke:none;" d="M308 386L309 387L308 386z"/>
<path style="fill:#f3b3ac; stroke:none;" d="M550 386L551 387L550 386z"/>
<path style="fill:#e99596; stroke:none;" d="M635 386L636 387L635 386z"/>
<path style="fill:#e89598; stroke:none;" d="M222 388L223 389L222 388z"/>
<path style="fill:#ebaea2; stroke:none;" d="M307 388L308 389L307 388z"/>
<path style="fill:#e9929c; stroke:none;" d="M549 388L550 389L549 388z"/>
<path style="fill:#e5b6a7; stroke:none;" d="M634 388L635 389L634 388z"/>
<path style="fill:#e87173; stroke:none;" d="M221 390L222 391L221 390z"/>
<path style="fill:#fdc8c8; stroke:none;" d="M306 390L307 391L306 390z"/>
<path style="fill:#fb8688; stroke:none;" d="M548 390L549 391L548 390z"/>
<path style="fill:#ee5d64; stroke:none;" d="M305 391L306 392L305 391z"/>
<path style="fill:#e84751; stroke:none;" d="M220 392L221 393L220 392z"/>
<path style="fill:#ef4e54; stroke:none;" d="M547 392L548 393L547 392z"/>
<path style="fill:#f6a9b0; stroke:none;" d="M219 393L220 394L219 393z"/>
<path style="fill:#fd808d; stroke:none;" d="M304 393L305 394L304 393z"/>
<path style="fill:#f97478; stroke:none;" d="M631 393L632 394L631 393z"/>
<path style="fill:#f38085; stroke:none;" d="M218 395L219 396L218 395z"/>
<path style="fill:#fda1a9; stroke:none;" d="M303 395L304 396L303 395z"/>
<path style="fill:#ff858b; stroke:none;" d="M545 395L546 396L545 395z"/>
<path style="fill:#e69184; stroke:none;" d="M630 395L631 396L630 395z"/>
<path style="fill:#e34f56; stroke:none;" d="M217 397L218 398L217 397z"/>
<path style="fill:#efcec1; stroke:none;" d="M302 397L303 398L302 397z"/>
<path style="fill:#f04f5e; stroke:none;" d="M544 397L545 398L544 397z"/>
<path style="fill:#f7c3c8; stroke:none;" d="M629 397L630 398L629 397z"/>
<path style="fill:#f49f94; stroke:none;" d="M216 398L217 399L216 398z"/>
<path style="fill:#f16b7d; stroke:none;" d="M301 398L302 399L301 398z"/>
<path style="fill:#ffadb2; stroke:none;" d="M543 398L544 399L543 398z"/>
<path style="fill:#e1585e; stroke:none;" d="M628 398L629 399L628 398z"/>
<path style="fill:#fb4f5d; stroke:none;" d="M215 400L216 401L215 400z"/>
<path style="fill:#f19c9d; stroke:none;" d="M300 400L301 401L300 400z"/>
<path style="fill:#fc868b; stroke:none;" d="M542 400L543 401L542 400z"/>
<path style="fill:#f68ca1; stroke:none;" d="M627 400L628 401L627 400z"/>
<path style="fill:#ffbebc; stroke:none;" d="M214 401L215 402L214 401z"/>
<path style="fill:#ffc8c8; stroke:none;" d="M541 401L542 402L541 401z"/>
<path style="fill:#f1596f; stroke:none;" d="M213 403L214 404L213 403z"/>
<path style="fill:#ec160d; stroke:none;" d="M214 403C213.043 404.517 212.613 405.339 212 407L216 406C215.309 404.612 215.015 404.139 214 403z"/>
<path style="fill:#fd7688; stroke:none;" d="M298 403L299 404L298 403z"/>
<path style="fill:#fe7a87; stroke:none;" d="M540 403L541 404L540 403z"/>
<path style="fill:#ed6a7b; stroke:none;" d="M625 403L626 404L625 403z"/>
<path style="fill:#fac6be; stroke:none;" d="M212 404L213 405L212 404z"/>
<path style="fill:#ffc5be; stroke:none;" d="M539 404L540 405L539 404z"/>
<path style="fill:#ffbfc4; stroke:none;" d="M297 405L298 406L297 405z"/>
<path style="fill:#fcaaaa; stroke:none;" d="M624 405L625 406L624 405z"/>
<path style="fill:#ea626c; stroke:none;" d="M211 406L212 407L211 406z"/>
<path style="fill:#df6178; stroke:none;" d="M296 406L297 407L296 406z"/>
<path style="fill:#f7757c; stroke:none;" d="M538 406L539 407L538 406z"/>
<path style="fill:#eda3ab; stroke:none;" d="M210 407L211 408L210 407z"/>
<path style="fill:#ffb8be; stroke:none;" d="M537 407L538 408L537 407z"/>
<path style="fill:#e5a298; stroke:none;" d="M295 408L296 409L295 408z"/>
<path style="fill:#f9121d; stroke:none;" d="M537 408L535 413C537.044 411.376 537.896 410.357 539 408L537 408z"/>
<path style="fill:#daa098; stroke:none;" d="M622 408L623 409L622 408z"/>
<path style="fill:#f73a5b; stroke:none;" d="M209 409L210 410L209 409z"/>
<path style="fill:#e94d59; stroke:none;" d="M294 409L295 410L294 409z"/>
<path style="fill:#de5d60; stroke:none;" d="M536 409L537 410L536 409z"/>
<path style="fill:#e94f5c; stroke:none;" d="M621 409L622 410L621 409z"/>
<path style="fill:#ed9390; stroke:none;" d="M208 410L209 411L208 410z"/>
<path style="fill:#f79a9e; stroke:none;" d="M535 410L536 411L535 410z"/>
<path style="fill:#f9a2a0; stroke:none;" d="M293 411L294 412L293 411z"/>
<path style="fill:#ed9b98; stroke:none;" d="M620 411L621 412L620 411z"/>
<path style="fill:#e65866; stroke:none;" d="M619 412L620 413L619 412z"/>
<path style="fill:#ec4b5f; stroke:none;" d="M206 413L207 414L206 413z"/>
<path style="fill:#fa4e66; stroke:none;" d="M533 413L534 414L533 413z"/>
<path style="fill:#f27c81; stroke:none;" d="M205 414L206 415L205 414z"/>
<path style="fill:#ffc5c7; stroke:none;" d="M291 414L292 415L291 414z"/>
<path style="fill:#f09490; stroke:none;" d="M532 414L533 415L532 414z"/>
<path style="fill:#e4a7a3; stroke:none;" d="M618 414L619 415L618 414z"/>
<path style="fill:#ffcac0; stroke:none;" d="M204 415L205 416L204 415z"/>
<path style="fill:#e05f62; stroke:none;" d="M290 415L291 416L290 415z"/>
<path style="fill:#f04d5b; stroke:none;" d="M617 415L618 416L617 415z"/>
<path style="fill:#eeccb7; stroke:none;" d="M289 417L290 418L289 417z"/>
<path style="fill:#ffacb1; stroke:none;" d="M616 417L617 418L616 417z"/>
<path style="fill:#f75563; stroke:none;" d="M202 418L203 419L202 418z"/>
<path style="fill:#fd798b; stroke:none;" d="M288 418L289 419L288 418z"/>
<path style="fill:#ee6172; stroke:none;" d="M529 418L530 419L529 418z"/>
<path style="fill:#ea7076; stroke:none;" d="M615 418L616 419L615 418z"/>
<path style="fill:#ea8186; stroke:none;" d="M201 419L202 420L201 419z"/>
<path style="fill:#f4a293; stroke:none;" d="M528 419L529 420L528 419z"/>
<path style="fill:#f6a69c; stroke:none;" d="M200 420L201 421L200 420z"/>
<path style="fill:#ffb8be; stroke:none;" d="M527 420L528 421L527 420z"/>
<path style="fill:#f79fa3; stroke:none;" d="M286 421L287 422L286 421z"/>
<path style="fill:#ffa9aa; stroke:none;" d="M613 421L614 422L613 421z"/>
<path style="fill:#f55d6c; stroke:none;" d="M285 422L286 423L285 422z"/>
<path style="fill:#ef4e69; stroke:none;" d="M612 422L613 423L612 422z"/>
<path style="fill:#f95763; stroke:none;" d="M524 424L525 425L524 424z"/>
<path style="fill:#ff6478; stroke:none;" d="M196 425L197 426L196 425z"/>
<path style="fill:#f19f95; stroke:none;" d="M283 425L284 426L283 425z"/>
<path style="fill:#f66e80; stroke:none;" d="M523 425L524 426L523 425z"/>
<path style="fill:#f18989; stroke:none;" d="M610 425L611 426L610 425z"/>
<path style="fill:#f36673; stroke:none;" d="M195 426L196 427L195 426z"/>
<path style="fill:#f75369; stroke:none;" d="M282 426L283 427L282 426z"/>
<path style="fill:#ee8489; stroke:none;" d="M522 426L523 427L522 426z"/>
<path style="fill:#e7525c; stroke:none;" d="M609 426L610 427L609 426z"/>
<path style="fill:#f499a5; stroke:none;" d="M194 427L195 428L194 427z"/>
<path style="fill:#f7a5a8; stroke:none;" d="M521 427L522 428L521 427z"/>
<path style="fill:#fda8a8; stroke:none;" d="M193 428L194 429L193 428z"/>
<path style="fill:#f1b09f; stroke:none;" d="M520 428L521 429L520 428z"/>
<path style="fill:#ffacc0; stroke:none;" d="M192 429L193 430L192 429z"/>
<path style="fill:#ffa3ab; stroke:none;" d="M280 429L281 430L280 429z"/>
<path style="fill:#ffa1b3; stroke:none;" d="M519 429L520 430L519 429z"/>
<path style="fill:#edada1; stroke:none;" d="M607 429L608 430L607 429z"/>
<path style="fill:#ffa9ab; stroke:none;" d="M191 430L192 431L191 430z"/>
<path style="fill:#f17d7e; stroke:none;" d="M279 430L280 431L279 430z"/>
<path style="fill:#fd677e; stroke:none;" d="M606 430L607 431L606 430z"/>
<path style="fill:#de4a57; stroke:none;" d="M278 431L279 432L278 431z"/>
<path style="fill:#ffb9bd; stroke:none;" d="M276 434L277 435L276 434z"/>
<path style="fill:#f7adaa; stroke:none;" d="M603 434L604 435L603 434z"/>
<path style="fill:#ee868e; stroke:none;" d="M275 435L276 436L275 435z"/>
<path style="fill:#d57267; stroke:none;" d="M602 435L603 436L602 435z"/>
<path style="fill:#f8c0b7; stroke:none;" d="M185 436L186 437L185 436z"/>
<path style="fill:#ec5f62; stroke:none;" d="M274 436L275 437L274 436z"/>
<path style="fill:#e75164; stroke:none;" d="M601 436L602 437L601 436z"/>
<path style="fill:#f8b5ac; stroke:none;" d="M184 437L185 438L184 437z"/>
<path style="fill:#ffb6bf; stroke:none;" d="M511 437L512 438L511 437z"/>
<path style="fill:#ffb5b1; stroke:none;" d="M183 438L184 439L183 438z"/>
<path style="fill:#feb6b0; stroke:none;" d="M510 438L511 439L510 438z"/>
<path style="fill:#f00618; stroke:none;" d="M598 438C596.652 439.768 595.878 440.983 595 443C597.015 441.356 598.098 440.587 598 438z"/>
<path style="fill:#feb4ae; stroke:none;" d="M182 439L183 440L182 439z"/>
<path style="fill:#f8a6b1; stroke:none;" d="M509 439L510 440L509 439z"/>
<path style="fill:#ee778a; stroke:none;" d="M181 440L182 441L181 440z"/>
<path style="fill:#ffbbc0; stroke:none;" d="M271 440L272 441L271 440z"/>
<path style="fill:#f79e98; stroke:none;" d="M508 440L509 441L508 440z"/>
<path style="fill:#fbb2ab; stroke:none;" d="M598 440L599 441L598 440z"/>
<path style="fill:#ef6770; stroke:none;" d="M180 441L181 442L180 441z"/>
<path style="fill:#ffafbb; stroke:none;" d="M270 441L271 442L270 441z"/>
<path style="fill:#ef7781; stroke:none;" d="M507 441L508 442L507 441z"/>
<path style="fill:#f88c95; stroke:none;" d="M597 441L598 442L597 441z"/>
<path style="fill:#e84756; stroke:none;" d="M179 442L180 443L179 442z"/>
<path style="fill:#e86878; stroke:none;" d="M269 442L270 443L269 442z"/>
<path style="fill:#f8616b; stroke:none;" d="M506 442L507 443L506 442z"/>
<path style="fill:#fd6b77; stroke:none;" d="M596 442L597 443L596 442z"/>
<path style="fill:#ef7177; stroke:none;" d="M268 443L269 444L268 443z"/>
<path style="fill:#ff3956; stroke:none;" d="M505 443L506 444L505 443z"/>
<path style="fill:#fd5b6e; stroke:none;" d="M595 443L596 444L595 443z"/>
<path style="fill:#e14149; stroke:none;" d="M594 444L595 445L594 444z"/>
<path style="fill:#ffa4b7; stroke:none;" d="M175 445L176 446L175 445z"/>
<path style="fill:#f93d51; stroke:none;" d="M266 445L267 446L266 445z"/>
<path style="fill:#f39793; stroke:none;" d="M174 446L175 447L174 446z"/>
<path style="fill:#fba1a1; stroke:none;" d="M501 446L502 447L501 446z"/>
<path style="fill:#f76d7f; stroke:none;" d="M173 447L174 448L173 447z"/>
<path style="fill:#db6f7a; stroke:none;" d="M500 447L501 448L500 447z"/>
<path style="fill:#ef0517; stroke:none;" d="M587 449L584 454C586.763 452.701 588.164 451.447 590 449L587 449z"/>
<path style="fill:#edd0c3; stroke:none;" d="M590 449L591 450L590 449z"/>
<path style="fill:#e48285; stroke:none;" d="M169 450L170 451L169 450z"/>
<path style="fill:#f5c2bf; stroke:none;" d="M262 450L263 451L262 450z"/>
<path style="fill:#f7a391; stroke:none;" d="M496 450L497 451L496 450z"/>
<path style="fill:#ebbbaf; stroke:none;" d="M589 450L590 451L589 450z"/>
<path style="fill:#ea505c; stroke:none;" d="M168 451L169 452L168 451z"/>
<path style="fill:#f8b2b4; stroke:none;" d="M261 451L262 452L261 451z"/>
<path style="fill:#de5f6d; stroke:none;" d="M495 451L496 452L495 451z"/>
<path style="fill:#e6b8ae; stroke:none;" d="M588 451L589 452L588 451z"/>
<path style="fill:#ef0a1a; stroke:none;" d="M167 452L159 458C162.667 458.779 167.088 455.898 167 452z"/>
<path style="fill:#efb7b7; stroke:none;" d="M260 452L261 453L260 452z"/>
<path style="fill:#f9b5b5; stroke:none;" d="M587 452L588 453L587 452z"/>
<path style="fill:#f09393; stroke:none;" d="M165 453L166 454L165 453z"/>
<path style="fill:#f4afae; stroke:none;" d="M259 453L260 454L259 453z"/>
<path style="fill:#faa4a7; stroke:none;" d="M492 453L493 454L492 453z"/>
<path style="fill:#f5b9b1; stroke:none;" d="M586 453L587 454L586 453z"/>
<path style="fill:#ed4e5f; stroke:none;" d="M164 454L165 455L164 454z"/>
<path style="fill:#efb0aa; stroke:none;" d="M258 454L259 455L258 454z"/>
<path style="fill:#db4e5f; stroke:none;" d="M491 454L492 455L491 454z"/>
<path style="fill:#f1a7a4; stroke:none;" d="M585 454L586 455L585 454z"/>
<path style="fill:#fcbcbe; stroke:none;" d="M162 455L163 456L162 455z"/>
<path style="fill:#f9b8b8; stroke:none;" d="M257 455L258 456L257 455z"/>
<path style="fill:#f0a8a7; stroke:none;" d="M584 455L585 456L584 455z"/>
<path style="fill:#e46f6d; stroke:none;" d="M161 456L162 457L161 456z"/>
<path style="fill:#ff645b; stroke:none;" d="M488 456L489 457L488 456z"/>
<path style="fill:#fbb1aa; stroke:none;" d="M583 456L584 457L583 456z"/>
<path style="fill:#e6c6b8; stroke:none;" d="M159 457L160 458L159 457z"/>
<path style="fill:#f7b7bb; stroke:none;" d="M255 457L256 458L255 457z"/>
<path style="fill:#f2bdb1; stroke:none;" d="M582 457L583 458L582 457z"/>
<path style="fill:#f68385; stroke:none;" d="M158 458L159 459L158 458z"/>
<path style="fill:#f8b8b8; stroke:none;" d="M254 458L255 459L254 458z"/>
<path style="fill:#f28899; stroke:none;" d="M485 458L486 459L485 458z"/>
<path style="fill:#e9b9ab; stroke:none;" d="M581 458L582 459L581 458z"/>
<path style="fill:#fbb5b4; stroke:none;" d="M253 459L254 460L253 459z"/>
<path style="fill:#e8bbab; stroke:none;" d="M580 459L581 460L580 459z"/>
<path style="fill:#ffadae; stroke:none;" d="M155 460L156 461L155 460z"/>
<path style="fill:#f4bcbc; stroke:none;" d="M252 460L253 461L252 460z"/>
<path style="fill:#ffb1b6; stroke:none;" d="M482 460L483 461L482 460z"/>
<path style="fill:#f9b1ab; stroke:none;" d="M579 460L580 461L579 460z"/>
<path style="fill:#f0746e; stroke:none;" d="M154 461L155 462L154 461z"/>
<path style="fill:#f8b2b1; stroke:none;" d="M251 461L252 462L251 461z"/>
<path style="fill:#ff8d94; stroke:none;" d="M481 461L482 462L481 461z"/>
<path style="fill:#f3bdb0; stroke:none;" d="M578 461L579 462L578 461z"/>
<path style="fill:#f3727c; stroke:none;" d="M153 462L154 463L153 462z"/>
<path style="fill:#ffccca; stroke:none;" d="M250 462L251 463L250 462z"/>
<path style="fill:#f67278; stroke:none;" d="M480 462L481 463L480 462z"/>
<path style="fill:#e8b2ab; stroke:none;" d="M577 462L578 463L577 462z"/>
<path style="fill:#ff626a; stroke:none;" d="M152 463L153 464L152 463z"/>
<path style="fill:#beadae; stroke:none;" d="M479 463L480 464L479 463z"/>
<path style="fill:#faae9e; stroke:none;" d="M151 464L152 465L151 464z"/>
<path style="fill:#faaaa5; stroke:none;" d="M478 464L479 465L478 464z"/>
<path style="fill:#e17d79; stroke:none;" d="M149 467L150 468L149 467z"/>
<path style="fill:#ed898b; stroke:none;" d="M476 467L477 468L476 467z"/>
<path style="fill:#eb636d; stroke:none;" d="M243 468L244 469L243 468z"/>
<path style="fill:#ee5862; stroke:none;" d="M570 468L571 469L570 468z"/>
<path style="fill:#e65161; stroke:none;" d="M148 469L149 470L148 469z"/>
<path style="fill:#ec6f7e; stroke:none;" d="M242 469L243 470L242 469z"/>
<path style="fill:#f26169; stroke:none;" d="M475 469L476 470L475 469z"/>
<path style="fill:#f16573; stroke:none;" d="M569 469L570 470L569 469z"/>
<path style="fill:#f2d4c2; stroke:none;" d="M147 470L148 471L147 470z"/>
<path style="fill:#ffaebc; stroke:none;" d="M241 470L242 471L241 470z"/>
<path style="fill:#f6a39a; stroke:none;" d="M568 470L569 471L568 470z"/>
<path style="fill:#f86971; stroke:none;" d="M147 471L148 472L147 471z"/>
<path style="fill:#ffb2b9; stroke:none;" d="M240 471L241 472L240 471z"/>
<path style="fill:#f86871; stroke:none;" d="M474 471L475 472L474 471z"/>
<path style="fill:#ff9e8b; stroke:none;" d="M567 471L568 472L567 471z"/>
<path style="fill:#f7a6af; stroke:none;" d="M146 473L147 474L146 473z"/>
<path style="fill:#f4b5ac; stroke:none;" d="M473 473L474 474L473 473z"/>
<path style="fill:#dc6b65; stroke:none;" d="M236 474L237 475L236 474z"/>
<path style="fill:#e54d5c; stroke:none;" d="M473 474L474 475L473 474z"/>
<path style="fill:#ec5758; stroke:none;" d="M563 474L564 475L563 474z"/>
<path style="fill:#eb9698; stroke:none;" d="M235 475L236 476L235 475z"/>
<path style="fill:#fa7b89; stroke:none;" d="M562 475L563 476L562 475z"/>
<path style="fill:#ffcaca; stroke:none;" d="M234 476L235 477L234 476z"/>
<path style="fill:#ffa8b1; stroke:none;" d="M561 476L562 477L561 476z"/>
<path style="fill:#fb656e; stroke:none;" d="M145.333 477.667C145.278 477.722 145.222 478.778 145.667 478.333C145.722 478.278 145.778 477.222 145.333 477.667z"/>
<path style="fill:#f98086; stroke:none;" d="M472.333 477.667C472.278 477.722 472.222 478.778 472.667 478.333C472.722 478.278 472.778 477.222 472.333 477.667z"/>
<path style="fill:#f9cacb; stroke:none;" d="M560 477L561 478L560 477z"/>
<path style="fill:#ed4b59; stroke:none;" d="M231 478L232 479L231 478z"/>
<path style="fill:#fc4664; stroke:none;" d="M558 478L559 479L558 478z"/>
<path style="fill:#fa3848; stroke:none;" d="M145.333 479.667C145.278 479.722 145.222 480.778 145.667 480.333C145.722 480.278 145.778 479.222 145.333 479.667z"/>
<path style="fill:#eb8682; stroke:none;" d="M230 479L231 480L230 479z"/>
<path style="fill:#f24348; stroke:none;" d="M472 479L472 486C473.059 483.466 473.059 481.534 472 479z"/>
<path style="fill:#f6918d; stroke:none;" d="M557 479L558 480L557 479z"/>
<path style="fill:#fbb4ab; stroke:none;" d="M229 480L230 481L229 480z"/>
<path style="fill:#fab2af; stroke:none;" d="M556 480L557 481L556 480z"/>
<path style="fill:#ef6a78; stroke:none;" d="M226 482L227 483L226 482z"/>
<path style="fill:#e6676c; stroke:none;" d="M553 482L554 483L553 482z"/>
<path style="fill:#ffaea8; stroke:none;" d="M225 483L226 484L225 483z"/>
<path style="fill:#e49a9b; stroke:none;" d="M552 483L553 484L552 483z"/>
<path style="fill:#df5655; stroke:none;" d="M145.333 485.667C145.278 485.722 145.222 486.778 145.667 486.333C145.722 486.278 145.778 485.222 145.333 485.667z"/>
<path style="fill:#ef5f70; stroke:none;" d="M222 485L223 486L222 485z"/>
<path style="fill:#eb6875; stroke:none;" d="M549 485L550 486L549 485z"/>
<path style="fill:#fbbcb5; stroke:none;" d="M221 486L222 487L221 486z"/>
<path style="fill:#ff837b; stroke:none;" d="M472.333 486.667C472.278 486.722 472.222 487.778 472.667 487.333C472.722 487.278 472.778 486.222 472.333 486.667z"/>
<path style="fill:#efb0a9; stroke:none;" d="M548 486L549 487L548 486z"/>
<path style="fill:#f0b9b5; stroke:none;" d="M145.333 487.667C145.278 487.722 145.222 488.778 145.667 488.333C145.722 488.278 145.778 487.222 145.333 487.667z"/>
<path style="fill:#f98198; stroke:none;" d="M218 488L219 489L218 488z"/>
<path style="fill:#fb9b9d; stroke:none;" d="M545 488L546 489L545 488z"/>
<path style="fill:#f58289; stroke:none;" d="M215 490L216 491L215 490z"/>
<path style="fill:#e1646d; stroke:none;" d="M542 490L543 491L542 490z"/>
<path style="fill:#f76a72; stroke:none;" d="M146 491L147 492L146 491z"/>
<path style="fill:#e2090f; stroke:none;" d="M211 493L214 492C212.222 491.045 211.979 491.234 211 493z"/>
<path style="fill:#ed8187; stroke:none;" d="M473 491L474 492L473 491z"/>
<path style="fill:#ffcbc5; stroke:none;" d="M541 491L542 492L541 491z"/>
<path style="fill:#ff667b; stroke:none;" d="M212 492L213 493L212 492z"/>
<path style="fill:#e56468; stroke:none;" d="M539 492L540 493L539 492z"/>
<path style="fill:#ffb8bc; stroke:none;" d="M211 493L212 494L211 493z"/>
<path style="fill:#f6cbc6; stroke:none;" d="M538 493L539 494L538 493z"/>
<path style="fill:#e6999a; stroke:none;" d="M147 494L148 495L147 494z"/>
<path style="fill:#e35a64; stroke:none;" d="M209 494L210 495L209 494z"/>
<path style="fill:#f5a8ac; stroke:none;" d="M474 494L475 495L474 494z"/>
<path style="fill:#e05960; stroke:none;" d="M536 494L537 495L536 494z"/>
<path style="fill:#ffbe9e; stroke:none;" d="M535 495L536 496L535 495z"/>
<path style="fill:#fa8896; stroke:none;" d="M148 496L149 497L148 496z"/>
<path style="fill:#e97e92; stroke:none;" d="M206 496L207 497L206 496z"/>
<path style="fill:#ffacb1; stroke:none;" d="M475 496L476 497L475 496z"/>
<path style="fill:#fa7786; stroke:none;" d="M533 496L534 497L533 496z"/>
<path style="fill:#fcc3bf; stroke:none;" d="M532 497L533 498L532 497z"/>
<path style="fill:#fd919c; stroke:none;" d="M203 498L204 499L203 498z"/>
<path style="fill:#f58d94; stroke:none;" d="M530 498L531 499L530 498z"/>
<path style="fill:#f0888b; stroke:none;" d="M150 499L151 500L150 499z"/>
<path style="fill:#f45a66; stroke:none;" d="M201 499L202 500L201 499z"/>
<path style="fill:#ef9298; stroke:none;" d="M477 499L478 500L477 499z"/>
<path style="fill:#ea4c61; stroke:none;" d="M528 499L529 500L528 499z"/>
<path style="fill:#fbbfba; stroke:none;" d="M200 500L201 501L200 500z"/>
<path style="fill:#e25364; stroke:none;" d="M478 500L479 501L478 500z"/>
<path style="fill:#fec4c4; stroke:none;" d="M527 500L528 501L527 500z"/>
<path style="fill:#fa8795; stroke:none;" d="M198 501L199 502L198 501z"/>
<path style="fill:#ff112a; stroke:none;" d="M480 501C480.936 502.949 481.392 503.55 483 505L483 501L480 501z"/>
<path style="fill:#f48a8b; stroke:none;" d="M525 501L526 502L525 501z"/>
<path style="fill:#f2616a; stroke:none;" d="M196 502L197 503L196 502z"/>
<path style="fill:#e9545d; stroke:none;" d="M523 502L524 503L523 502z"/>
<path style="fill:#fbc2c7; stroke:none;" d="M195 503L196 504L195 503z"/>
<path style="fill:#ffaeb7; stroke:none;" d="M193 504L194 505L193 504z"/>
<path style="fill:#cbbac0; stroke:none;" d="M520 504L521 505L520 504z"/>
<path style="fill:#e3596b; stroke:none;" d="M156 505L157 506L156 505z"/>
<path style="fill:#fa8398; stroke:none;" d="M191 505L192 506L191 505z"/>
<path style="fill:#eb6976; stroke:none;" d="M483 505L484 506L483 505z"/>
<path style="fill:#d20c0b; stroke:none;" d="M484.667 505.333C484.222 505.778 485.278 505.722 485.333 505.667C485.778 505.222 484.722 505.278 484.667 505.333z"/>
<path style="fill:#fa818b; stroke:none;" d="M518 505L519 506L518 505z"/>
<path style="fill:#f3a1a1; stroke:none;" d="M157 506L158 507L157 506z"/>
<path style="fill:#e35560; stroke:none;" d="M189 506L190 507L189 506z"/>
<path style="fill:#fdbebc; stroke:none;" d="M484 506L485 507L484 506z"/>
<path style="fill:#f66672; stroke:none;" d="M516 506L517 507L516 506z"/>
<path style="fill:#eb5a6e; stroke:none;" d="M159 507L160 508L159 507z"/>
<path style="fill:#e45a64; stroke:none;" d="M486 507L487 508L486 507z"/>
<path style="fill:#e5b6af; stroke:none;" d="M515 507L516 508L515 507z"/>
<path style="fill:#ea616e; stroke:none;" d="M161 508L162 509L161 508z"/>
<path style="fill:#ffbccb; stroke:none;" d="M186 508L187 509L186 508z"/>
<path style="fill:#ff5a63; stroke:none;" d="M488 508L489 509L488 508z"/>
<path style="fill:#d00210; stroke:none;" d="M489.667 508.333C489.222 508.778 490.278 508.722 490.333 508.667C490.778 508.222 489.722 508.278 489.667 508.333z"/>
<path style="fill:#f5a5a1; stroke:none;" d="M513 508L514 509L513 508z"/>
<path style="fill:#eb8185; stroke:none;" d="M163 509L164 510L163 509z"/>
<path style="fill:#fd574f; stroke:none;" d="M183 509L184 510L183 509z"/>
<path style="fill:#f4cbc4; stroke:none;" d="M184 509L185 510L184 509z"/>
<path style="fill:#f69094; stroke:none;" d="M490 509L491 510L490 509z"/>
<path style="fill:#ea080e; stroke:none;" d="M496 509C498.431 511.782 502.491 511 506 511C502.888 509.691 499.321 509.791 496 509z"/>
<path style="fill:#f55a66; stroke:none;" d="M510 509L511 510L510 509z"/>
<path style="fill:#ffaca4; stroke:none;" d="M511 509L512 510L511 509z"/>
<path style="fill:#eafffc; stroke:none;" d="M510 510C512.239 510.811 513.647 510.529 516 510C513.761 509.189 512.353 509.471 510 510z"/>
<path style="fill:#ff938f; stroke:none;" d="M166 510L167 511L166 510z"/>
<path style="fill:#ee5957; stroke:none;" d="M167 510L168 511L167 510z"/>
<path style="fill:#e30509; stroke:none;" d="M168 510C171.432 511.44 175.3 511 179 511C175.568 509.56 171.7 510 168 510z"/>
<path style="fill:#fe4152; stroke:none;" d="M179 510L180 511L179 510z"/>
<path style="fill:#fa7c8b; stroke:none;" d="M180 510L181 511L180 510z"/>
<path style="fill:#fec3d0; stroke:none;" d="M181 510L182 511L181 510z"/>
<path style="fill:#f9969c; stroke:none;" d="M493 510L494 511L493 510z"/>
<path style="fill:#f97579; stroke:none;" d="M507 510L508 511L507 510z"/>
<path style="fill:#ffd4d7; stroke:none;" d="M170 511C172.332 511.985 174.457 511.981 177 512C174.668 511.015 172.543 511.019 170 511z"/>
<path style="fill:#ffd7da; stroke:none;" d="M497 511C499.332 511.985 501.457 511.981 504 512C501.668 511.015 499.543 511.019 497 511z"/>
</svg>
