<svg id="Layer_1" enable-background="new 0 0 512.002 512.002" height="512" viewBox="0 0 512.002 512.002" width="512" xmlns="http://www.w3.org/2000/svg"><g><g><path d="m349.578 289.999h-48.577c-5.522 0-10 4.477-10 10s4.478 10 10 10h48.577c5.514 0 9.999 4.486 9.999 10v19.999c0 6.298-7.763 9.15-12.39 10.29l-70.603 17.384c-6.596 1.609-12.944 2.327-20.584 2.327-7.641 0-13.989-.718-20.564-2.322l-70.623-17.389c-4.627-1.139-12.39-3.991-12.39-10.29v-19.999c0-5.514 4.486-10 10-10h48.577c5.523 0 10-4.477 10-10s-4.477-10-10-10h-48.577c-16.542 0-30 13.458-30 30v19.999 96.828c0 11.028 8.972 20 20 20h207.155c11.027 0 19.999-8.972 19.999-20v-96.828-19.999c0-16.542-13.457-30-29.999-30zm-197.154 146.827v-69.614c2.356.991 4.896 1.828 7.608 2.495l70.643 17.395c8.1 1.976 16.147 2.896 25.325 2.896 9.177 0 17.224-.92 25.345-2.902l70.623-17.389c2.712-.668 5.252-1.505 7.609-2.496l.001 69.614z"/><path d="m447.501 330.076v-190.076c0-38.598-31.401-70-69.999-70h-51.86c-8.786-4.901-18.042-8.833-27.641-11.764v-28.236c0-16.542-13.457-30-29.999-30h-24.002c-16.542 0-30 13.458-30 30v28.236c-9.598 2.931-18.854 6.864-27.64 11.764h-51.86c-38.598 0-70 31.402-70 70v190.076c-10.327.772-18.5 9.402-18.5 19.923v112.002c0 27.57 22.43 50 50 50h60 200 60c27.57 0 50-22.43 50-50v-112.001c.001-10.522-8.171-19.152-18.499-19.924zm-69.999-240.076c27.569 0 49.999 22.43 49.999 50v190h-10.799l-10.736-128.829c-3.313-39.766-19.512-76.764-45.612-104.177-2.31-2.426-4.691-4.752-7.128-6.994zm-21.501 402.002h-200c-14.332 0-28.688-6.303-38.403-16.861-8.47-9.205-12.601-20.679-11.631-32.308l20-240c3.721-44.661 26.786-89.7 66.215-113.523 1.005-.392 1.933-.935 2.749-1.612 17.386-9.88 37.823-15.696 61.07-15.696 23.248 0 43.685 5.816 61.072 15.697.815.677 1.743 1.218 2.747 1.61 39.43 23.823 62.494 68.862 66.215 113.523l20 240c.97 11.629-3.161 23.103-11.63 32.308-9.715 10.558-24.072 16.862-38.404 16.862zm-122.001-462.002c0-5.514 4.486-10 10-10h24.002c5.514 0 9.999 4.486 9.999 10v23.668c-7.212-1.105-14.56-1.667-22-1.667s-14.789.562-22.001 1.667zm-99.5 60h24.277c-2.438 2.242-4.819 4.568-7.129 6.994-26.1 27.413-42.298 64.411-45.612 104.177l-10.736 128.829h-10.8v-190c0-27.57 22.43-50 50-50zm-38.499 402.002c-16.542 0-30-13.458-30-30v-112.002h27.633l-7.598 91.171c-1.439 17.269 4.543 34.142 16.844 47.511 1.058 1.149 2.161 2.247 3.285 3.319h-10.164zm350-30c0 16.542-13.458 30-30 30h-10.165c1.125-1.073 2.228-2.17 3.286-3.32 12.301-13.369 18.283-30.242 16.844-47.511l-7.598-91.171h27.633z"/><path d="m241.859 234.425c3.77 3.77 8.792 5.846 14.142 5.846s10.373-2.076 14.142-5.846l28.285-28.285c7.797-7.797 7.798-20.485 0-28.284l-28.285-28.284c-3.77-3.77-8.792-5.846-14.142-5.846s-10.372 2.076-14.142 5.846l-28.285 28.285c-3.77 3.77-5.846 8.792-5.846 14.142 0 5.351 2.076 10.373 5.846 14.142zm14.142-70.711 28.285 28.284-28.284 28.285-28.287-28.283z"/><path d="m255.997 289.999c-5.523 0-9.996 4.477-9.996 10s4.48 10 10.003 10c5.522 0 10-4.477 10-10s-4.478-10-10-10z"/></g></g></svg>