<svg id="SvgjsSvg1019" width="288" height="288" xmlns="http://www.w3.org/2000/svg" version="1.1" xmlns:xlink="http://www.w3.org/1999/xlink" xmlns:svgjs="http://svgjs.com/svgjs"><defs id="SvgjsDefs1020"></defs><g id="SvgjsG1021"><svg xmlns="http://www.w3.org/2000/svg" enable-background="new 0 0 512 512" viewBox="0 0 512 512" width="288" height="288"><path d="M437.051,422.847c-3.906-3.905-10.268-3.874-14.174,0.031c-3.905,3.905-3.905,10.237,0,14.143
			c1.953,1.952,4.512,2.929,7.071,2.929s5.118-0.977,7.071-2.929l0.063-0.063C440.987,433.053,440.956,426.752,437.051,422.847z" fill="#6f6f6f" class="color000 svgShape"></path><path d="M511.491,239.82c-3.915-62.189-30.363-120.73-74.472-164.839C388.667,26.63,324.38,0.001,256,0.001
			c-65.179,0-126.638,24.192-174.124,68.332l-10.872-9.955c-2.925-2.679-7.153-3.376-10.782-1.777
			c-3.629,1.598-5.971,5.188-5.971,9.152v74.749c0,5.522,4.478,10,10,10H139c3.99,0,7.599-2.372,9.181-6.036
			c1.582-3.663,0.834-7.917-1.902-10.821l-17.604-18.686c74.492-67.323,189.899-65.099,261.682,6.686
			c74.085,74.084,74.085,194.629,0,268.713C354.469,426.245,306.753,446.01,256,446.01s-98.469-19.765-134.356-55.652
			C85.755,354.469,65.99,306.755,65.99,256.001c0-5.522-4.478-10-10-10H10c-5.522,0-10,4.478-10,10
			c0,68.38,26.629,132.667,74.98,181.02c43.813,43.813,101.95,70.234,163.7,74.397c5.778,0.39,11.543,0.582,17.302,0.582
			c55.186,0,109.029-17.772,153.231-50.87c4.421-3.311,5.32-9.578,2.011-13.999c-3.312-4.42-9.578-5.32-13.999-2.011
			c-93.188,69.779-225.645,60.217-308.103-22.242c-42.211-42.21-66.463-97.591-68.916-156.877h26.016
			C48.659,318.343,70.2,367.2,107.501,404.5c81.883,81.883,215.115,81.883,296.998,0c81.882-81.883,81.882-215.115,0-296.998
			c-81.883-81.883-215.115-81.883-296.998,0c-3.823,3.823-3.915,9.993-0.207,13.929l8.546,9.071H74.251V88.469l1.048,0.959
			c3.946,3.614,10.038,3.481,13.824-0.304C133.697,44.549,192.962,20.001,256,20.001s122.303,24.548,166.877,69.123
			c83.24,83.24,92.23,216.452,20.912,309.863c-3.352,4.39-2.51,10.665,1.88,14.017c4.388,3.353,10.665,2.51,14.017-1.88
			C496.974,362.286,515.372,301.449,511.491,239.82z" fill="#6f6f6f" class="color000 svgShape"></path><path d="M181.392,289h-30.264c1.318-1.208,2.652-2.458,3.987-3.743c18.921-18.217,28.119-33.656,28.119-47.202
			c0-20.968-14.088-35.055-35.056-35.055c-19.329,0-35.055,15.726-35.055,35.055c0,5.522,4.478,10,10,10c5.522,0,10-4.478,10-10
			c0-8.301,6.754-15.055,15.055-15.055c15.056,0,15.056,11.331,15.056,15.055c0,13.92-26.839,39.25-45.895,52.789
			c-3.551,2.519-5.064,7.045-3.743,11.192c1.322,4.147,5.175,6.964,9.528,6.964h58.268c5.522,0,10-4.478,10-10
			C191.392,293.478,186.914,289,181.392,289z" fill="#6f6f6f" class="color000 svgShape"></path><path d="M254.702 257.501h-6.826v-2.833c0-5.522-4.478-10-10-10-5.522 0-10 4.478-10 10v2.833h-13.798l22.5-39.556c2.73-4.801 1.053-10.906-3.748-13.637-4.797-2.729-10.906-1.053-13.637 3.748l-31 54.5c-1.761 3.096-1.742 6.894.048 9.972 1.791 3.079 5.083 4.973 8.645 4.973h30.99v21.5c0 5.522 4.478 10 10 10 5.522 0 10-4.478 10-10v-21.5h6.826c5.522 0 10-4.478 10-10C264.702 261.979 260.224 257.501 254.702 257.501zM317.553 203.668c-5.157-1.982-10.941.587-12.924 5.742l-33.086 86c-1.983 5.154.588 10.94 5.742 12.924 1.182.454 2.395.67 3.589.67 4.017 0 7.807-2.438 9.335-6.412l33.086-86C325.278 211.438 322.707 205.652 317.553 203.668zM397.088 207.295c-1.869-2.69-4.937-4.294-8.212-4.294h-42c-5.522 0-10 4.478-10 10 0 5.522 4.478 10 10 10h27.609l-26.981 72.513c-1.926 5.175.709 10.933 5.885 12.859 1.149.428 2.327.631 3.486.631 4.058 0 7.875-2.489 9.373-6.516l32-86C399.391 213.419 398.957 209.984 397.088 207.295z" fill="#6f6f6f" class="color000 svgShape"></path></svg></g></svg>