<svg id="SvgjsSvg1013" width="288" height="288" xmlns="http://www.w3.org/2000/svg" version="1.1" xmlns:xlink="http://www.w3.org/1999/xlink" xmlns:svgjs="http://svgjs.com/svgjs"><defs id="SvgjsDefs1014"></defs><g id="SvgjsG1015"><svg xmlns="http://www.w3.org/2000/svg" width="288" height="288" enable-background="new 0 0 512 512" viewBox="0 0 512 512"><path d="m381.333 76c11.396 0 20.667-9.271 20.667-20.667v-34.666c0-11.396-9.271-20.667-20.667-20.667h-181.25c-49.672 0-90.083 40.411-90.083 90.084v15.126c0 3.688 2.029 7.076 5.28 8.816 1.479.792 3.101 1.184 4.719 1.184 1.939 0 3.873-.563 5.545-1.678 13.287-8.853 28.747-13.532 44.712-13.532h3.848v36.129c-15.612 39.705-25.665 81.345-29.861 123.808-.543 5.496 3.472 10.392 8.968 10.935.334.033.666.049.996.049 5.079 0 9.429-3.855 9.939-9.017 3.866-39.126 12.928-77.523 26.934-114.237h87.024v17.76c0 37.139 23.581 70.252 58.678 82.398 27.047 9.36 45.219 34.878 45.219 63.498v142.677c0 20.953-17.047 38-38 38h-144.001c-20.953 0-38-17.047-38-38v-103.115c0-5.523-4.477-10-10-10s-10 4.477-10 10v103.115c0 31.981 26.019 58 58 58h144c31.981 0 58-26.019 58-58v-142.677c0-37.139-23.581-70.253-58.678-82.399-27.046-9.359-45.218-34.877-45.218-63.497v-26.322c14.827 18.052 36.555 30.205 61.191 32.436.303.027.605.041.906.041 3.87 0 7.43-2.245 9.075-5.809 1.772-3.839.939-8.379-2.084-11.337-13.519-13.233-20.963-30.933-20.963-49.838v-28.598zm.667-55.333v34.667c0 .368-.299.667-.667.667h-28.5v-36.001h28.5c.368 0 .667.299.667.667zm-251.98 67.716c.906-37.862 31.988-68.383 70.063-68.383h132.75v36h-17.333c-2.424 0-4.766.88-6.589 2.478l-24.568 21.522h-114.087c-13.96 0-27.611 2.867-40.236 8.383zm148.083 11.617v27.666h-84v-27.666zm20.633-6.02 20.525-17.98h6.968v28.597c0 13.938 3.144 27.365 9.101 39.495-19.012-9.871-32.872-28.235-36.594-50.112z" fill="#4a4a4a" class="color000 svgShape"></path><path d="M294 296.333h-44c-5.523 0-10 4.477-10 10v24h-24c-5.523 0-10 4.477-10 10v44c0 5.523 4.477 10 10 10h24v24c0 5.523 4.477 10 10 10h44c5.523 0 10-4.477 10-10v-24h24c5.523 0 10-4.477 10-10v-44c0-5.523-4.477-10-10-10h-24v-24c0-5.523-4.477-10-10-10zm24 54v24h-24c-5.523 0-10 4.477-10 10v24h-24v-24c0-5.523-4.477-10-10-10h-24v-24h24c5.523 0 10-4.477 10-10v-24h24v24c0 5.523 4.477 10 10 10zM152.45 315.88c2.63 0 5.21-1.06 7.07-2.92 1.86-1.87 2.93-4.44 2.93-7.08 0-2.63-1.07-5.2-2.93-7.07-1.86-1.86-4.44-2.921-7.07-2.921-2.64 0-5.21 1.06-7.07 2.921-1.86 1.86-2.93 4.44-2.93 7.07 0 2.64 1.07 5.22 2.93 7.08s4.43 2.92 7.07 2.92z" fill="#4a4a4a" class="color000 svgShape"></path></svg></g></svg>