<svg id="Capa_1" enable-background="new 0 0 512.003 512.003" height="512" viewBox="0 0 512.003 512.003" width="512" xmlns="http://www.w3.org/2000/svg"><g id="XMLID_75_"><g id="XMLID_758_"><path id="XMLID_769_" d="m430.987 41.867c.975 0 1.965-.144 2.945-.445l71.01-21.861c5.278-1.625 8.24-7.222 6.615-12.5-1.625-5.277-7.22-8.24-12.5-6.615l-71.01 21.861c-5.278 1.625-8.24 7.222-6.615 12.5 1.324 4.297 5.281 7.06 9.555 7.06z"/><path id="XMLID_804_" d="m504.942 142.299-80.008-24.632c-5.28-1.624-10.875 1.338-12.5 6.615-1.625 5.278 1.337 10.875 6.615 12.5l80.008 24.632c.98.302 1.971.445 2.945.445 4.274 0 8.232-2.763 9.555-7.061 1.626-5.278-1.336-10.874-6.615-12.499z"/><path id="XMLID_805_" d="m425.259 90.003h76.741c5.522 0 10-4.478 10-10s-4.478-10-10-10h-76.741c-5.522 0-10 4.478-10 10s4.477 10 10 10z"/><path id="XMLID_808_" d="m361.129 171.115h-60.123c.154-2.923-.293-5.906-1.423-8.766-2.81-7.117-4.233-14.645-4.233-22.373v-24.361h30.154c4.431 0 8.509-1.503 11.787-4.003l23.191 7.139c.98.302 1.971.445 2.945.445 4.274 0 8.231-2.763 9.555-7.061 1.625-5.278-1.337-10.875-6.615-12.5l-21.367-6.576v-24.258l33.593-10.342c5.278-1.625 8.24-7.222 6.615-12.5s-7.221-8.241-12.5-6.615l-34.96 10.763c-3.35-2.712-7.608-4.345-12.244-4.345h-64.256c-5.522 0-10 4.478-10 10s4.478 10 10 10h19.982v29.854h-14.333c-2.424 0-4.766.881-6.59 2.478l-21.561 18.888h-25.624c-6.662-17.094-25.112-26.389-42.999-21.278l-2.909.831c-6.591 1.884-13.076 4.073-19.444 6.532 5.569-13.162 15.66-24.104 28.878-30.773 4.931-2.487 6.911-8.502 4.423-13.433-2.487-4.931-8.502-6.913-13.433-4.423-23.434 11.824-39.47 33.786-43.644 59.39-30.315 15.863-56.989 38.4-77.634 65.933h-36.36c-5.523 0-10 4.478-10 10s4.477 10 10 10h41.431c3.229 0 6.258-1.559 8.136-4.186 27.496-38.47 67.679-66.814 113.145-79.811l2.909-.831c8.166-2.332 16.601 2.168 19.208 10.249 2.182 6.762-.474 14.16-6.458 17.992l-46.083 29.521c-3.738 2.395-5.45 6.97-4.202 11.231 1.248 4.262 5.156 7.189 9.597 7.189h23.947c-13.424 41.216-20.221 84.04-20.221 127.657v26.053c-35.027-2.987-67.638-18.124-92.652-43.21-1.876-1.882-4.424-2.939-7.081-2.939h-41.676c-5.523 0-10 4.478-10 10s4.477 10 10 10h37.597c28.374 27.097 64.819 43.285 103.812 46.215v94.38c0 29.076 23.655 52.731 52.731 52.731h18.675 14.838 54.616c29.076 0 52.731-23.655 52.731-52.731v-101.828c6.618-5.829 10.806-14.356 10.806-23.848 0-8.425-3.301-16.089-8.671-21.782 5.369-5.694 8.671-13.358 8.671-21.783s-3.301-16.089-8.671-21.783c5.37-5.694 8.671-13.358 8.671-21.783 0-4.163-.812-8.137-2.274-11.783h7.597c17.525 0 31.783-14.258 31.783-31.783s-14.258-31.783-31.783-31.783zm-25.323 118.915c0 6.497-5.286 11.783-11.783 11.783h-46.239c-6.497 0-11.783-5.286-11.783-11.783s5.286-11.783 11.783-11.783h46.239c6.497 0 11.783 5.286 11.783 11.783zm0 43.567c0 6.497-5.286 11.782-11.783 11.782h-46.239c-6.497 0-11.783-5.286-11.783-11.783s5.286-11.782 11.783-11.782h46.239c6.497-.001 11.783 5.286 11.783 11.783zm-120.926-196.616h17.627v22.435h-32.455c7.858-5.373 13.037-13.509 14.828-22.435zm86.349-71.219h23.771v29.854h-23.771zm-30.572 49.853h4.692v24.361c0 10.253 1.895 20.25 5.63 29.716.107.271.24.607-.347 1.082-.576.468-.87.271-1.107.113-14.017-9.289-23.416-23.662-26.35-39.958zm54.343 343.656c0 18.048-14.684 32.731-32.731 32.731h-54.616-14.838-18.675c-18.048 0-32.731-14.684-32.731-32.731v-140.499c0-47.854 8.612-94.7 25.562-139.356h35.537v14.714c0 16.154 5.061 32.024 14.306 45.218-.526 2.29-.813 4.67-.813 7.116 0 8.425 3.301 16.089 8.671 21.783-5.37 5.694-8.671 13.358-8.671 21.783s3.301 16.089 8.671 21.783c-5.37 5.694-8.671 13.358-8.671 21.783 0 17.524 14.258 31.782 31.783 31.782h46.239c.328 0 .652-.015.978-.025v93.918zm10.806-212.807c0 6.497-5.286 11.783-11.783 11.783h-46.239c-6.497 0-11.783-5.286-11.783-11.783s5.286-11.783 11.783-11.783h46.239c6.497 0 11.783 5.286 11.783 11.783zm25.323-31.783h-83.346c-7.036 0-13.543 2.302-18.814 6.187-4.206-8.238-6.462-17.425-6.462-26.738v-3.015h108.622c6.497 0 11.783 5.285 11.783 11.782s-5.286 11.784-11.783 11.784z"/><path id="XMLID_844_" d="m216.25 65.763c2.63 0 5.21-1.07 7.069-2.93 1.86-1.86 2.931-4.44 2.931-7.07s-1.07-5.21-2.931-7.07c-1.859-1.859-4.439-2.93-7.069-2.93s-5.21 1.07-7.07 2.93c-1.87 1.86-2.93 4.44-2.93 7.07s1.06 5.21 2.93 7.07c1.86 1.859 4.44 2.93 7.07 2.93z"/></g></g></svg>