<svg id="Capa_1" enable-background="new 0 0 516.037 516.037" height="512" viewBox="0 0 516.037 516.037" width="512" xmlns="http://www.w3.org/2000/svg"><g><path d="m408.644 411.413c-4.39-3.356-10.664-2.514-14.018 1.873-3.354 4.388-2.515 10.664 1.873 14.018l17.089 13.061c1.807 1.381 3.943 2.055 6.068 2.055 2.735 0 5.451-1.118 7.416-3.287l32.664-36.066c3.707-4.094 3.395-10.418-.699-14.125-4.093-3.707-10.418-3.394-14.125.699l-26.488 29.248z"/><path d="m514.82 358.033c-.114-5.099-4.047-9.293-9.126-9.737-23.789-2.079-53.063-18.059-74.582-40.708-1.888-1.986-4.507-3.111-7.247-3.112-.001 0-.002 0-.003 0-2.738 0-5.357 1.123-7.245 3.107-9.659 10.153-20.871 18.96-32.441 25.781-20.302-22.664-45.29-39.362-74.577-49.873-.255-.103-.513-.195-.777-.277-2.281-.808-4.589-1.579-6.922-2.313 24.768-24.702 41.428-57.164 41.428-86.285v-15.711c11.708-5.098 19.919-16.784 19.919-30.357 0-14.099-8.874-26.158-21.327-30.903-5.14-49.901-40.297-91.849-88.59-105.727-1.427-6.797-7.466-11.918-14.68-11.918h-36.237c-6.958 0-12.807 4.768-14.495 11.205-23.755 6.335-45.453 19.857-61.721 38.657-16.512 19.082-26.78 42.912-29.388 67.788-12.459 4.748-21.336 16.804-21.336 30.899 0 13.578 8.223 25.267 19.947 30.362v15.706c0 29.094 16.663 61.568 41.43 86.287-2.265.712-4.508 1.457-6.725 2.239-.436.124-.86.277-1.273.458-32.78 11.825-60.147 31.399-81.579 58.43-20.612 25.998-35.265 58.103-43.551 95.431-2.949 13.34-5.167 30.104 3.929 41.43 8.885 11.063 24.783 12.481 37.642 12.481h65.415c5.523 0 10-4.478 10-10s-4.477-10-10-10h-65.415c-11.963 0-19.381-1.684-22.048-5.005-2.825-3.518-2.823-11.791.003-24.581 10.393-46.812 35.805-104.097 97.032-133.02-1.883 33.783 16.422 55.865 28.057 69.88 1.781 2.146 4.377 3.45 7.162 3.599 2.783.154 5.505-.872 7.504-2.816l56.358-54.808 56.385 54.81c1.871 1.818 4.373 2.829 6.97 2.829.179 0 .358-.005.539-.015 2.785-.15 5.382-1.457 7.162-3.606 11.619-14.027 29.897-36.122 28.031-69.834 17.763 8.426 33.457 19.695 46.953 33.733-8.059 3.119-15.983 5.112-23.372 5.758-5.076.443-9.007 4.634-9.126 9.729-.837 35.753 5.122 61.368 21.244 91.349.136.254 5.584 10.02 14.073 22h-166.979c-5.523 0-10 4.478-10 10s4.477 10 10 10h182.861c12.056 13.324 26.275 24.664 39.759 24.664 32.532 0 69.356-65.997 69.71-66.657 16.096-29.986 22.053-55.597 21.249-91.349zm-193.312-242.547h-55.058c-10.402-27.173-12.37-49.58-12.723-82.473 36.069 12.757 62.29 44.583 67.781 82.473zm-114.1-95.486h26.246c.063 38.708 1.044 64.924 11.523 95.486h-49.272c10.461-30.563 11.441-56.782 11.503-95.486zm-20.063 12.224c-.33 33.326-2.242 55.871-12.708 83.263h-57.402c5.704-38.383 33.296-71.072 70.11-83.263zm-78.781 103.262h66.898c.589.478 1.159.539 1.637 0h153.085c7.203 0 13.063 5.859 13.063 13.063 0 7.219-5.859 13.092-13.063 13.092h-221.62c-7.218 0-13.091-5.873-13.091-13.092 0-7.203 5.872-13.063 13.091-13.063zm6.856 59.131v-12.977h207.907v12.977c0 38.126-36.936 85.279-79.044 100.91-18.425 6.847-31.506 6.841-49.974-.022-42.025-15.695-78.889-62.84-78.889-100.888zm41.502 162.828c-10.35-13.512-20.316-31.252-15.526-57.003 4.411-1.424 8.969-2.723 13.695-3.872 10.084 7.398 20.96 13.466 32.235 17.677 3.629 1.348 7.121 2.459 10.537 3.383zm124.894-.006-40.966-39.821c3.372-.915 6.818-2.012 10.396-3.342 11.331-4.206 22.26-10.286 32.391-17.708 4.668 1.136 9.233 2.423 13.687 3.865 4.801 25.715-5.161 43.473-15.508 57.006zm194.13 82.489c-11.826 22.071-39.521 56.109-52.085 56.109s-40.259-34.038-52.092-56.123c-13.215-24.572-18.638-45.063-18.932-72.963 10.788-2.053 22.019-6.079 33.063-11.701.388-.169.766-.368 1.137-.59 12.896-6.703 25.508-15.574 36.82-26.117 21.298 19.87 47.227 33.883 71.02 38.409-.315 27.904-5.737 48.399-18.931 72.976z"/><path d="m155.974 471.373c-5.523 0-10 4.478-10 10s4.477 10 10 10h.057c5.523 0 9.971-4.478 9.971-10s-4.505-10-10.028-10z"/></g></svg>