<?xml version="1.0"?>
<svg xmlns="http://www.w3.org/2000/svg" viewBox="0 0 64 64" width="512" height="512"><g id="Outline"><g><path d="M35,17.28V15h2a1,1,0,0,0,1-1V10a1,1,0,0,0-1-1H10a1,1,0,0,0,0,2H36v2H27a1,1,0,0,0,0,2h2v2.27a17,17,0,0,0-6.7,2.79L20,17.74a1,1,0,0,0-1.41,0l-2.83,2.82a1,1,0,0,0-.3.71,1,1,0,0,0,.3.71l2.32,2.32a16.94,16.94,0,0,0-2.5,5.45,1,1,0,1,0,1.93.5,15.21,15.21,0,0,1,1.07-2.85l1.68,1a1,1,0,0,0,1-1.74l-1.69-1a14.76,14.76,0,0,1,4.11-4.11l1,1.69a1,1,0,0,0,1.74-1l-1-1.69A14.84,14.84,0,0,1,31,19v2a1,1,0,0,0,2,0V19.05a14.91,14.91,0,0,1,5.61,1.5l-1,1.69a1,1,0,0,0,1.74,1l1-1.7a15.17,15.17,0,0,1,4.11,4.11l-1.7,1a1,1,0,0,0,1,1.74l1.69-1A14.91,14.91,0,0,1,47,33H45a1,1,0,0,0,0,2h2a14.91,14.91,0,0,1-1.5,5.61l-1.69-1a1,1,0,0,0-1,1.74l1.7,1a15.17,15.17,0,0,1-4.11,4.11l-1-1.7a1,1,0,0,0-1.74,1l1,1.69A14.91,14.91,0,0,1,33,49V47a1,1,0,0,0-2,0v2a14.84,14.84,0,0,1-5.61-1.51l1-1.69a1,1,0,1,0-1.74-1l-1,1.69a14.76,14.76,0,0,1-4.11-4.11l1.69-1a1,1,0,0,0-1-1.74l-1.68,1a15.21,15.21,0,0,1-1.07-2.85A1,1,0,0,0,16.27,37a1,1,0,0,0-.71,1.22A17,17,0,1,0,35,17.28ZM31,15h2v2.05c-.33,0-.66-.05-1-.05s-.67,0-1,0ZM17.86,21.27l1.41-1.41,1.45,1.44a17.17,17.17,0,0,0-1.41,1.42Z"/><path d="M20,34a1,1,0,0,0-1-1H12a1,1,0,0,0,0,2h7A1,1,0,0,0,20,34Z"/><path d="M37.66,28.34a1,1,0,0,0-1.42,0l-3,3a3,3,0,0,0-2.56,0l-4.38-4.37a1,1,0,1,0-1.41,1.41l4.37,4.37A3,3,0,0,0,29,34a3,3,0,0,0,6,0,3,3,0,0,0-.3-1.29l3-2.95A1,1,0,0,0,37.66,28.34Zm-4.95,6.37a1,1,0,0,1-1.42,0,1,1,0,0,1,0-1.42,1,1,0,0,1,1.42,0h0a1,1,0,0,1,0,1.42Z"/><path d="M29.76,52.92a1,1,0,0,0-1.37.37l-.54.94L25.67,53a1,1,0,0,0-1.15.11A8.17,8.17,0,0,1,22,54.53a1,1,0,0,0-.66.95V58h-4V55.48a1,1,0,0,0-.67-.95,7.81,7.81,0,0,1-2.2-1.19,1,1,0,0,0-1.11-.08l-3,1.72-2-3.46L11.08,50a1,1,0,0,0,.47-1.1A8,8,0,0,1,11.33,47a8.33,8.33,0,0,1,.13-1.46,1,1,0,0,0-.48-1L8.8,43.23l2-3.46,1.56.9a1,1,0,1,0,1-1.73l-2.43-1.4a1,1,0,0,0-1.36.36l-3,5.2a1,1,0,0,0,.36,1.36l2.46,1.42A10.65,10.65,0,0,0,9.33,47a9.44,9.44,0,0,0,.13,1.58l-3,1.71a1,1,0,0,0-.37,1.36l3,5.2a1,1,0,0,0,1.37.36l3.29-1.89a10.38,10.38,0,0,0,1.54.84V59a1,1,0,0,0,1,1h6a1,1,0,0,0,1-1V56.16A9.8,9.8,0,0,0,25.26,55l2.46,1.42a1,1,0,0,0,1.36-.36l1.05-1.81A1,1,0,0,0,29.76,52.92Z"/><path d="M16,44.55a1,1,0,0,0-1.31.54A5.08,5.08,0,0,0,14.33,47a5,5,0,0,0,5,5,4.88,4.88,0,0,0,2-.44,1,1,0,1,0-.81-1.82,3,3,0,0,1-1.19.26,3,3,0,0,1-3-3,2.87,2.87,0,0,1,.23-1.14A1,1,0,0,0,16,44.55Z"/><path d="M26,4H42a1,1,0,0,0,0-2H26a1,1,0,0,0,0,2Z"/><path d="M3,32h7a1,1,0,0,0,0-2H3a1,1,0,0,0,0,2Z"/><path d="M7,25h4a1,1,0,0,0,0-2H7a1,1,0,0,0,0,2Z"/><path d="M9,16h8a1,1,0,0,0,0-2H9a1,1,0,0,0,0,2Z"/><path d="M10,60H3a1,1,0,0,0,0,2h7a1,1,0,0,0,0-2Z"/><path d="M3,38H6a1,1,0,0,0,0-2H3a1,1,0,0,0,0,2Z"/><path d="M52,29a1,1,0,0,0,0,2h5a1,1,0,0,0,0-2Z"/><path d="M42,54H34a1,1,0,0,0,0,2h8a1,1,0,0,0,0-2Z"/><path d="M38,58H32a1,1,0,0,0,0,2h6a1,1,0,0,0,0-2Z"/><path d="M58,43H50a1,1,0,0,0,0,2h8a1,1,0,0,0,0-2Z"/><path d="M56,49H48a1,1,0,0,0,0,2h8a1,1,0,0,0,0-2Z"/><path d="M61,37H54a1,1,0,0,0,0,2h7a1,1,0,0,0,0-2Z"/><path d="M42.94,16l-.62.62a1,1,0,0,0,0,1.42,1,1,0,0,0,1.41,0l1-1a1,1,0,0,0,.26-1,7,7,0,0,1,1.81-6.76l2.12-2.12a4,4,0,0,1,4.86-.62l-4.15,4.16a4,4,0,0,0,5.65,5.65l4.16-4.15a4,4,0,0,1-.62,4.86l-2.12,2.12A7,7,0,0,1,50,21a1,1,0,0,0-1,.26l-1,1a1,1,0,1,0,1.42,1.41l.62-.62a9,9,0,0,0,8.11-2.45l2.12-2.12a6,6,0,0,0,0-8.49,1,1,0,0,0-1.41,0L53.88,15a2,2,0,0,1-2.83-2.83l5-4.95a1,1,0,0,0,.29-.71,1,1,0,0,0-.29-.7,6,6,0,0,0-8.49,0L45.39,7.88A9,9,0,0,0,42.94,16Z"/></g></g></svg>
