<svg height="512" viewBox="0 0 512 512" width="512" xmlns="http://www.w3.org/2000/svg"><path d="m500.99 433.11-159.14-159.14a8 8 0 0 0 -11.31 0l-8.23 8.23-23.63-23.63 85.8-85.8 52.37 10.48a8.027 8.027 0 0 0 7.23-2.19l56.57-56.57a7.983 7.983 0 0 0 2.29-6.54l-5.66-50.91a8 8 0 0 0 -13.6-4.78l-58.62 58.62-28.11-5.83-5.83-28.11 58.61-58.62a7.989 7.989 0 0 0 -4.77-13.6l-50.91-5.66a8.026 8.026 0 0 0 -6.54 2.29l-56.57 56.57a8.027 8.027 0 0 0 -2.19 7.23l10.48 52.37-85.8 85.8-112.89-112.9-3.75-37.38a8 8 0 0 0 -4.39-6.37l-91.28-45.48a8.018 8.018 0 0 0 -9.23 1.5l-19.2 19.2a8.018 8.018 0 0 0 -1.5 9.23l45.48 91.28a8 8 0 0 0 6.37 4.39l37.38 3.75 112.9 112.89-85.8 85.8-52.37-10.48a8.018 8.018 0 0 0 -7.23 2.19l-56.57 56.57a7.983 7.983 0 0 0 -2.29 6.54l5.66 50.91a8 8 0 0 0 13.6 4.78l58.62-58.62 28.11 5.83 5.83 28.11-58.61 58.62a7.989 7.989 0 0 0 4.77 13.6l50.91 5.66c.3.03.59.05.88.05a8 8 0 0 0 5.66-2.34l56.57-56.57a8.027 8.027 0 0 0 2.19-7.23l-10.48-52.37 85.8-85.8 23.63 23.63-8.23 8.23a8 8 0 0 0 0 11.31l159.14 159.14a8 8 0 0 0 11.31 0l56.57-56.57a8 8 0 0 0 0-11.31zm-431.97-311.8-40.94-82.17 11.06-11.06 82.17 40.94 3.21 32.06-23.44 23.44zm46.35 11.55 17.49-17.49 109.26 109.26-17.49 17.49zm43.06 243.34a8.007 8.007 0 0 0 -2.19 7.22l10.48 52.37-50.82 50.82-30.55-3.39 49.9-49.9a8 8 0 0 0 2.18-7.29l-7.78-37.47a8.015 8.015 0 0 0 -6.21-6.21l-37.47-7.78a8 8 0 0 0 -7.29 2.18l-49.9 49.9-3.39-30.55 50.82-50.82 52.37 10.48a8.007 8.007 0 0 0 7.22-2.19l217.77-217.77a8.007 8.007 0 0 0 2.19-7.22l-10.48-52.37 50.82-50.82 30.55 3.39-49.9 49.9a8 8 0 0 0 -2.18 7.29l7.78 37.47a8.015 8.015 0 0 0 6.21 6.21l37.47 7.78a8 8 0 0 0 7.29-2.18l49.9-49.9 3.39 30.55-50.82 50.82-52.37-10.48a8.007 8.007 0 0 0 -7.22 2.19zm111.45-88.83 17.49-17.49 23.63 23.63-17.49 17.49zm168.88 196.65-147.82-147.82 45.26-45.26 147.82 147.82z"/></svg>