<svg height="682pt" viewBox="-21 -84 682.66667 682" width="682pt" xmlns="http://www.w3.org/2000/svg"><path d="m621.265625 90.625h-242.320313v-34.585938c0-33.0625-26.894531-59.957031-59.953124-59.957031-33.058594 0-59.953126 26.894531-59.953126 59.957031v34.585938h-240.304687c-10.332031 0-18.734375 8.402344-18.734375 18.734375v381.285156c0 10.328125 8.402344 18.734375 18.734375 18.734375h602.53125c10.332031 0 18.734375-8.40625 18.734375-18.734375v-381.285156c0-10.332031-8.402344-18.734375-18.734375-18.734375zm-337.246094-34.585938c0-14.886718 9.347657-27.621093 22.480469-32.660156v17.347656c0 6.894532 5.59375 12.492188 12.492188 12.492188 6.894531 0 12.492187-5.597656 12.492187-12.492188v-17.347656c13.128906 5.039063 22.480469 17.773438 22.480469 32.660156v74.113282h-69.945313zm331 428.273438h-590.039062v-96.96875h37.636719c.46875.054688.945312.082031 1.429687.082031h162.535156c.484375 0 .960938-.027343 1.429688-.082031h387.007812zm-489.488281-245.292969v-3.40625c2.113281.226563 4.125.351563 6.015625.351563 4.332031 0 8.078125-.59375 11.273437-1.769532 1.894532-.699218 3.746094-1.40625 5.546876-2.105468 6.984374-2.6875 13.113281-5.035156 17.535156-4.804688v11.734375c0 10.859375-8.628906 19.71875-19.390625 20.140625h-1.585938c-10.761719-.421875-19.394531-9.28125-19.394531-20.140625zm36.417969-36.578125c-7.785157.671875-15.25 3.53125-22.546875 6.335938-1.699219.652344-3.4375 1.320312-5.214844 1.972656-.027344.011719-2.15625.691406-8.269531-.253906 1.820312-9.269532 10.003906-16.289063 19.800781-16.289063 6.652344 0 12.550781 3.253907 16.230469 8.234375zm-46.933594 81.703125h18.210937v28.296875c0 6.894532 5.597657 12.488282 12.492188 12.488282 6.898438 0 12.492188-5.59375 12.492188-12.488282v-28.296875h17.402343c10.703125 0 20.5625 5.371094 26.363281 14.371094 7.925782 12.300781 12.113282 26.53125 12.113282 41.167969v22.675781h-137.550782v-22.675781c0-14.636719 4.1875-28.867188 12.113282-41.167969 5.800781-9 15.652344-14.371094 26.363281-14.371094zm500.003906 78.214844h-375.949219v-22.675781c0-19.445313-5.566406-38.355469-16.097656-54.699219-8.574218-13.304687-22.085937-22.183594-37.3125-24.917969 3.328125-6.289062 5.222656-13.449218 5.222656-21.046875v-24.628906c0-.476563-.019531-.949219-.035156-1.417969.007813-.199218.03125-.398437.03125-.601562-.371094-23.792969-20.023437-43.148438-43.820312-43.148438h-2.667969c-24.171875 0-43.828125 19.664063-43.828125 43.832032v1.09375c0 .085937-.011719.164062-.011719.246093v24.625c0 7.550781 1.875 14.671875 5.160157 20.929688-15.53125 2.574219-29.34375 11.515625-38.058594 25.035156-10.535156 16.34375-16.101563 35.257813-16.101563 54.699219v22.679687h-26.570312v-246.757812h234.058593v27.035156c0 6.894531 5.589844 12.492187 12.488282 12.492187h94.925781c6.902344 0 12.492187-5.597656 12.492187-12.492187v-27.035156h236.074219zm0 0"/><path d="m395.125 472.425781c19.722656 0 35.769531-16.042969 35.769531-35.765625s-16.046875-35.761718-35.769531-35.761718c-19.71875 0-35.765625 16.039062-35.765625 35.761718s16.046875 35.765625 35.765625 35.765625zm0-46.546875c5.949219 0 10.789062 4.832032 10.789062 10.78125 0 5.945313-4.839843 10.785156-10.789062 10.785156-5.945312 0-10.785156-4.839843-10.785156-10.785156 0-5.949218 4.839844-10.78125 10.785156-10.78125zm0 0"/><path d="m479.910156 472.425781c19.722656 0 35.761719-16.042969 35.761719-35.765625s-16.039063-35.761718-35.761719-35.761718c-19.71875 0-35.765625 16.039062-35.765625 35.761718s16.046875 35.765625 35.765625 35.765625zm0-46.546875c5.949219 0 10.78125 4.832032 10.78125 10.78125 0 5.945313-4.832031 10.785156-10.78125 10.785156-5.945312 0-10.785156-4.839843-10.785156-10.785156 0-5.949218 4.839844-10.78125 10.785156-10.78125zm0 0"/><path d="m564.441406 472.425781c19.722656 0 35.761719-16.042969 35.761719-35.765625s-16.039063-35.761718-35.761719-35.761718c-19.71875 0-35.765625 16.039062-35.765625 35.761718s16.046875 35.765625 35.765625 35.765625zm0-46.546875c5.949219 0 10.78125 4.832032 10.78125 10.78125 0 5.945313-4.835937 10.785156-10.78125 10.785156-5.945312 0-10.785156-4.839843-10.785156-10.785156 0-5.949218 4.839844-10.78125 10.785156-10.78125zm0 0"/><path d="m303.015625 194.734375c0 6.902344 5.59375 12.492187 12.492187 12.492187h206.394532c6.902344 0 12.492187-5.589843 12.492187-12.492187 0-6.894531-5.589843-12.488281-12.492187-12.488281h-206.394532c-6.898437 0-12.492187 5.59375-12.492187 12.488281zm0 0"/><path d="m572.175781 230.957031h-256.667969c-6.898437 0-12.492187 5.59375-12.492187 12.488281 0 6.902344 5.59375 12.492188 12.492187 12.492188h256.667969c6.894531 0 12.492188-5.589844 12.492188-12.492188 0-6.894531-5.597657-12.488281-12.492188-12.488281zm0 0"/><path d="m416.675781 275.921875h-103.042969c-6.894531 0-12.492187 5.589844-12.492187 12.492187 0 6.894532 5.597656 12.488282 12.492187 12.488282h103.042969c6.898438 0 12.492188-5.59375 12.492188-12.488282 0-6.902343-5.59375-12.492187-12.492188-12.492187zm0 0"/><path d="m572.800781 275.921875h-101.796875c-6.898437 0-12.488281 5.589844-12.488281 12.492187 0 6.894532 5.589844 12.488282 12.488281 12.488282h101.796875c6.894531 0 12.492188-5.59375 12.492188-12.488282 0-6.902343-5.597657-12.492187-12.492188-12.492187zm0 0"/><path d="m563.539062 205.574219.367188.285156c2.253906 1.714844 4.910156 2.542969 7.542969 2.542969 3.773437 0 7.5-1.703125 9.957031-4.9375 4.175781-5.492188 3.105469-13.328125-2.394531-17.503906l-.363281-.277344c-5.496094-4.171875-13.328126-3.101563-17.5 2.390625-4.175782 5.496093-3.105469 13.332031 2.390624 17.5zm0 0"/><path d="m326.933594 80.488281-.367188-.277343c-5.484375-4.1875-13.320312-3.132813-17.503906 2.351562-4.183594 5.488281-3.128906 13.324219 2.351562 17.503906l.367188.285156c2.265625 1.726563 4.925781 2.5625 7.570312 2.5625 3.757813 0 7.480469-1.695312 9.941407-4.917968 4.179687-5.488282 3.125-13.324219-2.359375-17.507813zm0 0"/></svg>