<?xml version="1.0"?>
<svg xmlns="http://www.w3.org/2000/svg" id="outline" viewBox="0 0 512 512" width="512" height="512"><path d="M152,160a8.00917,8.00917,0,0,1-8,8h-8v16h8a24.0275,24.0275,0,0,0,24-24v-8H152Z"/><circle cx="128" cy="136" r="8"/><circle cx="176" cy="136" r="8"/><path d="M488,104H376a8.00008,8.00008,0,0,0-8,8V224a64.08924,64.08924,0,0,0,40,59.31323V388.90015l-32-10.66651V352a8.00008,8.00008,0,0,0-8-8H350.03467L338.6062,304H368a8.00008,8.00008,0,0,0,8-8V272a7.99979,7.99979,0,0,0-4.42236-7.15527l-32-16-.00293.00586A7.95449,7.95449,0,0,0,336,248H288a8.00222,8.00222,0,0,0-4.7998,1.59961l-25.59278,19.19458A39.558,39.558,0,0,0,248,256.42163V112a96,96,0,0,0-192,0V256.42139A39.75155,39.75155,0,0,0,44.21924,274.044l-19.8086,59.42578a8.0006,8.0006,0,0,0,4.314,9.8291l2.79663,1.25488-15.21362,53.248A8.00881,8.00881,0,0,0,16,400v32a8.00017,8.00017,0,0,0,6.56885,7.87109L80,450.313V488a8.00008,8.00008,0,0,0,8,8H344a8.00008,8.00008,0,0,0,8-8V472h56v16a8.00008,8.00008,0,0,0,8,8h32a8.00008,8.00008,0,0,0,8-8V472h16a7.99967,7.99967,0,0,0,7.15527-4.42188l16-32A7.99934,7.99934,0,0,0,496,432V408a8.00008,8.00008,0,0,0-8-8H464v-8a7.98674,7.98674,0,0,0-8-7.99268V283.31323A64.08924,64.08924,0,0,0,496,224V112A8.00008,8.00008,0,0,0,488,104Zm-8,16v42.36182l-24,8.57153V120Zm-40,0v56.64771l-16,5.71411V120Zm-32,0v68.07617l-24,8.57154V120ZM200,376V360H360v16Zm-86.02954,8.24268L96,379.1084V368a7.99986,7.99986,0,0,0-1.34375-4.4375l-6.53516-9.80273A48.35332,48.35332,0,0,1,81.44385,315.21L97.15466,252.3667,112,244.94409V272a8.00008,8.00008,0,0,0,8,8h64a8.00008,8.00008,0,0,0,8-8V244.94409l14.84546,7.42285,7.68384,30.73584-19.3291,14.49683A8.0009,8.0009,0,0,0,192,304v16a8.00008,8.00008,0,0,0,8,8h13.75366l-4,16H192a8.00008,8.00008,0,0,0-8,8v32a8.00008,8.00008,0,0,0,8,8h.00012l-9.85657,7.39258ZM128,247.56079a48.34626,48.34626,0,0,0,48,0V264H128ZM152,208a48.054,48.054,0,0,1-48-48V114.21582l16.22168-27.03613A65.4769,65.4769,0,0,0,171.77686,112H176a24.02718,24.02718,0,0,1,24,24v24A48.054,48.054,0,0,1,152,208Zm0,16a63.72164,63.72164,0,0,0,19.84546-3.16528l2.74145,8.22461-3.3872,2.54028a32.15957,32.15957,0,0,1-38.39991,0l-3.38684-2.54,2.74158-8.22485A63.72164,63.72164,0,0,0,152,224Zm80.56641,41.22754A23.88217,23.88217,0,0,1,240.78967,272H232a7.99047,7.99047,0,0,0-3.54333.84131l-2.76246-11.04981ZM304,300.94434V312H288V292.94434ZM208,312v-4l26.6665-20H272v24Zm41.75391,16,3.99987,16H226.24622l3.99987-16ZM120,401.97266l62.26465,13.83691a7.99894,7.99894,0,0,0,6.53515-1.40918L218.6665,392H248v30.11133L235.05566,448H120ZM270.24634,344l-4-16H312a8.00008,8.00008,0,0,0,8-8V304h1.96533l11.42847,40ZM360,288H344V268.94434l16,8Zm-69.3335-24H328v24H313.88818l-30.31054-15.15527-.00293.00586A7.95449,7.95449,0,0,0,280,272ZM152,32a80.09041,80.09041,0,0,1,80,80V247.05591l-41.4585-20.72974-4.13476-12.404A63.99066,63.99066,0,0,0,216,160V136a40.04552,40.04552,0,0,0-40-40h-4.22314a49.61686,49.61686,0,0,1-44.62159-27.57812,8.00007,8.00007,0,0,0-14.01513-.53809l-24,40A7.99883,7.99883,0,0,0,88,112v48a63.99066,63.99066,0,0,0,29.59326,53.92212l-4.13476,12.404L72,247.05566V112A80.09041,80.09041,0,0,1,152,32ZM59.398,279.10449a23.84418,23.84418,0,0,1,12.03516-13.877l6.8728-3.43652L65.92139,311.3291a64.32761,64.32761,0,0,0-.02381,31.11377L41.87793,331.66406ZM32,401.12012l14.271-49.94727,29.81567,13.37988L80,370.42285v4.114l-21.80225-6.22925-4.3955,15.38476L104,398.03467v40.37939L32,425.32324ZM96,480V453.22217l8,1.45459V456a8.00008,8.00008,0,0,0,8,8h96v16Zm128,0V464h16a7.99967,7.99967,0,0,0,7.15527-4.42188l16-32A7.99934,7.99934,0,0,0,264,424V392h72v88Zm128-24V392h14.70068l46.76953,15.58984a8.02432,8.02432,0,0,0,4.09864.25489L448,401.75879v3.81933L435.71875,424H400v16h8v16Zm88,24H424V440h16Zm40-49.88867L467.05566,456H456V422.42188L460.28125,416H480ZM440,387.0415l-16,3.19971v-102.759a62.05645,62.05645,0,0,0,16,0ZM480,224a48,48,0,0,1-96,0V213.6377l96-34.28614Z"/></svg>
