<svg id="Capa_1" enable-background="new 0 0 512 512" height="512" viewBox="0 0 512 512" width="512" xmlns="http://www.w3.org/2000/svg"><g><path d="m172.102 393.425h30.083v30h-30.083z"/><path d="m491.213 320.664c-7.169-6.707-11.281-16.185-11.281-26.002v-19.113c9.159-8.977 14.854-21.475 14.854-35.282 0-13.806-5.697-26.302-14.854-35.279v-19.004c0-57.033-46.399-103.432-103.432-103.432s-103.432 46.399-103.432 103.432v19.004c-9.158 8.977-14.854 21.472-14.854 35.279s5.696 26.305 14.854 35.282v19.113c0 9.818-4.112 19.295-11.281 26.002-2.736 2.559-5.585 5.448-8.266 8.764-6.601-7.171-14.848-12.946-24.354-16.749l-44.238-17.695v-15.43c17.54-12.842 29.931-32.32 33.426-54.711 20.46-6.05 35.432-25.015 35.432-47.411 0-13.806-5.697-26.302-14.854-35.279v-19.004c0-57.032-46.399-103.432-103.432-103.432s-103.433 46.4-103.433 103.432v19.004c-9.158 8.977-14.854 21.472-14.854 35.279 0 22.396 14.972 41.361 35.432 47.411 3.494 22.391 15.886 41.868 33.426 54.711v15.43l-44.238 17.695c-25.413 10.166-41.834 34.42-41.834 61.79v117.813h512v-127.71c0-21.682-11.108-34.855-20.787-43.908zm-9.213 43.908v23.105c-3.678-2.403-7.63-4.478-11.834-6.16l-46.564-18.625-4.095-16.23c14.02-8.41 25.377-20.807 32.529-35.603 3.101 11.959 9.54 22.96 18.684 31.513 8.328 7.792 11.28 13.549 11.28 22zm-174.357-104.876c-10.713 0-19.429-8.716-19.429-19.429s8.716-19.428 19.429-19.428h10.905c23.595 0 44.608-11.259 57.952-28.687 13.344 17.428 34.357 28.687 57.952 28.687h10.905c10.713 0 19.429 8.715 19.429 19.428s-8.716 19.429-19.429 19.429h-15v15c0 29.697-24.16 53.857-53.857 53.857s-53.857-24.16-53.857-53.857v-15zm54.12 97.549c4.787.852 9.709 1.308 14.737 1.308s9.95-.455 14.737-1.308l7.019 27.82 25.422 10.168c-12.25 12.086-28.762 18.965-46.637 18.965-.002 0-.006 0-.007 0-18.024-.001-34.664-6.997-46.943-19.272l24.654-9.861zm-58.695-171.26c0-40.491 32.941-73.432 73.432-73.432s73.432 32.941 73.432 73.432v5.074c-1.507-.139-3.031-.22-4.574-.22h-10.905c-23.684 0-42.952-19.269-42.952-42.953h-30c0 23.684-19.269 42.953-42.952 42.953h-10.905c-1.543 0-3.067.081-4.574.22v-5.074zm-32.068 178.587c0-8.451 2.952-14.208 11.281-22 9.144-8.553 15.582-19.554 18.684-31.513 7.152 14.796 18.508 27.193 32.529 35.603l-4.095 16.23-46.565 18.625c-4.204 1.682-8.155 3.756-11.833 6.159v-23.104zm-208.932-241.423c0-40.49 32.941-73.432 73.432-73.432s73.432 32.941 73.432 73.432v5.074c-1.507-.139-3.031-.22-4.574-.22h-10.905c-23.684 0-42.952-19.269-42.952-42.953h-30c0 23.684-19.269 42.953-42.952 42.953h-10.906c-1.543 0-3.067.081-4.574.22v-5.074zm4.575 73.711c-10.713 0-19.429-8.716-19.429-19.429s8.716-19.428 19.429-19.428h10.905c23.595 0 44.608-11.259 57.952-28.687 13.344 17.428 34.357 28.687 57.952 28.687h10.905c10.713 0 19.429 8.715 19.429 19.428s-8.716 19.429-19.429 19.429h-15v15c0 29.697-24.16 53.857-53.857 53.857s-53.857-24.16-53.857-53.857v-15zm68.857 98.858c6.687 0 13.19-.795 19.429-2.281v11.702c0 10.713-8.716 19.429-19.429 19.429s-19.429-8.716-19.429-19.429v-11.702c6.239 1.486 12.742 2.281 19.429 2.281zm105.5 166.564h-211v-87.813c0-15.032 9.019-28.353 22.976-33.936l37.515-15.006c7.781 17.109 25.023 29.041 45.01 29.041s37.229-11.932 45.01-29.041l37.515 15.006c13.955 5.583 22.974 18.904 22.974 33.936zm241 0h-211v-18.974c0-15.032 9.019-28.353 22.975-33.936l6.624-2.649c18.176 23.666 45.936 37.473 76.431 37.476h.011c30.355 0 58.006-13.677 76.188-37.145l5.796 2.318c13.956 5.584 22.975 18.904 22.975 33.936z"/></g></svg>