<svg id="Capa_1" enable-background="new 0 0 512 512" height="512" viewBox="0 0 512 512" width="512" xmlns="http://www.w3.org/2000/svg"><g><path d="m405 137h10v10c0 8.284 6.716 15 15 15s15-6.716 15-15v-10h10c8.284 0 15-6.716 15-15s-6.716-15-15-15h-10v-10c0-8.284-6.716-15-15-15s-15 6.716-15 15v10h-10c-8.284 0-15 6.716-15 15s6.716 15 15 15z"/><path d="m55 75h10v10c0 8.284 6.716 15 15 15s15-6.716 15-15v-10h10c8.284 0 15-6.716 15-15s-6.716-15-15-15h-10v-10c0-8.284-6.716-15-15-15s-15 6.716-15 15v10h-10c-8.284 0-15 6.716-15 15s6.716 15 15 15z"/><path d="m477 427h-10v-10c0-8.284-6.716-15-15-15s-15 6.716-15 15v10h-10c-8.284 0-15 6.716-15 15s6.716 15 15 15h10v10c0 8.284 6.716 15 15 15s15-6.716 15-15v-10h10c8.284 0 15-6.716 15-15s-6.716-15-15-15z"/><path d="m508.713 252.978c-3.725-4.656-9.854-6.666-15.611-5.114-13.825 3.721-27.658 5.607-41.115 5.607-87.155 0-158.062-70.906-158.062-158.062 0-25.814 6.11-50.518 18.16-73.425 2.776-5.277 2.163-11.697-1.562-16.354-3.724-4.655-9.849-6.665-15.611-5.114-81.929 22.051-139.149 96.654-139.149 181.423 0 21.589 3.573 42.535 10.634 62.512-44.237 9.743-78.101 47.462-82.017 93.588-46.768 1.389-84.38 39.865-84.38 86.961 0 47.972 39.028 87 87 87h204c54.589 0 99-44.411 99-99 0-16.703-4.164-32.45-11.499-46.267 23.862-4.466 46.724-13.517 67.199-26.76 27.182-17.578 49.511-42.007 64.575-70.643 2.777-5.276 2.163-11.696-1.562-16.352zm-217.713 229.022h-204c-31.43 0-57-25.57-57-57s25.57-57 57-57c3.043 0 6.248.299 9.799.914 4.567.794 9.237-.571 12.663-3.69 3.424-3.119 5.216-7.646 4.853-12.265-.172-2.186-.315-4.144-.315-5.959 0-41.355 33.645-75 75-75 35.988 0 66.957 25.649 73.637 60.988 1.513 7.998 9.128 13.338 17.159 12.018 4.14-.677 7.805-1.006 11.204-1.006 38.047 0 69 30.953 69 69s-30.953 69-69 69zm66.149-142.59c-17.546-15.787-40.744-25.41-66.149-25.41-.773 0-1.553.011-2.338.032-13.097-39.735-48.922-68.184-90.947-71.668-7.936-19.122-11.953-39.406-11.953-60.425 0-60.049 34.172-114.026 86.155-140.597-5.27 17.515-7.992 35.775-7.992 54.066 0 103.697 84.364 188.062 188.062 188.062 4.395 0 8.817-.167 13.257-.499-26.865 32.2-65.832 52.868-108.095 56.439z"/></g></svg>