<svg height="512" viewBox="0 0 60 60" width="512" xmlns="http://www.w3.org/2000/svg"><g id="Page-1" fill="none" fill-rule="evenodd"><g id="038---Do-Not-Bleach" fill="rgb(0,0,0)" fill-rule="nonzero" transform="translate(-1 -1)"><path id="Shape" d="m50 28h-9c-.5522847 0-1 .4477153-1 1s.4477153 1 1 1h9c.5522847 0 1-.4477153 1-1s-.4477153-1-1-1z"/><path id="Shape" d="m61 4c-.000259-1.21318769-.7311825-2.30680215-1.8520363-2.77103393-1.1208539-.46423179-2.4109809-.20768982-3.2689637.65003393l-5.179 5.175c-.2317322-.03480035-.4656721-.05284714-.7-.054v-3c0-1.65685425-1.3431458-3-3-3h-12c-1.6568542 0-3 1.34314575-3 3v3h-14c-1.8773333-.00204756-3.7234609.48014996-5.36 1.4l-6.519-6.521c-.75322341-.77986975-1.86863368-1.09263779-2.91752197-.81809147-1.0488883.27454632-1.86802318 1.0936812-2.1425695 2.1425695-.27454632 1.04888829.03822172 2.16429856.81809147 2.91752197l6.521 6.519c-.91985004 1.6365391-1.40204756 3.4826667-1.4 5.36v32.757l-5.121 5.121c-.56271905.5626237-.87885933 1.3257625-.87885933 2.1215s.31614028 1.5588763.87885933 2.1215c1.1866481 1.1339763 3.0553519 1.1339763 4.242 0l1.579-1.575c.89932318 1.520034 2.5338504 2.4528549 4.3 2.454h38c1.7661496-.0011451 3.4006768-.933966 4.3-2.454l1.576 1.575c.7532234.7798698 1.8686337 1.0926378 2.917522.8180915 1.0488883-.2745464 1.8680231-1.0936812 2.1425695-2.1425695.2745463-1.0488883-.0382217-2.1642986-.8180915-2.917522l-5.118-5.121v-38.758c-.0012392-.2343244-.0192855-.468258-.054-.7l5.175-5.174c.5655698-.56256919.8821584-1.32828873.879-2.126zm-27 0c0-.55228475.4477153-1 1-1h1v1c0 .55228475.4477153 1 1 1s1-.44771525 1-1v-1h2v1c0 .55228475.4477153 1 1 1s1-.44771525 1-1v-1h2v1c0 .55228475.4477153 1 1 1s1-.44771525 1-1v-1h1c.5522847 0 1 .44771525 1 1v3h-14zm-16 5 30.758-.00000003-7 7.00000003h-3.178c-1.268242-.0045108-2.4897376.4784311-3.412 1.349l-7.025 6.551-7.336-7.336c2.241074-1.6271071 4.7534663-2.8430102 7.42-3.591.4929471-.1169158.8205778-.5840043.7626713-1.0873063-.0579065-.5033021-.4830526-.8837812-.9896713-.8856937h-10c-.8011253-.0019992-1.5964318.1360795-2.35.408l-1.525-1.525c1.2090642-.5813185 2.5334459-.88310664 3.875-.883zm21.758 8.9999754-8.758 8.7580246-1.442-1.442 6.979-6.509c.5522304-.5211686 1.2836809-.810097 2.043-.807zm-22.458-4.9459754c.2318215-.0340081.4657054-.0520505.7-.054h4.771c-1.1838748.6241566-2.3178978 1.3386045-3.392 2.137zm-8.3 4.946c-.00012764-1.3412358.3016653-2.6652968.883-3.874l1.524 1.523c-.2711584.7540867-.4088837 1.5496449-.407 2.351v10c-.000206.5087167.3815416.936515.887.994.0375371.0039588.0752548.0059615.113.006.4651706-.0000592.8688714-.3208646.974-.774.615547-2.7238362 1.8129184-5.282322 3.51-7.5l7.267 7.267-1.167 1.087c-1.0090521.950118-1.5820249 2.2740323-1.584 3.66v4.018l-12.00000004 12zm4 0c.0019495-.2342946.0199919-.4681785.054-.7l2.026 2.026c-.7853405.979178-1.4814518 2.0266916-2.08 3.13zm12.167 11.409 1.591 1.591-3.758 3.758v-2.018c.0009285-.8329185.3449124-1.6286753.951-2.2zm24.833 29.591h-38c-1.2512518.0002081-2.37122773-.7762023-2.81-1.948l11.81-11.81v3.758c0 1.6568542 1.3431458 3 3 3h23.758l5.052 5.052c-.4387723 1.1717977-1.5587482 1.9482081-2.81 1.948zm-23.758-19h4.758c.5522847 0 1-.4477153 1-1s-.4477153-1-1-1h-2.758l2.758-2.758 7.758 7.758h-11.758c-.5522847 0-1 .4477153-1 1s.4477153 1 1 1h13.758l5 5h-21.758c-.5522847 0-1-.4477153-1-1v-5.758zm23 5h.758c.5522847 0 1-.4477153 1-1s-.4477153-1-1-1h-2.758l-3-3h5.758c.5522847 0 1-.4477153 1-1s-.4477153-1-1-1h-7.758l-3-3h10.758c.5522847 0 1-.4477153 1-1s-.4477153-1-1-1h-12.758l-2-2 6-6h8.758c.5522847 0 1-.4477153 1-1s-.4477153-1-1-1h-6.758l5-5h4.758v30.758zm3.758-29h-2.758l2.758-2.757zm5.707-11.293-25.586 25.586c-.3903819.3904999-.3903819 1.0235001 0 1.414l12.979 12.976c.013.014.026.027.04.04l12.57 12.57c.3903819.3904999.3903819 1.0235001 0 1.414-.395481.3781625-1.018519.3781625-1.414 0l-25.589-25.586c-.3904999-.3903819-1.0235001-.3903819-1.414 0l-25.586 25.586c-.39548103.3781625-1.01851897.3781625-1.414 0-.39038194-.3904999-.39038194-1.0235001 0-1.414l25.586-25.586c.3903819-.3904999.3903819-1.0235001 0-1.414l-25.586-25.586c-.37897221-.39237889-.37355237-1.01608478.01218142-1.40181858.3857338-.38573379 1.00943969-.39115363 1.40181858-.01218142l25.586 25.586c.3904999.3903819 1.0235001.3903819 1.414 0l25.586-25.586c.2510745-.25995658.6228779-.3642126.9725073-.27269716.3496295.09151544.6226744.3645604.7141899.71418984.0915154.34962943-.0127406.72143285-.2726972.97250732z"/></g></g></svg>