<svg id="icons" enable-background="new 0 0 64 64" height="512" viewBox="0 0 64 64" width="512" xmlns="http://www.w3.org/2000/svg"><path d="m6.994 20.977v1.007c0 .553.447 1 1 1s1-.447 1-1v-1.007c.553 0 1-.447 1-1s-.447-1-1-1v-1.006c0-.553-.447-1-1-1s-1 .447-1 1v1.006c-.553 0-1 .447-1 1s.447 1 1 1z"/><path d="m30.025 17.002v1.007c0 .553.447 1 1 1s1-.447 1-1v-1.007c.553 0 1-.447 1-1s-.447-1-1-1v-1.006c0-.553-.447-1-1-1s-1 .447-1 1v1.006c-.553 0-1 .447-1 1s.448 1 1 1z"/><path d="m19.041 33.003c.552 0 1-.447 1-1s-.448-1-1-1h-.011c-.552 0-.994.447-.994 1s.452 1 1.005 1z"/><path d="m17.032 5.977c.552 0 1-.447 1-1s-.448-1-1-1h-.011c-.552 0-.994.447-.994 1s.452 1 1.005 1z"/><path d="m63.999 1.001c0-.553-.447-1-1-1l-32.299-.001c-.001 0-.003 0-.004 0h-29.696c-.266 0-.52.105-.707.293s-.293.441-.293.707v29.696.004l.001 32.299c0 .553.447 1 1 1l61.999.001c.008.001.015.001.02 0 .553 0 1-.447 1-1 0-.068-.007-.136-.02-.2zm-33.714.999 15.878 15.879-28.284 28.284-15.879-15.878v-28.285zm19.402 46.271c.001.001.001.002.002.003.39.39.389 1.023-.001 1.414-.39.389-1.021.391-1.413 0l-10.597-10.596 1.415-1.415zm-15.544-8.472-.707-.708 5.656-5.657.708.708zm-13.436 9.192-1.414-1.414 28.284-28.284 1.414 1.414zm-18.706 13.008-.001-28.886 15.172 15.171 2.828 2.828c.188.188.441.293.707.293s.52-.105.707-.293l10.607-10.607 1.414 1.415c.195.195.451.293.707.293s.512-.098.707-.293l1.414-1.414 10.598 10.597s.001 0 .001.001c.566.564 1.318.876 2.118.876.802 0 1.555-.312 2.121-.878 1.167-1.167 1.169-3.064.008-4.233-.002-.003-.003-.006-.005-.008l-10.597-10.598 1.414-1.414c.391-.391.391-1.023 0-1.414l-1.415-1.415 10.606-10.605c.188-.188.293-.441.293-.707s-.105-.52-.293-.708l-2.828-2.828-15.171-15.172 28.886.001.001 59.999z"/></svg>